<?xml version="1.0" encoding="UTF-8" standalone="no"?>
<svg
   xmlns:dc="http://purl.org/dc/elements/1.1/"
   xmlns:cc="http://creativecommons.org/ns#"
   xmlns:rdf="http://www.w3.org/1999/02/22-rdf-syntax-ns#"
   xmlns:svg="http://www.w3.org/2000/svg"
   xmlns="http://www.w3.org/2000/svg"
   xmlns:sodipodi="http://sodipodi.sourceforge.net/DTD/sodipodi-0.dtd"
   xmlns:inkscape="http://www.inkscape.org/namespaces/inkscape"
   inkscape:version="1.0 (4035a4fb49, 2020-05-01)"
   sodipodi:docname="devpost.svg"
   id="svg62"
   version="1.1"
   width="105.4"
   viewBox="0 0 105.4 20.4"
   height="20.4"
   enable-background="new 0 0 120 60">
  <metadata
     id="metadata68">
    <rdf:RDF>
      <cc:Work
         rdf:about="">
        <dc:format>image/svg+xml</dc:format>
        <dc:type
           rdf:resource="http://purl.org/dc/dcmitype/StillImage" />
      </cc:Work>
    </rdf:RDF>
  </metadata>
  <defs
     id="defs66" />
  <sodipodi:namedview
     inkscape:current-layer="svg62"
     inkscape:window-maximized="0"
     inkscape:window-y="164"
     inkscape:window-x="2104"
     inkscape:cy="10.2"
     inkscape:cx="76.89115"
     inkscape:zoom="6.6916667"
     showgrid="false"
     id="namedview64"
     inkscape:window-height="631"
     inkscape:window-width="881"
     inkscape:pageshadow="2"
     inkscape:pageopacity="0"
     guidetolerance="10"
     gridtolerance="10"
     objecttolerance="10"
     borderopacity="1"
     bordercolor="#666666"
     pagecolor="#ffffff" />
  <path
     id="path40"
     fill="#3acce6"
     d="m 99.5,0 h -4.6 l 5.9,10.2 -5.9,10.2 h 4.6 l 5.9,-10.2 z" />
  <path
     id="path42"
     fill="#3acce6"
     d="m 5.9,0 h 4.6 L 4.6,10.2 10.5,20.4 H 5.9 L 0,10.2 Z" />
  <path
     id="path44"
     fill="#003e54"
     d="M 8.8,20.4 2.9,10.2 8.8,0 h 87.8 l 5.9,10.2 -5.9,10.2 z" />
  <g
     transform="translate(-7.3,-19.8)"
     id="g60"
     fill="#ffffff">
    <path
       id="path46"
       d="M 22.1,36.2 H 18.4 V 23.8 h 3.9 c 3.6,0 6.2,1.7 6.2,6.2 -0.1,4.4 -3.3,6.2 -6.4,6.2 z m 0.1,-10 h -1.3 v 7.6 h 1.2 c 2.6,0 3.8,-1.5 3.8,-3.8 0,-2.5 -1.1,-3.8 -3.7,-3.8 z" />
    <path
       id="path48"
       d="M 31.3,36.2 V 23.8 h 8.6 v 2.4 h -6.2 v 2.1 h 3.6 v 2.4 h -3.6 v 3 h 6.4 v 2.4 z" />
    <path
       id="path50"
       d="M 48.9,36.2 H 46.5 L 42.1,23.8 h 2.8 l 2.3,7.2 c 0.2,0.7 0.5,1.6 0.6,2 0.1,-0.5 0.3,-1.3 0.6,-2 l 2.3,-7.2 h 2.7 z" />
    <path
       id="path52"
       d="m 61.2,31.8 h -2.7 v 4.4 H 56 V 23.8 h 5.4 c 2.3,0 4.3,1.3 4.3,3.9 0,2.9 -1.9,4.1 -4.5,4.1 z m 0.2,-5.6 h -2.9 v 3.2 h 2.9 c 1.2,0 1.8,-0.5 1.8,-1.6 0,-1.1 -0.8,-1.6 -1.8,-1.6 z" />
    <path
       id="path54"
       d="m 73.2,36.4 c -3.4,0 -5.4,-2.6 -5.4,-6.4 0,-3.8 2,-6.4 5.4,-6.4 3.4,0 5.4,2.6 5.4,6.4 0,3.8 -2,6.4 -5.4,6.4 z m 0,-10.3 c -2,0 -2.8,1.7 -2.8,3.9 0,2.2 0.8,3.9 2.8,3.9 2,0 2.8,-1.7 2.8,-3.9 0,-2.2 -0.8,-3.9 -2.8,-3.9 z" />
    <path
       id="path56"
       d="m 85.4,36.4 c -2.1,0 -3.9,-0.9 -4.8,-2.3 l 1.8,-1.6 c 0.9,1 2,1.4 3.2,1.4 1.5,0 2.2,-0.4 2.2,-1.4 0,-0.8 -0.4,-1.2 -2.8,-1.7 -2.3,-0.5 -3.9,-1.3 -3.9,-3.7 0,-2.3 2,-3.6 4.4,-3.6 1.9,0 3.4,0.7 4.5,2 l -1.8,1.7 c -0.8,-0.8 -1.7,-1.3 -2.8,-1.3 -1.3,0 -1.8,0.6 -1.8,1.1 0,0.8 0.5,1 2.5,1.5 2,0.5 4.1,1.1 4.1,3.8 0.1,2.5 -1.4,4.1 -4.8,4.1 z" />
    <path
       id="path58"
       d="m 98.1,26.2 v 10 h -2.5 v -10 H 92 v -2.4 h 9.6 v 2.4 z" />
  </g>
</svg>
