<?xml version="1.0" encoding="UTF-8" standalone="no"?>
<svg
   xmlns:dc="http://purl.org/dc/elements/1.1/"
   xmlns:cc="http://creativecommons.org/ns#"
   xmlns:rdf="http://www.w3.org/1999/02/22-rdf-syntax-ns#"
   xmlns:svg="http://www.w3.org/2000/svg"
   xmlns="http://www.w3.org/2000/svg"
   xmlns:sodipodi="http://sodipodi.sourceforge.net/DTD/sodipodi-0.dtd"
   xmlns:inkscape="http://www.inkscape.org/namespaces/inkscape"
   inkscape:version="1.0 (4035a4fb49, 2020-05-01)"
   height="1862"
   width="8192"
   sodipodi:docname="twitch.svg"
   xml:space="preserve"
   viewBox="0 0 8192 1862"
   y="0px"
   x="0px"
   id="Layer_1"
   version="1.1"><metadata
   id="metadata260"><rdf:RDF><cc:Work
       rdf:about=""><dc:format>image/svg+xml</dc:format><dc:type
         rdf:resource="http://purl.org/dc/dcmitype/StillImage" /></cc:Work></rdf:RDF></metadata><defs
   id="defs258" /><sodipodi:namedview
   inkscape:current-layer="Layer_1"
   inkscape:window-maximized="1"
   inkscape:window-y="22"
   inkscape:window-x="1592"
   inkscape:cy="931"
   inkscape:cx="4096"
   inkscape:zoom="0.12805176"
   showgrid="false"
   id="namedview256"
   inkscape:window-height="1028"
   inkscape:window-width="1920"
   inkscape:pageshadow="2"
   inkscape:pageopacity="0"
   guidetolerance="10"
   gridtolerance="10"
   objecttolerance="10"
   borderopacity="1"
   bordercolor="#666666"
   pagecolor="#ffffff" />
<style
   id="style234"
   type="text/css">
	.st0{fill:#9146FF;}
</style>
<title
   id="title236">Asset 9</title>
<g
   transform="translate(0,-319)"
   id="g253">
	<g
   id="Layer_1-2">
		<polygon
   id="polygon238"
   points="0,319.1 0,1883 297.9,2180.9 1117,2181 1117,1585 596,1585 596,1436 1117,1436 1117,840 596,840 595.8,319.1 "
   class="st0" />
		<polygon
   id="polygon240"
   points="2606,1585 2606,840 2011,840 2011,1585 1862,1585 1862,840 1266,840 1266,1883 1563.9,2180.9 3351,2181 3351,840 2755,840 2755,1585 "
   class="st0" />
		<polygon
   id="polygon242"
   points="4096,2180.9 3500.2,2180.9 3500,840 4096,840 "
   class="st0" />
		<polygon
   id="polygon244"
   points="4096,692 3500,692 3500.2,319.1 4096,319.1 "
   class="st0" />
		<polygon
   id="polygon246"
   points="5511,1883 5808.9,2180.9 6703,2181 6703,1585 6107,1585 6107,1436 6703,1436 6703,840 5809,840 5511,1138.3 "
   class="st0" />
		<polygon
   id="polygon248"
   points="7448,319 6852,319 6852,2181 7447,2181 7447,1436 7596,1436 7596,2181 8192,2180.9 8192,1138.3 7894,840 7448,840 "
   class="st0" />
		<polygon
   id="polygon250"
   points="4245,319 4245,1883 4542.8,2180.9 5362,2180.9 5362,1585.1 4841,1585 4841,1436 5362,1436 5362,840 4841,840 4840.7,319.1 "
   class="st0" />
	</g>
</g>
</svg>
