<?xml version="1.0" encoding="utf-8"?>
<!-- Generator: Adobe Illustrator 23.1.1, SVG Export Plug-In . SVG Version: 6.00 Build 0)  -->
<svg version="1.1" id="Layer_1" xmlns="http://www.w3.org/2000/svg" xmlns:xlink="http://www.w3.org/1999/xlink" x="0px" y="0px"
	 viewBox="0 0 83.22 46.99" style="enable-background:new 0 0 83.22 46.99;" xml:space="preserve">
<style type="text/css">
	.st0{fill:#E09C26;}
	.st1{fill:#F3AE1E;}
	.st2{fill:#936527;}
	.st3{fill:#231F20;}
	.st4{fill:#5764AD;}
	.st5{fill:#B69369;}
</style>
<g>
	<g>
		<polygon class="st0" points="0,19.08 3.4,27.59 22.81,38.31 61.1,46.99 80.5,46.82 83.22,37.97 		"/>
		<polygon class="st1" points="0,19.08 6.2,26.88 17.02,31.16 36.42,38.99 61.78,42.56 83.22,37.97 57.69,30.82 25.87,22.31 		"/>
	</g>
	<polygon class="st2" points="32.28,29.84 33.31,19.79 33.31,15.88 24.87,13.37 21.8,5.28 19.94,3.39 20.28,2.17 21.14,1.69 
		21.89,1.93 22.41,2.7 22.56,2.01 23.2,2.01 23.24,3.11 23.54,4.99 26.3,10.54 33.33,11.84 36.89,11 36.01,10.29 35.94,5.58 37.4,2 
		38.5,1.52 37.33,0 38.79,0.48 40.47,0.16 39.3,1.52 40.61,1.76 41.86,3.59 42.59,7.73 42.66,10.37 41.64,11.08 43.83,12.04 
		45.44,14.83 44.12,17.38 44.7,29.1 49.44,32.36 47.59,34.5 36.02,34.47 	"/>
	<polygon class="st3" points="32.27,28.56 32.29,29.74 34.65,32.49 47.09,33.67 49.44,32.36 44.7,29.1 49.31,30.4 51.28,32.49 
		51.01,35.24 47.61,36.16 35.7,34.98 30.33,31.97 30.33,28.83 	"/>
	<polygon class="st2" points="45.44,14.83 47.54,20.89 51.89,24.4 53.29,25.1 51.89,27.07 45.85,23 44.12,17.38 	"/>
	<polygon class="st4" points="14.5,34.56 8.74,37.38 9.09,40.08 12.97,41.02 20.02,38.2 19.43,35.73 	"/>
	<polygon class="st4" points="53.39,26.68 56.32,23.39 62.43,22.69 63.96,24.57 62.67,27.15 55.27,28.33 	"/>
	<polygon class="st3" points="56.68,25.74 18.63,35.45 16.61,35.97 16.38,37.26 58.67,25.98 	"/>
	<polygon class="st2" points="53.29,25.1 55.03,26.69 55.13,27.8 53.47,28.45 52.31,28.4 52.01,27.64 52.41,26.94 51.89,27.07 	"/>
	<polygon class="st0" points="42.36,33.23 41.43,33.13 40.97,32.1 41.69,31.89 44.21,33.43 	"/>
	<polygon class="st5" points="38.86,4.17 38.03,4.85 37.55,7.57 39.2,7.03 41.04,7.52 40.99,5.72 39.73,3.93 	"/>
	<polygon class="st5" points="38.03,8.73 38.66,9.41 39.63,9.41 40.46,8.83 39.1,8.44 	"/>
</g>
</svg>
