<?xml version="1.0" encoding="utf-8"?>
<!-- Generator: Adobe Illustrator 23.1.1, SVG Export Plug-In . SVG Version: 6.00 Build 0)  -->
<svg version="1.1" id="Layer_1" xmlns="http://www.w3.org/2000/svg" xmlns:xlink="http://www.w3.org/1999/xlink" x="0px" y="0px"
	 viewBox="0 0 1789.54 206.35" style="enable-background:new 0 0 1789.54 206.35;" xml:space="preserve">
<style type="text/css">
	.st0{fill:#E96B49;}
	.st1{fill:#E2C8BA;}
	.st2{fill:#A04723;}
	.st3{fill:#F6AF1F;}
	.st4{fill:#33454E;}
	.st5{fill:#A87C62;}
	.st6{fill:#505E67;}
	.st7{fill:#3E8941;}
	.st8{fill:#377639;}
	.st9{fill:#1F381D;}
</style>
<g>
	<g>
		<polygon class="st0" points="1756.25,114.24 1784.65,157.65 1756.41,204.95 1525.95,205.36 1525.79,114.65 		"/>
		<polygon class="st1" points="1704.58,114.67 1732.97,159.45 1704.74,205.15 1679.62,205.2 1679.46,114.72 		"/>
		<polygon class="st2" points="1755.75,114.12 1789.54,158.26 1755.91,205.64 1727.37,205.69 1762.39,159.87 1727.2,114.17 		"/>
		<polygon class="st3" points="1679.39,114.26 1706.26,159.91 1679.55,205.03 1656.71,205.07 1656.55,114.3 		"/>
		<polygon class="st2" points="1655.49,114.43 1681.44,159.64 1655.65,205.96 1627.11,206.01 1641.67,160.06 1626.94,114.49 		"/>
		<polygon class="st1" points="1626.86,115.17 1655.26,159.95 1627.03,205.65 1601.91,205.7 1628.54,160.41 1601.75,115.21 		"/>
		<polygon class="st3" points="1601.71,114.46 1628.58,160.11 1601.87,205.23 1579.04,205.27 1578.87,114.5 		"/>
		<polygon class="st2" points="1580.36,114.12 1606.32,159.33 1580.52,205.65 1551.98,205.7 1579.11,159.89 1551.82,114.18 		"/>
		<polygon class="st1" points="1525.95,205.36 1550.52,164.36 1525.79,114.65 		"/>
	</g>
	<g>
		<polygon class="st0" points="1573.24,114.03 1601.64,157.44 1573.41,204.74 1342.95,205.16 1342.79,114.45 		"/>
		<polygon class="st1" points="1521.57,114.46 1549.97,159.25 1521.74,204.95 1496.62,204.99 1496.46,114.51 		"/>
		<polygon class="st2" points="1572.74,113.91 1606.54,158.05 1572.91,205.44 1544.36,205.49 1579.39,159.66 1544.2,113.97 		"/>
		<polygon class="st3" points="1496.38,114.05 1523.25,159.7 1496.55,204.82 1473.71,204.86 1473.55,114.09 		"/>
		<polygon class="st2" points="1472.48,114.23 1498.44,159.43 1472.65,205.75 1444.1,205.8 1458.67,159.85 1443.94,114.28 		"/>
		<polygon class="st1" points="1443.86,114.96 1472.25,159.74 1444.02,205.44 1418.9,205.49 1445.54,160.2 1418.74,115.01 		"/>
		<polygon class="st3" points="1418.7,114.26 1445.57,159.91 1418.87,205.02 1396.03,205.07 1395.87,114.3 		"/>
		<polygon class="st2" points="1397.36,113.92 1423.31,159.12 1397.52,205.44 1368.98,205.49 1396.1,159.68 1368.81,113.97 		"/>
		<polygon class="st1" points="1342.95,205.16 1367.52,164.15 1342.79,114.45 		"/>
	</g>
</g>
<g>
	<g>
		<polygon class="st0" points="209.63,113.42 181.22,156.83 209.46,204.13 439.92,204.55 440.08,113.83 		"/>
		<polygon class="st1" points="261.29,113.85 232.9,158.63 261.13,204.33 286.25,204.38 286.41,113.9 		"/>
		<polygon class="st2" points="210.12,113.3 176.33,157.44 209.96,204.82 238.5,204.88 203.48,159.05 238.67,113.35 		"/>
		<polygon class="st3" points="286.49,113.44 259.61,159.09 286.32,204.21 309.16,204.25 309.32,113.48 		"/>
		<polygon class="st2" points="310.38,113.62 284.43,158.82 310.22,205.14 338.76,205.19 324.2,159.24 338.93,113.67 		"/>
		<polygon class="st1" points="339.01,114.35 310.61,159.13 338.84,204.83 363.96,204.88 337.33,159.59 364.13,114.39 		"/>
		<polygon class="st3" points="364.16,113.64 337.29,159.29 364,204.41 386.84,204.45 387,113.69 		"/>
		<polygon class="st2" points="385.51,113.31 359.55,158.51 385.35,204.83 413.89,204.88 386.76,159.07 414.06,113.36 		"/>
		<polygon class="st1" points="439.92,204.55 415.35,163.54 440.08,113.83 		"/>
	</g>
	<g>
		<polygon class="st0" points="33.34,112.34 4.94,155.75 33.17,203.05 263.63,203.46 263.79,112.75 		"/>
		<polygon class="st1" points="85,112.77 56.61,157.55 84.84,203.25 109.96,203.3 110.12,112.82 		"/>
		<polygon class="st2" points="33.84,112.22 0.04,156.36 33.67,203.74 62.21,203.79 27.19,157.97 62.38,112.27 		"/>
		<polygon class="st3" points="110.2,112.36 83.33,158.01 110.03,203.13 132.87,203.17 133.03,112.4 		"/>
		<polygon class="st2" points="134.1,112.53 108.14,157.74 133.93,204.06 162.47,204.11 147.91,158.16 162.64,112.59 		"/>
		<polygon class="st1" points="162.72,113.27 134.33,158.05 162.56,203.75 187.67,203.8 161.04,158.51 187.84,113.31 		"/>
		<polygon class="st3" points="187.88,112.56 161.01,158.21 187.71,203.33 210.55,203.37 210.71,112.6 		"/>
		<polygon class="st2" points="209.22,112.22 183.27,157.43 209.06,203.75 237.6,203.8 210.47,157.99 237.77,112.28 		"/>
		<polygon class="st1" points="263.63,203.46 239.06,162.46 263.79,112.75 		"/>
	</g>
</g>
<g>
	<polygon class="st4" points="823.39,134.41 945.14,10.86 958.2,15.88 974.27,1.82 1025.5,52.04 1037.55,47.02 1140.01,158.51 	"/>
	<polygon class="st4" points="626.69,135.29 748.23,39.87 762.3,42.88 803.48,6.72 820.55,24.8 830.6,18.78 892.88,104.16 
		934.06,170.45 675.91,184.51 	"/>
	<polygon class="st5" points="1038.52,47.91 1035.55,56.7 1036.9,72.24 1040.33,94.04 1059.28,82.78 1069.51,81.45 	"/>
	<polygon class="st5" points="975.24,2.7 970.03,20.9 981.51,60.76 975.43,69.54 990.97,114.79 1045,95.21 1026.47,52.93 	"/>
	<polygon class="st5" points="947.05,11.74 970.96,20.9 977.21,45.63 967.62,61.6 982.22,108.14 969.45,118.63 941.55,130.99 
		933.24,97.76 943.63,80.45 938.09,60.37 941.55,40.29 950.55,34.75 	"/>
	<polygon class="st5" points="830.6,18.78 824.3,30.59 825.68,49.98 820.55,24.8 803.48,6.72 796.6,28.52 795.91,49.29 
		795.22,70.06 787.6,83.91 774.44,63.14 762.3,42.88 748.23,39.87 774.44,94.99 791.75,142.76 793.83,160.76 831.91,179.46 
		877.61,82.52 	"/>
	<polygon class="st6" points="941.55,40.29 900.67,77.92 938.09,60.37 	"/>
	<polygon class="st6" points="933.24,97.76 870,154.61 939.26,123.93 	"/>
	<polygon class="st6" points="803.48,6.72 775.5,31.42 796.6,28.52 	"/>
	<polygon class="st7" points="440.04,114.63 475.9,76.69 513.46,63.81 542.85,62.42 611.75,74.95 689.41,106.26 778.36,153.87 
		893.6,206.48 373.12,205.05 	"/>
	<polygon class="st8" points="751.11,206.8 942.78,122.87 1059.28,82.78 1164.5,69 1254.7,71.5 1297.09,88.37 1342.79,116.26 
		1410.2,207.43 	"/>
	<polygon class="st6" points="741.06,63.12 730.76,78.58 703.98,85.79 	"/>
	<polygon class="st9" points="1028.79,156.41 1028.49,144.62 1031.16,149.23 1030.27,136.86 1032.04,133.98 1032.93,138.87 
		1034.12,144.05 1034.41,135.71 1037.38,139.16 1039.45,144.05 1038.86,127.94 1042.12,131.11 1043.01,135.42 1044.19,119.31 
		1048.04,124.49 1048.04,131.39 1047.16,106.09 1052.19,106.37 1052.19,110.4 1054.56,117.59 1055.16,109.82 1059.01,109.82 
		1060.49,118.16 1062.27,110.4 1064.34,114.71 1067.3,123.92 1066.71,94.01 1069.97,93.72 1072.04,96.88 1074.41,86.53 
		1078.86,88.25 1079.16,97.17 1082.12,105.51 1082.12,111.26 1085.08,97.75 1088.64,98.61 1089.23,103.21 1090.12,87.68 
		1091.3,84.23 1094.27,89.12 1094.27,94.01 1095.45,77.04 1099.01,72.44 1101.38,75.02 1101.38,81.93 1102.56,88.25 1107.6,80.49 
		1106.41,64.67 1107.3,58.63 1109.97,61.51 1109.97,64.1 1111.45,72.72 1113.53,63.23 1115.6,60.36 1116.78,65.53 1116.78,72.44 
		1120.34,63.52 1126.56,62.08 1126.86,65.82 1128.34,69.85 1130.12,63.23 1134.56,65.53 1136.04,71.86 1138.12,63.23 1140.49,64.67 
		1142.86,71 1144.64,75.6 1129.82,83.65 1116.19,90.27 1104.04,101.2 1087.75,116.73 1063.45,136.28 1036.79,158.72 1026.42,167.34 
			"/>
	<polygon class="st9" points="653.93,146.07 654.22,134.28 651.56,138.88 652.44,126.51 650.67,123.63 649.78,128.52 648.59,133.7 
		648.3,125.36 645.33,128.81 643.26,133.7 643.85,117.59 640.59,120.76 639.7,125.07 638.52,108.97 634.67,114.14 634.67,121.05 
		635.56,95.74 630.52,96.02 630.52,100.05 628.15,107.24 627.56,99.48 623.7,99.48 622.22,107.82 620.44,100.05 618.37,104.37 
		615.41,113.57 616,83.66 612.74,83.37 610.67,86.53 608.3,76.18 603.85,77.91 603.56,86.82 600.59,95.16 600.59,100.91 
		597.63,87.4 594.07,88.26 593.48,92.86 592.59,77.33 591.41,73.88 588.45,78.77 588.45,83.66 587.26,66.69 583.7,62.09 
		581.33,64.68 581.33,71.58 580.15,77.91 575.11,70.14 576.3,54.32 575.41,48.28 572.74,51.16 572.74,53.75 571.26,62.38 
		569.19,52.89 567.11,50.01 565.93,55.19 565.93,62.09 562.37,53.17 556.15,51.73 555.85,55.47 554.37,59.5 552.59,52.89 
		548.15,55.19 546.67,61.51 544.59,52.89 542.22,54.32 539.85,60.65 538.07,65.25 552.89,73.3 566.52,79.92 578.67,90.85 
		594.96,106.38 619.26,125.93 645.93,148.37 656.3,157 	"/>
	<polygon class="st9" points="678.55,206.41 680.39,190.35 681.29,182.48 687.44,172.22 687.44,187.27 688.12,196.84 691.98,188.35 
		694.3,179.86 696.87,183.2 696.87,189.64 701.5,178.06 704.59,179.34 704.59,186.03 704.33,199.93 707.42,188.61 711.28,186.81 
		711.28,191.69 711.54,196.58 715.66,173.43 718.74,168.54 721.83,170.85 721.83,177.54 722.09,181.92 725.69,174.71 729.55,175.23 
		729.55,178.57 730.07,188.61 734.18,176.77 735.21,183.2 735.73,192.21 738.56,185.26 739.84,189.38 740.36,195.55 743.96,182.69 
		747.05,178.57 748.85,180.12 748.85,183.46 750.39,190.92 750.91,199.67 756.05,191.44 757.34,195.81 757.34,199.41 758.37,172.91 
		764.8,164.68 766.6,168.79 767.12,177.03 767.12,188.09 767.12,194.27 770.98,181.4 774.07,177.03 777.93,177.54 778.44,182.69 
		778.44,187.32 778.7,194.52 778.7,199.93 784.36,179.86 788.22,169.57 793.11,166.74 794.65,170.59 794.65,175.74 795.68,184.49 
		795.68,192.98 796.45,201.73 800.31,191.18 803.91,178.57 807.52,176.51 808.03,180.12 812.15,165.96 813.18,169.82 813.95,176.77 
		813.95,185 819.1,167.51 822.18,168.79 822.96,175.48 822.96,179.09 822.96,183.46 822.96,190.15 826.56,175.48 828.1,180.89 
		829.39,188.35 829.39,195.3 834.12,185.81 837.17,173.02 839.6,176.37 841.12,193.73 846,161.76 850.26,161.76 850.87,201.34 
		852.39,181.85 856.96,181.85 857.57,201.95 859.09,184.59 860.92,201.04 866.09,164.19 871.27,160.54 874.92,200.12 877.36,187.03 
		883.45,186.42 883.45,200.73 888.63,168.46 894.72,162.67 898.06,168.76 898.06,176.37 901.41,154.75 906.29,152.93 906.29,168.15 
		909.03,189.16 912.99,173.33 918.77,173.33 919.68,190.38 919.68,201.65 919.68,208.17 	"/>
	<polygon class="st9" points="911.62,205.8 913.38,189.41 914.24,181.38 920.39,170.89 920.47,186.23 921.21,195.98 925.06,187.31 
		927.34,178.64 929.95,182.03 929.99,188.59 934.59,176.76 937.71,178.06 937.75,184.88 937.57,199.04 940.62,187.48 944.5,185.63 
		944.52,190.61 944.81,195.59 948.83,171.96 951.91,166.96 955.04,169.3 955.08,176.12 955.36,180.58 958.95,173.22 962.84,173.72 
		962.86,177.13 963.44,187.36 967.52,175.27 968.59,181.82 969.16,191 971.97,183.9 973.29,188.09 973.85,194.38 977.41,181.25 
		980.49,177.03 982.32,178.6 982.34,182.01 983.93,189.6 984.5,198.52 989.64,190.1 990.96,194.55 990.98,198.22 991.87,171.2 
		998.31,162.77 1000.15,166.96 1000.71,175.35 1000.77,186.63 1000.81,192.92 1004.63,179.79 1007.71,175.31 1011.61,175.81 
		1012.15,181.06 1012.18,185.78 1012.48,193.12 1012.51,198.63 1018.1,178.14 1021.93,167.62 1026.84,164.71 1028.42,168.64 
		1028.45,173.88 1029.54,182.8 1029.59,191.45 1030.41,200.36 1034.24,189.59 1037.8,176.72 1041.42,174.6 1041.96,178.27 
		1046.03,163.82 1047.09,167.75 1047.91,174.83 1047.95,183.22 1053.04,165.35 1056.16,166.65 1056.97,173.46 1056.99,177.14 
		1057.02,181.6 1057.06,188.41 1060.6,173.44 1062.19,178.94 1063.53,186.54 1063.57,193.62 1068.29,183.93 1071.28,170.88 
		1073.76,174.28 1075.39,191.96 1080.12,159.34 1084.41,159.32 1085.25,199.67 1086.68,179.79 1091.28,179.77 1092,200.25 
		1093.44,182.55 1095.38,199.3 1100.38,161.71 1105.58,157.96 1109.49,198.29 1111.87,184.93 1118,184.28 1118.08,198.86 
		1123.12,165.93 1129.22,160 1132.63,166.19 1132.67,173.95 1135.93,151.9 1140.83,150.01 1140.91,165.53 1143.79,186.93 
		1147.69,170.77 1153.52,170.73 1154.54,188.11 1154.6,199.59 1154.64,206.24 	"/>
	<polygon class="st9" points="417.43,205.8 446.1,190.44 446.95,182.56 453.05,172.27 453.13,187.32 453.87,196.89 457.68,188.38 
		459.95,179.87 462.54,183.2 462.58,189.63 467.15,178.03 470.24,179.3 470.28,185.99 470.1,199.89 473.12,188.55 476.97,186.72 
		477,191.61 477.28,196.5 481.27,173.32 484.33,168.41 487.43,170.71 487.47,177.4 487.75,181.78 491.31,174.55 495.18,175.05 
		495.19,178.39 495.76,188.42 499.82,176.56 500.88,182.99 501.45,191.99 504.24,185.03 505.55,189.14 506.1,195.31 509.63,182.43 
		512.69,178.29 514.5,179.83 514.52,183.17 516.1,190.63 516.67,199.37 521.77,191.11 523.08,195.48 523.1,199.08 523.98,172.57 
		530.37,164.3 532.19,168.41 532.75,176.64 532.81,187.7 532.85,193.88 536.64,180.99 539.7,176.6 543.56,177.09 544.11,182.24 
		544.13,186.87 544.43,194.07 544.46,199.48 550.01,179.37 553.81,169.06 558.68,166.2 560.25,170.05 560.28,175.2 561.36,183.94 
		561.4,192.44 562.22,201.18 566.02,190.61 569.56,177.98 573.15,175.9 573.68,179.5 577.72,165.33 578.77,169.18 579.58,176.12 
		579.63,184.36 584.68,166.83 587.77,168.1 588.58,174.79 588.6,178.39 588.62,182.76 588.66,189.45 592.18,174.77 593.76,180.16 
		595.08,187.62 595.12,194.57 599.8,185.05 602.78,172.25 605.23,175.58 606.85,192.93 611.55,160.93 615.81,160.91 616.64,200.49 
		618.05,180.99 622.62,180.97 623.34,201.06 624.76,183.7 626.68,200.13 631.66,163.26 636.81,159.58 640.68,199.14 643.05,186.03 
		649.13,185.39 649.21,199.7 654.21,167.4 660.27,161.58 663.65,167.65 663.69,175.26 666.92,153.62 671.79,151.77 671.87,167 
		674.73,187.99 678.6,172.13 684.38,172.1 685.39,189.15 685.45,200.42 685.49,206.94 	"/>
	<polygon class="st9" points="1102.05,206.94 1103.8,190.87 1104.66,182.99 1110.75,172.7 1110.84,187.74 1111.57,197.31 
		1115.39,188.8 1117.65,180.3 1120.25,183.63 1120.28,190.06 1124.85,178.46 1127.94,179.73 1127.98,186.42 1127.8,200.31 
		1130.83,188.97 1134.68,187.15 1134.7,192.04 1134.99,196.93 1138.98,173.75 1142.04,168.84 1145.14,171.14 1145.17,177.83 
		1145.46,182.2 1149.02,174.98 1152.88,175.47 1152.9,178.82 1153.47,188.85 1157.52,176.99 1158.59,183.42 1159.15,192.42 
		1161.94,185.46 1163.25,189.57 1163.8,195.74 1167.33,182.85 1170.4,178.72 1172.21,180.25 1172.22,183.6 1173.81,191.05 
		1174.37,199.8 1179.47,191.54 1180.78,195.9 1180.8,199.51 1181.69,173 1188.07,164.73 1189.9,168.84 1190.46,177.07 
		1190.52,188.13 1190.55,194.31 1194.34,181.42 1197.4,177.03 1201.27,177.52 1201.81,182.66 1201.84,187.3 1202.13,194.5 
		1202.16,199.9 1207.71,179.8 1211.52,169.49 1216.39,166.63 1217.95,170.48 1217.98,175.63 1219.06,184.37 1219.11,192.86 
		1219.93,201.61 1223.73,191.04 1227.26,178.41 1230.85,176.33 1231.39,179.93 1235.43,165.75 1236.48,169.61 1237.29,176.55 
		1237.33,184.78 1242.38,167.26 1245.48,168.53 1246.28,175.21 1246.3,178.82 1246.33,183.19 1246.37,189.88 1249.89,175.19 
		1251.46,180.59 1252.79,188.04 1252.83,194.99 1257.51,185.48 1260.48,172.68 1262.94,176.01 1264.55,193.36 1269.25,161.36 
		1273.51,161.34 1274.34,200.92 1275.76,181.42 1280.32,181.4 1281.04,201.49 1282.47,184.13 1284.39,200.56 1289.36,163.69 
		1294.52,160 1298.39,199.57 1300.75,186.46 1306.84,185.82 1306.92,200.13 1311.92,167.82 1317.97,162.01 1321.36,168.08 
		1321.4,175.69 1324.63,154.05 1329.49,152.2 1329.57,167.42 1332.43,188.42 1336.3,172.56 1342.09,172.53 1343.09,189.58 
		1343.16,200.84 1343.19,207.37 	"/>
</g>
</svg>
