<?xml version="1.0" encoding="utf-8"?>
<!-- Generator: Adobe Illustrator 23.1.1, SVG Export Plug-In . SVG Version: 6.00 Build 0)  -->
<svg version="1.1" id="Layer_1" xmlns="http://www.w3.org/2000/svg" xmlns:xlink="http://www.w3.org/1999/xlink" x="0px" y="0px"
	 viewBox="0 0 126.61 106.53" style="enable-background:new 0 0 126.61 106.53;" xml:space="preserve">
<style type="text/css">
	.st0{fill:#74989A;}
	.st1{fill:#E96B49;}
	.st2{fill:#9F4924;}
	.st3{fill:#9F4924;stroke:#9F4924;stroke-width:0.2693;stroke-miterlimit:10;}
	.st4{fill:#7B824A;}
	.st5{fill:#231F20;}
	.st6{fill:#9F4924;stroke:#9F4924;stroke-width:0.317;stroke-miterlimit:10;}
</style>
<path class="st0" d="M97.41,18.26c-13.19-2.59-13.92-6.19-23.92-7.13c-8.59-0.81-10,1.67-26.14,4.75
	c-23.64,4.52-29.96,0.99-36.77,7.13c-5.52,4.98-8.5,13.73-5.76,20.2c3.01,7.09,11.62,8.47,11.08,12.68
	c-0.59,4.59-10.97,3.96-14.62,9.9c-4.53,7.39,3.67,21.15,14.18,28.92c7.81,5.78,19.93,7.23,43.86,9.9
	c33.62,3.75,41.09,1.45,46.52-1.98c0.65-0.41,12.65-8.2,11.08-16.24c-1.86-9.49-21.22-12.17-20.38-17.43
	c0.48-3,6.84-2.41,15.06-7.92c2.33-1.56,9.54-6.78,12.85-15.45c2.31-6.06,4.33-18.06-2.66-23.77
	C116.72,17.7,112.22,21.17,97.41,18.26z"/>
<g>
	<path class="st1" d="M81.91,14.13c-1.63,1.22-1.69,2.77-3.19,3.49c-0.72,0.35-1.91,0.56-3.85-0.23c0.13,1.06-0.18,1.72-0.37,2.03
		c-1.18,1.94-4.42,1.43-4.67,1.39c-1.22-0.21-2.11-0.76-2.62-1.15c0.06,0.46,0.13,1.6-0.55,2.68c-0.91,1.43-2.78,2.14-4.73,1.78
		c0.07,0.4,0.27,1.9-0.64,3.36c-1.28,2.06-3.66,2.23-3.9,2.25c0.68,1.09,0.59,2.44-0.18,3.25c-0.78,0.84-1.94,0.76-2.1,0.75
		c23.24,11.81,31.04,15.28,31.33,14.75c0.14-0.26-1.53-1.36-1.34-2.88c0.11-0.93,0.88-1.66,1.81-2.23c-0.08-0.09-1.2-1.33-0.79-2.95
		c0.31-1.23,1.38-2.17,2.7-2.36c-0.09-0.09-1.25-1.28-0.92-2.9c0.26-1.26,1.31-2.25,2.65-2.48c-1.52-0.21-2.62-1.46-2.62-2.81
		c0-1.07,0.69-2.09,1.75-2.57c-1.15-0.29-2.01-1.24-2.17-2.41c-0.15-1.12,0.38-2.24,1.35-2.84c-1.2,0.29-2.39-0.42-2.68-1.49
		c-0.25-0.91,0.18-1.93,1.07-2.45c-0.1-0.01-1.68-0.15-2.38-1.46c-0.62-1.16-0.28-2.72,0.88-3.67C84.67,13,83.19,13.18,81.91,14.13z
		"/>
	<path class="st2" d="M48.75,40.77c1.75-2.71,3.56-5.52,4.57-8.7c0.88-2.79,1.93-6.13,0.29-8.7c-1.19-1.86-3.27-2.54-5.57-3.28
		c-4.58-1.48-6.35-0.17-8.28-1.86c-1.89-1.65-2.65-5.06-1.43-6.85c1.3-1.9,3.99-0.78,7.56-2.71c3.7-2,4.41-3.83,4.57-4.42
		c0.1-0.39,0.32-1.3-0.11-2.18c-0.54-1.11-1.78-1.47-2.6-1.72c-1.85-0.54-4.9-0.64-6.27,1.12c-0.13,0.17-0.88,1.13-0.53,1.95
		c0.24,0.56,0.92,0.91,1.48,0.95c0.52,0.04,0.7-0.2,2.01-0.47c0.71-0.15,0.8-0.11,0.83-0.06c0.13,0.22-0.63,1.08-1.48,1.54
		c-1.32,0.72-2.3,0.16-4.2,0.18c-0.68,0.01-2.94,0.03-4.79,1.3c-2.24,1.54-2.79,4.14-2.9,4.67c-0.57,2.74,0.48,4.94,1.18,6.39
		c0.61,1.27,2.27,4.19,5.8,6.03c0.96,0.5,3.67,1.14,6.8,1.48c0.99,0.11,1.93,0.16,2.25,0.77c0.44,0.84-0.57,2.18-1.95,3.85
		c-4.86,5.86-7.57,7.67-7.39,10.41c0.03,0.42,0.13,1.08,0.59,1.89c2.84,0,5.68,0,8.52,0C47.94,41.98,48.31,41.43,48.75,40.77z"/>
	<path class="st3" d="M58.01,37.66c2.79-7.23,7.19-11.95,9.8-12.96c1.63-0.63,4.19-1.1,9.29-2.96c1.49-0.54,2.7-1.03,3.49-1.35
		c0.12,0.72,0.34,1.83,0.68,3.18c1.44,5.68,3.31,8.05,3.99,10.58c0.68,2.56,0.49,6.58-3.95,12.69c-3.92,0.68-8.06,0.52-10.32-0.35
		c-2.75-1.05-5.66-2.2-8.8-4.69c-1.05-0.83-1.93-1.67-2.67-2.43C58.91,38.74,58.41,38.16,58.01,37.66z"/>
	<path class="st4" d="M60.82,37.16c-0.48-1.76,1.83-3.3,3.11-3.74c0.57-0.19,0.9-0.15,1.13-0.05c0.86,0.38,0.93,1.81,0.95,2.08
		c0.1,1.93-1.46,3.37-1.88,3.73C62.49,39.17,61.12,38.29,60.82,37.16z"/>
	<path class="st4" d="M79.78,46.18c1.66-0.75,1.38-3.52,0.91-4.77c-0.21-0.57-0.46-0.79-0.68-0.91c-0.84-0.42-1.99,0.43-2.21,0.59
		c-1.55,1.16-1.67,3.27-1.69,3.82C77.17,46.17,78.71,46.66,79.78,46.18z"/>
	
		<ellipse transform="matrix(0.4265 -0.9045 0.9045 0.4265 3.5545 78.7422)" class="st5" cx="63.87" cy="36.57" rx="1.51" ry="1.15"/>
	
		<ellipse transform="matrix(0.4265 -0.9045 0.9045 0.4265 5.4942 95.6543)" class="st5" cx="78.18" cy="43.49" rx="1.51" ry="1.15"/>
	<g>
		<g>
			<path class="st5" d="M67.44,39.58c-0.41,1.22,0.64,2.37,1.55,3.02c0.28,0.2,0.62,0.34,0.97,0.32c0.34-0.02,0.67-0.17,0.89-0.43
				c0.15-0.18,0.26-0.37,0.38-0.57c0.02-0.04,0.05-0.08,0.07-0.11c0.1-0.15-0.1,0.1-0.01,0.02c0.01-0.02,0.03-0.03,0.04-0.04
				c0.05-0.05,0.03-0.03-0.07,0.06c0.16-0.06-0.15,0.05-0.03,0.01c0.36-0.12,0.63-0.5,0.5-0.89c-0.12-0.36-0.5-0.63-0.89-0.5
				c-0.47,0.15-0.72,0.51-0.96,0.91c-0.04,0.07-0.08,0.13-0.13,0.2c0.11-0.19,0.06-0.08,0.01-0.03c-0.08,0.08,0.15-0.09,0.05-0.04
				c-0.15,0.07,0.1-0.04,0.02-0.01c-0.06,0.01-0.03,0.01,0.08-0.01c-0.08,0-0.06,0,0.06,0.01c-0.03-0.01-0.06-0.01-0.09-0.02
				c0.09,0.04,0.11,0.05,0.06,0.03c-0.05-0.03-0.1-0.05-0.15-0.08c-0.03-0.02-0.06-0.04-0.08-0.06c0.02,0.02,0.04,0.03,0.07,0.05
				c-0.05-0.03-0.1-0.08-0.15-0.12c-0.08-0.07-0.16-0.15-0.24-0.22c-0.08-0.08-0.16-0.16-0.23-0.24c-0.03-0.04-0.06-0.07-0.09-0.11
				c-0.02-0.02-0.04-0.05-0.06-0.07c0.06,0.08,0.07,0.09,0.03,0.03c-0.06-0.09-0.12-0.18-0.17-0.27c-0.01-0.01-0.01-0.03-0.02-0.04
				c-0.03-0.07-0.03-0.05,0.02,0.05c0-0.05-0.04-0.11-0.06-0.16c-0.01-0.04-0.01-0.09-0.03-0.12c0.01,0.12,0.02,0.14,0.01,0.07
				c0-0.02,0-0.04,0-0.06s0-0.04,0-0.06c0.01-0.08,0-0.06-0.01,0.06c0.02-0.03,0.03-0.13,0.05-0.17c0.12-0.36-0.14-0.8-0.5-0.89
				C67.92,38.99,67.56,39.2,67.44,39.58L67.44,39.58z"/>
		</g>
	</g>
	<path class="st2" d="M89.59,67c-0.28-0.6-3.68-8.09,0.23-14.15c0.59-0.92,2.04-3.13,4.72-4.29c2.93-1.27,4.31,0.01,8.02-1.29
		c1.45-0.51,3.55-1.24,5.01-3.29c2.17-3.04,1.28-6.65,1.15-7.16c-0.19-0.7-0.94-3.58-3.44-5.01c-1.19-0.68-1.83-0.49-8.87-1.29
		c-1.41-0.16-2.69-0.32-3.29-1.29c-0.55-0.87-0.44-2.23,0.14-2.58c0.63-0.37,1.37,0.71,3.29,0.86c0.64,0.05,1.55,0.12,2-0.43
		c0.5-0.61,0.24-1.75-0.29-2.43c-0.19-0.25-0.68-0.78-3.15-1.15c-2.26-0.34-3.4-0.51-4.44,0c-1.75,0.86-2.33,2.68-2.43,3.01
		c-0.47,1.54-0.18,3.31,0.72,4.58c1.22,1.73,2.86,1.54,8.02,3.44c4.54,1.67,4.91,2.42,5.01,2.86c0.39,1.68-1.84,3.97-4.15,4.87
		c-2.21,0.86-3.04-0.12-6.01,0.29c-4.04,0.55-6.75,2.94-7.3,3.44c-3.01,2.74-3.86,6.08-4.15,7.3c-0.99,4.13,0.06,7.52,0.57,8.87
		c0.8,2.13,1.93,3.66,2.72,4.58c0.6,0.26,1.49,0.56,2.6,0.66C87.72,67.51,88.9,67.23,89.59,67z"/>
	<path class="st6" d="M50.79,59.65c0.81-4.29,4.67-7.09,8.46-6.54c3.23,0.47,5.9,3.31,6.35,6.93c0.84,0.27,4,1.21,5.77-0.4
		c2.43-2.2,1.06-8.07-1.92-11.09c-2.66-2.7-6.22-2.73-11.54-2.77c-5.18-0.05-8.19-0.07-10.58,2.18c-2.67,2.52-3.56,6.94-4.04,9.31
		c-0.22,1.07-0.33,1.97-0.38,2.57C45.53,59.78,48.16,59.71,50.79,59.65z"/>
</g>
</svg>
