<?xml version="1.0" encoding="utf-8"?>
<!-- Generator: Adobe Illustrator 23.1.1, SVG Export Plug-In . SVG Version: 6.00 Build 0)  -->
<svg version="1.1" id="Layer_1" xmlns="http://www.w3.org/2000/svg" xmlns:xlink="http://www.w3.org/1999/xlink" x="0px" y="0px"
	 viewBox="0 0 160.96 296.59" style="enable-background:new 0 0 160.96 296.59;" xml:space="preserve">
<style type="text/css">
	.st0{fill:#A04723;}
	.st1{fill:#E96B49;}
	.st2{fill:#A04723;stroke:#A04723;stroke-width:1.0282;stroke-miterlimit:10;}
	.st3{fill:#7A824A;}
</style>
<path class="st0" d="M152.11,67.79c-2.07,0.97-28.13,12.69-49.14-0.99c-3.17-2.07-10.84-7.12-14.85-16.46
	c-4.37-10.18,0.08-14.98-4.37-27.85c-1.74-5.04-4.26-12.33-11.37-17.44C61.86-2.51,49.32,0.53,47.55,0.99
	C45.1,1.62,35.1,4.21,30.11,12.85c-2.38,4.12-1.72,6.34-4.59,30.8c-0.57,4.9-1.16,9.32-4.52,11.41c-3.04,1.89-7.76,1.51-8.94-0.53
	c-1.27-2.2,2.47-4.73,3.02-11.42c0.19-2.23,0.45-5.39-1.46-6.96c-2.12-1.74-6.07-0.87-8.45,0.96c-0.86,0.66-2.7,2.35-4.02,10.92
	c-1.21,7.86-1.81,11.79-0.06,15.41c2.95,6.08,9.26,8.14,10.4,8.49c5.36,1.64,11.49,0.67,15.91-2.43c6.01-4.21,5.39-9.92,12.03-27.79
	c5.85-15.73,8.45-17,10.01-17.36c5.85-1.34,13.76,6.44,16.84,14.48c2.94,7.68-0.46,10.55,0.92,20.88
	c1.87,14.03,10.11,23.48,11.83,25.39c9.48,10.5,21.07,13.48,25.29,14.51c14.34,3.48,26.1-0.11,30.82-1.87
	c7.42-2.76,12.74-6.65,15.94-9.38c0.91-2.07,1.97-5.16,2.32-9.02C153.86,74.29,152.89,70.21,152.11,67.79z"/>
<path class="st1" d="M32.95,166.36c7.11,3.32,12.82,1.2,17.94,4.86c2.45,1.76,5.21,5.16,5.61,12.45c3.62-1.98,6.51-1.98,7.92-1.85
	c8.96,0.83,12.56,11.78,12.82,12.6c1.29,4.14,0.77,7.77,0.24,9.93c1.56-0.86,5.56-2.79,10.56-2.24c6.67,0.73,12.38,5.58,14.33,12.24
	c1.35-0.82,6.41-3.67,13.2-2.97c9.56,0.99,14.17,8.18,14.62,8.92c2.8-3.76,7.81-5.45,12.03-4.27c4.35,1.22,5.98,4.96,6.2,5.48
	c3.79-90.48,3.25-120.11,0.87-120.24c-1.16-0.06-2.37,6.82-8.13,8.48c-3.53,1.01-7.45-0.31-11.05-2.38
	c-0.18,0.38-2.79,5.74-9.31,6.85c-4.97,0.85-10.14-1.12-13.01-4.98c-0.17,0.4-2.51,5.82-8.92,7.17c-4.98,1.05-10.33-0.79-13.38-4.64
	c1.8,5.08-0.87,10.39-5.76,12.39c-3.87,1.59-8.67,0.92-12.17-1.69c0.89,4.04-1.12,8.17-5.06,10.39c-3.8,2.15-8.72,2.14-12.51-0.03
	c3.06,3.35,2.48,8.11-0.88,10.62c-2.85,2.12-7.26,2.29-10.61,0.26c0.15,0.34,2.28,5.5-1.28,9.64c-3.14,3.64-9.33,4.91-14.72,2.68
	C24.24,159.35,27.37,163.76,32.95,166.36z"/>
<path class="st0" d="M142.98,237.87c-9.38-6.11-19.11-12.45-30.17-15.97c-9.67-3.08-21.25-6.77-30.22-1.1
	c-6.49,4.09-8.86,11.34-11.47,19.28c-5.21,15.88-0.68,22.04-6.55,28.71c-5.76,6.54-17.59,9.14-23.8,4.87
	c-6.57-4.52-2.65-13.86-9.32-26.3c-6.91-12.89-13.24-15.37-15.3-15.91c-1.34-0.35-4.5-1.14-7.57,0.34
	c-3.87,1.86-5.14,6.15-5.99,9.02c-1.91,6.43-2.3,17,3.82,21.79c0.58,0.46,3.91,3.06,6.77,1.87c1.96-0.81,3.16-3.17,3.31-5.12
	c0.13-1.79-0.69-2.44-1.62-6.99c-0.5-2.47-0.36-2.77-0.19-2.88c0.76-0.45,3.73,2.2,5.32,5.16c2.47,4.6,0.52,7.97,0.56,14.59
	c0.01,2.37,0.06,10.2,4.46,16.66c5.31,7.81,14.35,9.74,16.19,10.13c9.51,2.02,17.15-1.62,22.2-4.02c4.4-2.1,14.58-7.81,21.03-20.05
	c1.76-3.34,4.01-12.74,5.22-23.6c0.39-3.45,0.58-6.69,2.7-7.8c2.91-1.52,7.56,2.02,13.33,6.83c20.3,16.94,26.55,26.39,36.06,25.81
	c1.44-0.09,3.76-0.45,6.58-2.03c0.04-9.86,0.07-19.72,0.11-29.58C147.18,240.67,145.3,239.38,142.98,237.87z"/>
<path class="st2" d="M149.18,207.01c-32.47,1.82-48.31-4.99-56.77-11.75c-5.28-4.21-11.64-11.56-27.8-24.88
	c-4.72-3.9-8.71-7-11.33-9.01c2.52-1.45,6.38-3.75,10.87-6.79c19.04-12.88,24.73-22.23,33.16-28.06c8.53-5.91,24.15-11.19,55.29-6.2
	c4.58,13.14,6.38,24.5,7.11,32.91c0.88,10.2,1.71,21.03-2.2,34.59c-1.3,4.52-2.9,8.53-4.51,11.97
	C151.69,202.58,150.37,205,149.18,207.01z"/>
<path class="st3" d="M135.1,198.91c-4.84,4.09-13.09-0.92-16.32-4.28c-1.46-1.52-1.8-2.61-1.82-3.49c-0.07-3.27,4.31-5.59,5.16-6.04
	c5.94-3.14,12.75-0.35,14.5,0.42C138.95,190.71,138.21,196.28,135.1,198.91z"/>
<path class="st3" d="M135.62,126.02c-4.81-4.13-13.1,0.82-16.35,4.16c-1.47,1.51-1.82,2.6-1.85,3.48c-0.1,3.27,4.27,5.62,5.12,6.08
	c5.91,3.18,12.75,0.45,14.5-0.31C139.41,134.25,138.7,128.67,135.62,126.02z"/>
<ellipse transform="matrix(3.760045e-03 -1 1 3.760045e-03 -61.8386 318.1732)" cx="128.77" cy="190.12" rx="4.01" ry="5.23"/>
<ellipse transform="matrix(3.760045e-03 -1 1 3.760045e-03 -5.8626 263.9784)" cx="129.56" cy="134.93" rx="4.01" ry="5.23"/>
<g>
	<g>
		<path d="M132.57,174.56c1.62-0.18,3.03-0.76,4.2-1.92c0.9-0.89,1.58-2,2.08-3.14c1.19-2.72,2.54-6.46,0.16-8.92
			c-0.91-0.94-2.63-0.98-3.54,0c-0.93,1.01-0.97,2.53,0,3.54c0.35,0.36-0.34-0.49-0.07-0.09c0.23,0.34-0.17-0.46-0.08-0.19
			c0.16,0.48-0.07-0.19,0-0.22c0,0,0.02,0.39,0.02,0.4c0,0.12-0.02,0.23-0.02,0.34c-0.01,0.29,0.13-0.66,0.02-0.18
			c-0.05,0.23-0.09,0.46-0.15,0.69c-0.12,0.47-0.26,0.93-0.41,1.39c-0.07,0.21-0.14,0.42-0.22,0.63c-0.05,0.13-0.1,0.25-0.15,0.37
			c-0.16,0.4,0.2-0.44,0.07-0.17c-0.2,0.42-0.4,0.83-0.64,1.23c-0.11,0.18-0.23,0.36-0.35,0.53c-0.27,0.39,0.4-0.45,0.08-0.11
			c-0.07,0.07-0.13,0.15-0.21,0.23c-0.11,0.12-0.33,0.41-0.49,0.45c0.02-0.01,0.51-0.35,0.22-0.18c-0.1,0.06-0.2,0.13-0.3,0.19
			c-0.09,0.05-0.18,0.09-0.26,0.13c-0.25,0.14,0.6-0.2,0.21-0.1c-0.24,0.07-1.05,0.19-0.18,0.09c-0.68,0.08-1.26,0.23-1.77,0.73
			c-0.43,0.43-0.76,1.15-0.73,1.77C130.13,173.29,131.18,174.72,132.57,174.56L132.57,174.56z"/>
	</g>
</g>
</svg>
