<?xml version="1.0" encoding="UTF-8" standalone="no"?>
<svg
   xmlns:dc="http://purl.org/dc/elements/1.1/"
   xmlns:cc="http://creativecommons.org/ns#"
   xmlns:rdf="http://www.w3.org/1999/02/22-rdf-syntax-ns#"
   xmlns:svg="http://www.w3.org/2000/svg"
   xmlns="http://www.w3.org/2000/svg"
   xmlns:sodipodi="http://sodipodi.sourceforge.net/DTD/sodipodi-0.dtd"
   xmlns:inkscape="http://www.inkscape.org/namespaces/inkscape"
   inkscape:version="1.0 (4035a4fb49, 2020-05-01)"
   height="236.77898"
   width="152.62875"
   sodipodi:docname="lantern.svg"
   xml:space="preserve"
   viewBox="0 0 152.62875 236.77897"
   y="0px"
   x="0px"
   id="Layer_1"
   version="1.1"><metadata
   id="metadata176"><rdf:RDF><cc:Work
       rdf:about=""><dc:format>image/svg+xml</dc:format><dc:type
         rdf:resource="http://purl.org/dc/dcmitype/StillImage" /><dc:title></dc:title></cc:Work></rdf:RDF></metadata><defs
   id="defs174" /><sodipodi:namedview
   inkscape:current-layer="Layer_1"
   inkscape:window-maximized="0"
   inkscape:window-y="74"
   inkscape:window-x="0"
   inkscape:cy="105.22028"
   inkscape:cx="31.429103"
   inkscape:zoom="0.70229304"
   fit-margin-bottom="0"
   fit-margin-right="0"
   fit-margin-left="0"
   fit-margin-top="0"
   showgrid="false"
   id="namedview172"
   inkscape:window-height="480"
   inkscape:window-width="710"
   inkscape:pageshadow="2"
   inkscape:pageopacity="0"
   guidetolerance="10"
   gridtolerance="10"
   objecttolerance="10"
   borderopacity="1"
   bordercolor="#666666"
   pagecolor="#ffffff" />
<style
   id="style2"
   type="text/css">
	.st0{fill:#D24C27;}
	.st1{fill:#FFFFFF;}
	.st2{fill:#F0A321;}
	.st3{fill:none;stroke:#000000;stroke-miterlimit:10;}
</style>
<g
   transform="translate(-83.724087,-58.311029)"
   id="g169">
	<g
   id="g159">
		<g
   id="XMLID_1_">
			<g
   id="g60">
				<path
   id="path4"
   d="m 209.12,107.56 -0.14,-0.09 c 0.06,-0.57 0.12,-1.13 0.18,-1.7 2.41,0.37 4.79,0.76 7.16,1.2 2.54,0.47 5.17,1.02 6.98,2.28 2.48,1.72 2.82,4.31 3.03,6.69 3.1,34.28 6.19,68.56 9.29,102.84 0.26,2.86 0.5,5.79 -0.58,8.57 -0.77,1.98 -2.19,3.83 -3.59,5.65 -9.67,12.54 -19.64,25.34 -34.8,35.2 -0.05,-0.02 -0.1,-0.05 -0.15,-0.07 -1.87,-0.86 -3.34,-2.15 -4.88,-3.36 8.05,-7.72 16.1,-15.43 24.15,-23.14 3.38,-3.24 6.8,-6.52 8.77,-10.22 2.99,-5.59 2.47,-11.67 1.9,-17.56 -3.02,-31.73 -6.05,-63.46 -9.08,-95.2 -0.15,-1.69 -0.38,-3.49 -1.88,-4.85 -1.3,-1.16 -3.35,-1.84 -5.35,-2.42 -1.9,-0.55 -3.82,-1.07 -5.76,-1.54 l 0.63,-1.59 c 1.43,0.39 3.21,0.08 4.12,-0.69 z"
   class="st0" />
				<path
   id="path6"
   d="m 222.88,293.83 -0.01,0.5 c -42.67,-0.42 -85.35,-0.34 -128.01,0.26 l -0.02,-0.69 106.43,-9.65 0.67,0.72 c 7.74,-0.74 15.81,0.76 22.3,4.17 2.1,1.1 4.17,2.56 4.6,4.51 -1.97,0.15 -3.96,0.21 -5.96,0.18 z"
   class="st0" />
				<path
   id="path8"
   d="m 210.46,70.22 c 0.38,11.85 -0.06,23.73 -1.3,35.55 -2.38,-0.36 -4.77,-0.68 -7.18,-0.97 -0.24,-0.96 -0.28,-1.98 -0.29,-2.96 -0.1,-8.18 -0.2,-16.37 -0.31,-24.54 -0.05,-4.36 -0.87,-9.67 -5.99,-11.38 -1.75,-0.58 -3.71,-0.6 -5.63,-0.6 -16.7,-0.03 -33.41,-0.06 -50.11,-0.09 -9.74,-0.02 -21.4,0.81 -26.01,7.54 -1.61,2.37 -2.04,5.1 -2.43,7.77 -1.37,9.31 -2.73,18.61 -4.09,27.92 -1.44,0.25 -2.88,0.54 -4.3,0.83 -2.66,-13.42 -0.7,-27.37 5.63,-40.01 1.08,-2.17 2.38,-4.38 4.71,-5.82 2.49,-1.54 5.8,-1.96 8.95,-2.29 24.18,-2.55 48.71,-3.04 73.02,-1.5 5.35,0.34 11.55,1.21 14.04,4.95 1.13,1.71 1.23,3.69 1.29,5.6 z"
   class="st0" />
				<path
   id="path10"
   d="m 209.16,105.77 c -0.06,0.57 -0.12,1.13 -0.18,1.7 l 0.14,0.09 c -0.91,0.77 -2.69,1.09 -4.12,0.7 -0.41,-0.11 -0.79,-0.27 -1.11,-0.5 -1.08,-0.77 -1.64,-1.82 -1.91,-2.97 2.41,0.29 4.8,0.62 7.18,0.98 z"
   class="st0" />
				<path
   id="path12"
   d="m 205,108.26 -0.63,1.59 c -6.81,-1.64 -13.89,-2.78 -21.1,-3.39 -0.01,-0.01 -0.02,-0.02 -0.02,-0.03 l 0.48,0.01 c -0.24,-0.07 -0.44,-0.15 -0.61,-0.25 0,0 -0.01,0 0,-0.01 -0.44,-0.93 -0.28,-1.98 0.44,-2.86 6.18,0.25 12.33,0.75 18.42,1.47 0.27,1.15 0.83,2.2 1.91,2.97 0.32,0.23 0.7,0.39 1.11,0.5 z"
   class="st0" />
				<path
   id="path14"
   d="m 141.29,261.6 c 10.37,-1.21 20.89,-1.62 31.35,-1.21 2.12,0.07 4.24,0.19 6.35,0.34 3.29,0.23 6.69,0.58 9.48,1.97 1.16,0.58 2.17,1.31 3.14,2.08 -0.47,0.45 -0.94,0.9 -1.41,1.35 l 5,3 c 0.49,-0.3 0.97,-0.61 1.44,-0.93 0.87,0.4 1.83,0.74 2.38,1.39 0.48,0.57 0.58,1.28 0.67,1.96 0.52,4.23 1.04,8.47 1.57,12.7 L 94.85,293.9 c 2.04,-3.77 8.56,-6.48 15.59,-7.73 3.58,-0.64 4.93,-0.05 6,-2.51 0.94,-2.15 -0.31,-6.24 -0.43,-8.54 -0.03,-0.78 -0.07,-1.58 0.25,-2.31 0.39,-0.91 1.28,-1.62 2.13,-2.31 1.84,-1.45 3.66,-2.91 5.49,-4.36 1.05,-0.83 2.12,-1.68 3.44,-2.2 0.96,-0.38 2.02,-0.57 3.07,-0.76 3.62,-0.62 7.25,-1.15 10.9,-1.58 z"
   class="st0" />
				<path
   id="path16"
   d="m 196.66,268.2 c -0.47,0.32 -0.96,0.62 -1.44,0.93 l -5,-3 c 0.47,-0.45 0.94,-0.9 1.41,-1.35 1.55,1.21 3.01,2.49 4.88,3.36 0.05,0.01 0.1,0.04 0.15,0.06 z"
   class="st0" />
				<path
   id="path18"
   d="m 172.21,256.93 c -10.5,0 -21.01,-0.01 -31.51,-0.01 -4.25,-0.01 -8.5,-0.01 -12.76,-0.01 -1.61,0 -3.28,-0.01 -4.76,-0.52 -1.48,-0.51 -2.72,-1.66 -2.59,-2.92 l 43.97,0.01 h 26.64 0.15 c 0.96,0.81 0.36,2.23 -0.81,2.83 -1.18,0.6 -2.66,0.62 -4.07,0.62 -4.75,0.01 -9.51,0.01 -14.26,0 z"
   class="st0" />
				<path
   id="path20"
   d="m 182.16,251.88 c 1.08,-0.05 2.14,-0.11 3.22,-0.17 1.3,-0.07 2.64,-0.13 3.85,0.23 0.88,0.27 1.67,0.85 1.97,1.54 h -26.64 v -0.42 c 0.06,-0.15 0.11,-0.3 0.15,-0.46 5.25,-0.16 10.51,-0.38 15.76,-0.64 0.56,-0.02 1.13,-0.04 1.69,-0.08 z"
   class="st0" />
				<path
   id="path22"
   d="m 186.85,113.91 c 1.01,-0.07 2.02,-0.14 3.03,-0.21 0.05,1.53 0.11,3.06 0.16,4.59 0.02,0.47 0.01,0.98 -0.38,1.33 -0.45,0.42 -1.25,0.45 -1.94,0.45 -2.2,0 -4.4,-0.01 -6.6,-0.01 -18.38,-0.03 -36.77,-0.05 -55.15,-0.08 -2.39,-0.01 -4.79,-0.01 -7.18,-0.01 -0.58,0 -1.21,-0.01 -1.66,-0.31 -0.45,-0.3 -0.57,-0.8 -0.64,-1.27 -0.23,-1.51 -0.28,-3.03 -0.15,-4.54 l 0.73,-0.93 c 1.81,0.4 3.65,0.77 5.48,1.11 8.97,1.62 18.2,2.37 27.41,2.22 5.15,-0.09 10.27,-0.46 15.4,-0.82 7.18,-0.5 14.33,-1.01 21.49,-1.52 z"
   class="st0" />
				<path
   id="path24"
   d="m 122.59,112.39 c -0.02,-0.95 -0.03,-1.9 -0.03,-2.86 0.15,-0.02 0.28,-0.04 0.43,-0.06 0.41,-0.89 0.35,-1.9 -0.15,-2.75 0.38,-0.45 1.11,-0.64 1.79,-0.8 0.28,-0.07 0.56,-0.13 0.85,-0.19 l 57.09,0.68 c 2.63,1.99 4.26,4.72 4.3,7.5 -7.16,0.51 -14.31,1.02 -21.47,1.53 -5.13,0.36 -10.26,0.73 -15.4,0.82 -9.2,0.15 -18.44,-0.6 -27.41,-2.22 0,-0.55 0,-1.1 0,-1.65 z"
   class="st0" />
				<path
   id="path26"
   d="m 183.73,106.43 -0.48,-0.01 c -0.05,-0.08 -0.09,-0.16 -0.13,-0.24 0.17,0.1 0.37,0.18 0.61,0.25 z"
   class="st1" />
				<path
   id="path28"
   d="m 166,100.23 c 4.04,0.39 8.01,0.95 11.86,1.71 1.45,0.29 3.01,0.65 3.72,1.37 0.88,0.88 0.42,2.17 1.55,2.86 -0.01,0.01 0,0.01 0,0.01 0.03,0.08 0.08,0.16 0.13,0.24 l -0.7,-0.01 c -1.62,-1.24 -3.64,-2.19 -5.88,-2.7 -2.5,-0.56 -5.16,-0.61 -7.77,-0.66 -14.59,-0.25 -29.5,-0.46 -43.44,2.67 l -1.65,-0.02 c -0.44,-2.17 4.09,-3.61 8.02,-4.28 2.37,-0.4 4.77,-0.74 7.21,-1.01 8.85,-0.95 18.05,-1.02 26.95,-0.18 z"
   class="st0" />
				<path
   id="path30"
   d="m 181.17,144.22 c -0.42,0.35 -0.91,0.65 -1.43,0.91 -3.32,1.66 -7.53,1.64 -11.47,1.56 -10.36,-0.21 -20.71,-0.43 -31.06,-0.64 -1.86,-0.03 -3.95,-0.15 -5.21,-1.23 -0.39,-0.34 -0.66,-0.73 -0.87,-1.15 -0.2,-0.43 -0.35,-0.88 -0.49,-1.32 -2.24,-7.35 -3.8,-14.82 -4.67,-22.35 18.38,0.03 36.77,0.05 55.15,0.08 0.89,6.8 1.37,13.64 1.43,20.47 0.01,0.85 0.01,1.73 -0.4,2.51 -0.23,0.42 -0.57,0.81 -0.98,1.16 z"
   class="st0" />
				<path
   id="path32"
   d="m 182.55,106.42 -57.09,-0.68 c 13.94,-3.13 28.84,-2.92 43.44,-2.67 2.61,0.05 5.27,0.09 7.77,0.66 2.25,0.49 4.26,1.45 5.88,2.69 z"
   class="st0" />
				<path
   id="path34"
   d="m 169.67,216.67 c 4.79,3.08 6.39,8.31 5.53,13.2 -6.21,3.67 -12.46,7.29 -18.76,10.85 -5.01,-3.12 -9.88,-6.46 -14.85,-9.69 0.05,-0.07 0.09,-0.15 0.14,-0.22 1.94,-3.2 2.54,-6.9 1.68,-10.38 1.36,3.35 4.11,6.35 7.73,8.42 1.63,-8.96 2.27,-18.04 1.9,-27.09 2.79,6.98 7.08,13.58 12.63,19.46 2.26,-0.78 3.87,-2.61 4,-4.55 z"
   class="st2" />
				<path
   id="path36"
   d="m 175.2,229.87 c -0.17,1.01 -0.44,2 -0.83,2.96 -1.88,4.74 -5.68,8.81 -9.71,12.66 -2.81,-1.49 -5.54,-3.1 -8.22,-4.77 6.3,-3.55 12.56,-7.17 18.76,-10.85 z"
   class="st2" />
				<path
   id="path38"
   d="m 172.21,256.93 c 0.01,1.16 0.16,2.32 0.44,3.45 -10.47,-0.41 -20.99,0 -31.35,1.21 -0.48,-1.53 -0.67,-3.1 -0.6,-4.67 10.5,0 21,0.01 31.51,0.01 z"
   class="st0" />
				<path
   id="path40"
   d="m 166.51,97.21 c -0.15,-0.01 -0.29,-0.01 -0.44,-0.03 -9.39,-0.65 -18.84,-0.44 -28.26,-0.07 -2.35,0.09 -4.7,0.2 -7.04,0.31 -1.14,-0.98 -0.4,-2.68 1.01,-3.4 1.41,-0.72 3.2,-0.75 4.89,-0.75 2.55,0 5.11,0 7.67,0 5.57,0 11.13,0 16.69,-0.01 3.08,0.01 6.17,0 9.26,0 v 0.14 c 1.49,0 2.22,2.06 1.01,2.98 -1.2,0.94 -3.07,0.94 -4.79,0.83 z"
   class="st0" />
				<path
   id="path42"
   d="m 166.07,97.18 c 0.15,0.01 0.29,0.02 0.44,0.03 -0.35,0.98 -0.52,2 -0.51,3.02 -8.9,-0.84 -18.1,-0.77 -26.96,0.19 -0.4,-0.91 -0.79,-1.81 -1.2,-2.71 l -0.03,-0.6 c 9.43,-0.37 18.87,-0.58 28.26,0.07 z"
   class="st0" />
				<path
   id="path44"
   d="m 165.02,249.31 c 0.15,1.1 0.04,2.22 -0.31,3.29 -5.73,0.19 -11.45,0.31 -17.18,0.38 0.02,-1.43 0.03,-2.86 0.06,-4.29 2.49,-0.11 4.98,-0.23 7.47,-0.35 2.47,-0.11 4.94,-0.23 7.41,-0.34 0.15,-0.01 0.29,-0.01 0.44,-0.02 0.53,-0.02 1.13,-0.03 1.54,0.23 0.4,0.26 0.52,0.7 0.57,1.1 z"
   class="st0" />
				<path
   id="path46"
   d="m 164.67,245.5 c -0.73,0.7 -1.48,1.4 -2.22,2.09 l 0.03,0.41 c -2.47,0.11 -4.94,0.23 -7.41,0.34 l -0.04,-0.6 c -2.86,-0.03 -5.6,-0.77 -8.29,-1.58 3.24,-1.79 6.48,-3.61 9.71,-5.44 2.67,1.68 5.41,3.29 8.22,4.78 z"
   class="st2" />
				<path
   id="path48"
   d="m 153.52,78.16 c 5.8,3.14 8.88,9.1 7.51,14.52 v 0.58 c -5.57,0.01 -11.13,0.01 -16.69,0.01 v -0.03 c -1.25,-5.43 1.32,-11.32 6.57,-15 0.32,-0.23 0.68,-0.46 1.12,-0.51 0.54,-0.05 1.05,0.19 1.49,0.43 z"
   class="st0" />
				<path
   id="path50"
   d="m 141.59,231.03 c 4.97,3.23 9.84,6.58 14.85,9.69 -3.23,1.83 -6.46,3.65 -9.71,5.44 -0.34,-0.11 -0.67,-0.21 -1.02,-0.32 -3.13,-0.97 -6.59,-2.17 -7.84,-4.63 -1.72,-3.39 1.67,-6.87 3.72,-10.18 z"
   class="st2" />
				<path
   id="path52"
   d="m 101.49,242.42 c 7.32,7.74 14.63,15.47 21.94,23.21 l -0.09,0.07 -3.91,3 c -13.51,-9.31 -22.47,-21.92 -31.17,-34.27 -1.23,-1.74 -2.46,-3.51 -3.18,-5.42 -1,-2.7 -0.91,-5.55 -0.8,-8.35 1.22,-33.58 2.44,-67.15 3.66,-100.72 0.09,-2.33 0.27,-4.87 2.24,-6.62 1.44,-1.27 3.59,-1.89 5.65,-2.42 2.31,-0.59 4.64,-1.13 6.98,-1.62 0.14,0.69 0.28,1.37 0.44,2.06 1.14,0.02 2.28,0.04 3.42,0.06 l 0.73,1.45 c -2.15,0.65 -4.27,1.38 -6.34,2.18 -1.62,0.62 -3.28,1.34 -4.3,2.51 -1.2,1.37 -1.3,3.13 -1.37,4.79 -1.26,31.08 -2.52,62.16 -3.78,93.25 -0.24,5.77 -0.43,11.72 2.24,17.1 1.8,3.57 4.73,6.68 7.64,9.74 z"
   class="st0" />
				<path
   id="path54"
   d="m 122.83,106.72 c 0.5,0.85 0.56,1.86 0.15,2.75 -0.15,0.02 -0.28,0.04 -0.43,0.06 -0.01,-0.52 -0.02,-1.04 -0.03,-1.56 0,-0.43 0,-0.88 0.31,-1.25 z"
   class="st1" />
				<path
   id="path56"
   d="m 122.62,106.42 c 0.08,0.1 0.15,0.2 0.2,0.31 -0.31,0.37 -0.31,0.82 -0.3,1.25 0.01,0.52 0.02,1.04 0.03,1.56 -5.17,0.72 -10.24,1.84 -15.12,3.33 l -0.73,-1.45 c 0.15,-0.99 0.29,-1.97 0.44,-2.96 5.1,-0.93 10.27,-1.61 15.48,-2.04 z"
   class="st0" />
				<path
   id="path58"
   d="m 107.13,108.45 c -0.15,0.99 -0.29,1.97 -0.44,2.96 -1.14,-0.02 -2.28,-0.04 -3.42,-0.06 -0.16,-0.69 -0.31,-1.37 -0.44,-2.06 1.42,-0.3 2.86,-0.58 4.3,-0.84 z"
   class="st0" />
			</g>
			<g
   id="g118">
				<path
   id="path62"
   d="m 137.85,97.71 c 0.4,0.9 0.79,1.8 1.2,2.71"
   class="st3" />
				<path
   id="path64"
   d="m 166,100.23 c -0.01,-1.02 0.16,-2.04 0.51,-3.02 0.05,-0.17 0.12,-0.34 0.19,-0.5"
   class="st3" />
				<path
   id="path66"
   d="m 171.03,93.27 c -0.25,0 -0.49,0 -0.73,0 -3.08,0 -6.17,0.01 -9.26,0 -5.57,0.01 -11.13,0.01 -16.69,0.01 -2.55,0 -5.11,0 -7.67,0 -1.69,0 -3.48,0.03 -4.89,0.75 -1.41,0.72 -2.14,2.42 -1.01,3.4 2.34,-0.11 4.69,-0.21 7.04,-0.31 9.43,-0.38 18.87,-0.58 28.26,0.07 0.15,0.01 0.29,0.02 0.44,0.03 1.72,0.11 3.59,0.11 4.79,-0.82 1.21,-0.92 0.48,-2.98 -1.01,-2.98 -0.13,0 -0.26,0.01 -0.41,0.05"
   class="st3" />
				<path
   id="path68"
   d="m 144.34,93.25 c -1.25,-5.43 1.32,-11.32 6.57,-15 0.32,-0.23 0.68,-0.46 1.12,-0.51 0.54,-0.06 1.05,0.18 1.49,0.42 5.8,3.14 8.88,9.1 7.51,14.52"
   class="st3" />
				<path
   id="path70"
   d="m 94.66,294.59 c 0.07,0 0.15,0 0.21,0 42.66,-0.6 85.34,-0.68 128.01,-0.26"
   class="st3" />
				<path
   id="path72"
   d="m 201.96,284.97 c 7.74,-0.74 15.81,0.76 22.3,4.17 2.1,1.1 4.17,2.56 4.6,4.51 -1.99,0.15 -3.98,0.21 -5.98,0.18 -0.6,-0.01 -1.2,-0.03 -1.78,-0.05"
   class="st3" />
				<path
   id="path74"
   d="m 140.7,256.92 c -0.08,1.57 0.12,3.14 0.6,4.67"
   class="st3" />
				<path
   id="path76"
   d="m 172.21,256.93 c 0.01,1.16 0.16,2.32 0.44,3.45"
   class="st3" />
				<path
   id="path78"
   d="m 120.84,252.91 c 2.86,0.05 5.72,0.09 8.59,0.11 6.04,0.05 12.07,0.03 18.1,-0.05 5.73,-0.07 11.45,-0.19 17.18,-0.38 5.25,-0.16 10.51,-0.38 15.76,-0.64 0.56,-0.03 1.12,-0.05 1.68,-0.09 1.08,-0.05 2.14,-0.11 3.22,-0.17 1.3,-0.07 2.64,-0.13 3.85,0.23 0.88,0.27 1.67,0.85 1.97,1.54"
   class="st3" />
				<path
   id="path80"
   d="m 128.4,252.46 c -5.6,-9.82 -11.19,-19.64 -16.8,-29.47 -1.84,-3.2 -3.7,-6.52 -4.17,-10.16 -0.32,-2.51 0.03,-5.04 0.61,-7.52 0.25,-1.11 0.55,-2.2 0.85,-3.29 4.54,-16.45 9.72,-32.74 15.51,-48.82 1.2,-3.35 2.6,-6.89 5.55,-8.97"
   class="st3" />
				<path
   id="path82"
   d="m 182.11,251.98 c 0.02,-0.03 0.03,-0.06 0.05,-0.09 5.58,-9.79 11.17,-19.58 16.75,-29.37 1.83,-3.21 3.69,-6.52 4.17,-10.16 0.02,-0.14 0.03,-0.28 0.04,-0.43 0.16,-1.6 0.06,-3.21 -0.2,-4.81 -0.3,-1.87 -0.79,-3.73 -1.3,-5.56 -4.55,-16.45 -9.73,-32.74 -15.52,-48.83 -1.12,-3.1 -2.39,-6.38 -4.94,-8.5 -0.2,-0.17 -0.4,-0.32 -0.61,-0.47"
   class="st3" />
				<path
   id="path84"
   d="m 183.13,106.18 c 0.16,0.09 0.37,0.18 0.61,0.25"
   class="st3" />
				<path
   id="path86"
   d="m 123.82,105.71 c -0.44,-2.17 4.09,-3.61 8.02,-4.28 2.37,-0.4 4.77,-0.74 7.21,-1.01 8.85,-0.97 18.06,-1.03 26.96,-0.19 4.04,0.39 8.01,0.95 11.86,1.71 1.45,0.29 3.01,0.65 3.72,1.37 0.88,0.88 0.42,2.17 1.55,2.86"
   class="st3" />
				<path
   id="path88"
   d="m 125.98,119.99 c 0.87,7.53 2.43,15 4.67,22.35 0.14,0.44 0.28,0.89 0.49,1.32 0.21,0.42 0.48,0.82 0.87,1.15 1.26,1.08 3.35,1.19 5.21,1.23 10.36,0.21 20.71,0.43 31.06,0.64 3.94,0.08 8.15,0.11 11.47,-1.56 0.51,-0.25 1.01,-0.56 1.43,-0.91 0.41,-0.35 0.75,-0.74 0.98,-1.17 0.41,-0.78 0.41,-1.66 0.4,-2.51 -0.06,-6.83 -0.54,-13.67 -1.43,-20.47"
   class="st3" />
				<path
   id="path90"
   d="m 122.83,106.72 c 0.38,-0.45 1.11,-0.64 1.79,-0.8 0.28,-0.07 0.56,-0.13 0.85,-0.19 13.94,-3.13 28.84,-2.92 43.44,-2.67 2.61,0.05 5.27,0.09 7.77,0.66 2.25,0.5 4.26,1.45 5.88,2.7 2.63,1.99 4.26,4.72 4.3,7.5"
   class="st3" />
				<path
   id="path92"
   d="m 122.59,112.88 c 0,-0.16 -0.01,-0.33 -0.01,-0.49 -0.02,-0.95 -0.03,-1.9 -0.03,-2.86"
   class="st3" />
				<path
   id="path94"
   d="m 122.57,112.39 c 0,0.55 0,1.1 0,1.65"
   class="st3" />
				<path
   id="path96"
   d="m 107.13,108.45 c 1.36,-9.31 2.72,-18.61 4.09,-27.92 0.38,-2.67 0.81,-5.4 2.43,-7.77 4.61,-6.73 16.27,-7.56 26.01,-7.54 16.7,0.03 33.41,0.05 50.11,0.09 1.91,0 3.88,0.01 5.63,0.6 5.11,1.7 5.93,7.02 5.99,11.38 0.1,8.18 0.2,16.37 0.31,24.54 0.01,0.98 0.05,2 0.29,2.96"
   class="st3" />
				<path
   id="path98"
   d="m 209.16,105.77 c 1.24,-11.82 1.67,-23.69 1.3,-35.55 -0.06,-1.91 -0.16,-3.89 -1.28,-5.58 -2.48,-3.74 -8.68,-4.61 -14.04,-4.95 -24.32,-1.55 -48.84,-1.05 -73.02,1.5 -3.15,0.33 -6.46,0.74 -8.95,2.29 -2.33,1.44 -3.63,3.65 -4.71,5.82 -6.33,12.63 -8.28,26.59 -5.63,40.01"
   class="st3" />
				<path
   id="path100"
   d="m 147.54,253.02 c 0,-0.01 0,-0.03 0,-0.04 0.02,-1.43 0.03,-2.86 0.06,-4.29 2.49,-0.11 4.98,-0.23 7.47,-0.35 2.47,-0.11 4.94,-0.23 7.41,-0.34 0.15,-0.01 0.29,-0.01 0.44,-0.02 0.53,-0.02 1.13,-0.03 1.54,0.23 0.4,0.26 0.52,0.7 0.57,1.11 0.15,1.1 0.04,2.22 -0.31,3.29 -0.04,0.15 -0.09,0.31 -0.15,0.46"
   class="st3" />
				<path
   id="path102"
   d="m 155.03,247.75 c -2.86,-0.03 -5.6,-0.77 -8.29,-1.58 -0.34,-0.11 -0.67,-0.21 -1.02,-0.32 -3.13,-0.97 -6.59,-2.17 -7.84,-4.63 -1.72,-3.4 1.66,-6.87 3.71,-10.18 0.05,-0.07 0.09,-0.15 0.14,-0.22 1.94,-3.2 2.54,-6.9 1.68,-10.38 1.36,3.35 4.11,6.35 7.73,8.42 1.63,-8.96 2.27,-18.04 1.9,-27.09 2.79,6.98 7.08,13.58 12.63,19.46 2.25,-0.78 3.87,-2.61 4,-4.55 4.79,3.08 6.39,8.31 5.53,13.2 -0.17,1.01 -0.44,2 -0.83,2.96 -1.88,4.74 -5.68,8.81 -9.71,12.66 -0.73,0.7 -1.48,1.4 -2.22,2.09"
   class="st3" />
				<path
   id="path104"
   d="m 109,204.03 c -0.2,0.44 -0.34,0.88 -0.44,1.33 -0.72,3.47 1.46,7.15 4.65,9.73 3.6,2.91 8.32,4.77 12.71,6.89 5.5,2.65 10.64,5.79 15.67,9.05 4.97,3.23 9.84,6.58 14.85,9.69 2.68,1.68 5.41,3.29 8.22,4.77 4.95,2.63 10.15,4.88 15.81,6.47 0.51,0.15 1.04,0.29 1.56,0.42"
   class="st3" />
				<path
   id="path106"
   d="m 128.2,252.49 c 0.07,0.01 0.13,0.01 0.2,0.01 0.35,0.03 0.7,0.03 1.04,0.03 5.4,0 10.38,-2.55 14.87,-5.03 0.81,-0.44 1.61,-0.89 2.43,-1.35 3.24,-1.79 6.48,-3.61 9.71,-5.44 6.3,-3.56 12.55,-7.18 18.76,-10.85 7.86,-4.64 15.64,-9.37 23.35,-14.17 1.72,-1.07 3.48,-2.19 4.53,-3.71 0.02,-0.02 0.03,-0.05 0.04,-0.07 1.02,-1.51 1.17,-3.49 -0.2,-4.81"
   class="st3" />
				<path
   id="path108"
   d="m 120.6,253.48 c -0.14,1.27 1.11,2.41 2.59,2.92 1.48,0.51 3.14,0.52 4.76,0.52 4.25,0 8.5,0 12.76,0.01 10.5,0 21.01,0.01 31.51,0.01 4.76,0.01 9.51,0.01 14.27,0.01 1.41,0 2.89,-0.02 4.07,-0.62 1.17,-0.6 1.77,-2.02 0.81,-2.83"
   class="st3" />
				<path
   id="path110"
   d="m 119.44,268.7 c -13.51,-9.31 -22.47,-21.92 -31.17,-34.27 -1.23,-1.74 -2.46,-3.51 -3.18,-5.42 -1,-2.7 -0.91,-5.55 -0.8,-8.35 1.22,-33.58 2.44,-67.15 3.66,-100.72 0.09,-2.33 0.27,-4.87 2.24,-6.62 1.44,-1.27 3.59,-1.89 5.65,-2.42 2.31,-0.59 4.64,-1.13 6.98,-1.62 1.43,-0.29 2.86,-0.58 4.3,-0.83 5.11,-0.93 10.28,-1.6 15.49,-2.04 0.08,0.1 0.15,0.2 0.2,0.31 0.5,0.85 0.56,1.86 0.15,2.75 -0.15,0.02 -0.28,0.04 -0.43,0.06 -5.17,0.72 -10.24,1.84 -15.12,3.33 -2.15,0.65 -4.27,1.38 -6.34,2.18 -1.62,0.62 -3.28,1.34 -4.3,2.51 -1.2,1.37 -1.3,3.13 -1.37,4.79 -1.26,31.08 -2.52,62.16 -3.78,93.25 -0.24,5.77 -0.43,11.72 2.24,17.1 1.77,3.56 4.7,6.67 7.6,9.73 7.32,7.74 14.63,15.47 21.94,23.21"
   class="st3" />
				<path
   id="path112"
   d="m 196.66,268.2 c 15.16,-9.87 25.12,-22.67 34.8,-35.2 1.41,-1.82 2.83,-3.67 3.59,-5.65 1.08,-2.78 0.84,-5.71 0.58,-8.57 -3.1,-34.28 -6.19,-68.56 -9.29,-102.84 -0.21,-2.38 -0.56,-4.97 -3.03,-6.69 -1.81,-1.26 -4.45,-1.81 -6.98,-2.28 -2.37,-0.44 -4.76,-0.83 -7.16,-1.2 -2.38,-0.36 -4.77,-0.68 -7.18,-0.97 -6.09,-0.72 -12.24,-1.22 -18.42,-1.47 -0.72,0.87 -0.88,1.92 -0.44,2.86 -0.01,0.01 0,0.01 0,0.01 0.03,0.08 0.08,0.16 0.13,0.24 0,0.01 0.01,0.02 0.02,0.03 7.21,0.61 14.29,1.75 21.1,3.39 1.95,0.47 3.87,0.99 5.76,1.54 2.01,0.58 4.06,1.26 5.35,2.42 1.5,1.36 1.72,3.16 1.88,4.85 3.03,31.73 6.05,63.46 9.08,95.2 0.56,5.89 1.08,11.97 -1.9,17.56 -1.97,3.7 -5.39,6.99 -8.77,10.22 -8.04,7.71 -16.1,15.43 -24.15,23.14"
   class="st3" />
				<path
   id="path114"
   d="m 116.35,113.86 c -0.14,1.51 -0.09,3.03 0.15,4.54 0.07,0.46 0.19,0.97 0.64,1.27 0.44,0.29 1.08,0.31 1.66,0.31 2.39,0.01 4.79,0.01 7.18,0.01 18.38,0.03 36.77,0.05 55.15,0.08 2.2,0 4.4,0.01 6.6,0.01 0.69,0 1.49,-0.03 1.94,-0.45 0.38,-0.36 0.39,-0.86 0.38,-1.33 -0.05,-1.53 -0.11,-3.06 -0.16,-4.59 -1.01,0.07 -2.02,0.15 -3.03,0.21 -7.16,0.51 -14.31,1.02 -21.47,1.53 -5.13,0.36 -10.26,0.73 -15.4,0.82 -9.2,0.15 -18.44,-0.6 -27.41,-2.22 -1.84,-0.34 -3.67,-0.7 -5.48,-1.11"
   class="st3" />
				<path
   id="path116"
   d="m 94.85,293.9 c 2.04,-3.77 8.56,-6.48 15.59,-7.73 3.58,-0.64 4.93,-0.05 6,-2.51 0.94,-2.15 -0.31,-6.24 -0.43,-8.54 -0.03,-0.78 -0.07,-1.58 0.25,-2.31 0.39,-0.91 1.28,-1.62 2.13,-2.31 1.84,-1.45 3.66,-2.91 5.49,-4.36 1.05,-0.83 2.12,-1.68 3.44,-2.2 0.96,-0.38 2.02,-0.57 3.07,-0.76 3.6,-0.63 7.23,-1.16 10.89,-1.59 10.37,-1.21 20.89,-1.62 31.35,-1.21 2.12,0.07 4.24,0.19 6.35,0.34 3.29,0.23 6.69,0.58 9.48,1.97 1.16,0.58 2.17,1.31 3.14,2.08 1.55,1.21 3.01,2.49 4.88,3.36 0.05,0.02 0.1,0.05 0.15,0.07 0.87,0.4 1.83,0.74 2.38,1.39 0.48,0.57 0.58,1.28 0.67,1.96 0.52,4.23 1.04,8.47 1.57,12.7"
   class="st3" />
			</g>
		</g>
		<g
   id="g125">
			<g
   id="g123">
				<path
   id="path121"
   d="m 116.18,273.94 c 20.99,-0.06 41.98,-0.52 62.96,-1.36 5.95,-0.24 11.91,-0.51 17.86,-0.82 1.51,-0.08 2.35,-1.88 0.35,-1.78 -20.8,1.06 -41.62,1.73 -62.44,2.01 -5.88,0.08 -11.76,0.13 -17.64,0.14 -0.61,0 -1.61,0.18 -1.9,0.82 -0.27,0.61 0.23,0.99 0.81,0.99 z" />
			</g>
		</g>
		<g
   id="g133">
			<path
   id="path127"
   d="m 161.97,268.23 c -3.66,-0.66 -7.94,0.43 -9.8,3 -2.26,3.13 0.15,7.62 4.5,8.77 4.35,1.15 9.53,-1.04 11.04,-4.44 0.74,-1.68 0.66,-3.62 -0.5,-5.14 -1.16,-1.52 -3.47,-2.53 -5.7,-2.27"
   class="st0" />
			<g
   id="g131">
				<path
   id="path129"
   d="m 162.87,267.49 c -3.64,-0.62 -8.04,0.06 -10.91,2.54 -1.16,1 -2.02,2.33 -2.09,3.89 -0.07,1.48 0.48,2.86 1.39,4.01 2.2,2.8 6.09,3.53 9.44,2.97 3.37,-0.57 7.23,-2.38 8.55,-5.76 0.8,-2.04 0.35,-4.4 -1.28,-5.9 -1.68,-1.55 -4.03,-2.03 -6.25,-1.82 -0.49,0.05 -1.55,0.35 -1.66,0.94 -0.12,0.63 0.88,0.57 1.23,0.54 3.12,-0.3 5.97,2.58 5.35,5.69 -0.49,2.46 -2.69,4.14 -5.03,4.73 -2.53,0.63 -5.3,-0.03 -7.14,-1.9 -1.55,-1.58 -2.36,-4.14 -1.01,-6.11 1.64,-2.37 4.98,-2.78 7.61,-2.33 0.66,0.11 1.54,-0.1 2.05,-0.55 0.44,-0.39 0.36,-0.83 -0.25,-0.94 z" />
			</g>
		</g>
		<g
   id="g139">
			<g
   id="g137">
				<path
   id="path135"
   d="m 114.61,287.11 c 22.18,-1.08 44.4,-1.55 66.61,-1.41 6.3,0.04 12.6,0.13 18.9,0.27 1.71,0.04 2.18,-2.22 0.22,-2.26 -22.21,-0.48 -44.43,-0.36 -66.63,0.37 -6.29,0.21 -12.58,0.47 -18.87,0.77 -1.7,0.08 -2.2,2.35 -0.23,2.26 z" />
			</g>
		</g>
		<g
   id="g145">
			<g
   id="g143">
				<path
   id="path141"
   d="m 144.3,127.37 c -1.54,-0.95 -3.56,-0.87 -5.15,-0.07 -1.47,0.73 -2.64,2.33 -1.93,4 1.57,3.7 7.51,3.22 9.53,0.2 0.6,-0.9 0.83,-1.93 0.62,-3 -0.2,-1.02 -0.84,-1.88 -1.6,-2.56 -0.53,-0.47 -1.59,-0.27 -2.08,0.15 -0.53,0.45 -0.69,1.09 -0.13,1.58 -0.01,-0.01 0.25,0.23 0.13,0.12 -0.09,-0.1 0.06,0.07 0.08,0.09 0.1,0.12 0.2,0.24 0.29,0.37 0.09,0.13 0.16,0.26 0.24,0.4 0.08,0.15 -0.05,-0.16 0,0.01 0.03,0.09 0.07,0.19 0.1,0.28 0.04,0.14 0.08,0.28 0.1,0.43 0.01,0.06 0.02,0.13 0.03,0.19 -0.03,-0.22 0,-0.05 -0.01,-0.01 -0.01,0.16 -0.01,0.32 -0.04,0.48 -0.01,0.06 -0.02,0.13 -0.04,0.19 0.04,-0.2 0,-0.01 -0.04,0.08 -0.04,0.1 -0.09,0.3 -0.17,0.36 0.18,-0.13 0.08,-0.12 0,-0.01 -0.04,0.05 -0.07,0.1 -0.11,0.14 -0.05,0.06 -0.1,0.12 -0.15,0.17 -0.12,0.14 -0.05,-0.04 0.05,-0.05 -0.09,0.01 -0.3,0.24 -0.38,0.3 -0.21,0.16 0.06,-0.02 0.07,-0.04 -0.04,0.05 -0.16,0.09 -0.22,0.12 -0.11,0.06 -0.32,0.11 -0.41,0.19 0.02,-0.02 0.35,-0.12 0.09,-0.03 -0.07,0.02 -0.13,0.04 -0.2,0.06 -0.08,0.02 -0.17,0.05 -0.25,0.07 -0.07,0.02 -0.39,0.03 -0.16,0.04 0.22,0 0,0 -0.06,0 -0.09,0.01 -0.17,0.02 -0.26,0.02 -0.07,0 -0.14,0 -0.21,0 -0.3,0 0.06,-0.01 0.06,0 0,-0.01 -0.45,-0.06 -0.47,-0.06 -0.11,-0.02 -0.28,0.01 -0.01,0 -0.09,0 -0.21,-0.07 -0.29,-0.1 -0.12,-0.05 -0.24,-0.1 -0.36,-0.16 0.27,0.13 -0.1,-0.08 -0.17,-0.12 -0.11,-0.08 -0.22,-0.17 -0.33,-0.27 0.03,0.03 0.16,0.18 0.02,0.02 -0.06,-0.07 -0.12,-0.14 -0.17,-0.21 -0.07,-0.09 -0.13,-0.19 -0.19,-0.29 -0.14,-0.21 0.03,0.15 0,0 -0.01,-0.06 -0.05,-0.13 -0.07,-0.2 -0.03,-0.1 -0.05,-0.21 -0.07,-0.32 -0.04,-0.19 0,0.02 0,0.05 0,-0.08 0,-0.16 0.01,-0.24 0,-0.03 0.01,-0.28 0,-0.09 0,0.16 0.01,-0.04 0.04,-0.09 0.02,-0.05 0.05,-0.1 0.06,-0.14 0.06,-0.14 0.07,0.03 -0.06,0.08 0.05,-0.02 0.18,-0.22 0.21,-0.26 0.09,-0.13 -0.22,0.17 -0.08,0.08 0.06,-0.04 0.13,-0.1 0.19,-0.15 0.12,-0.1 0.2,-0.05 -0.08,0.04 0.07,-0.02 0.15,-0.09 0.22,-0.12 0.05,-0.03 0.1,-0.05 0.15,-0.07 0.25,-0.13 -0.35,0.1 -0.06,0.02 0.14,-0.04 0.28,-0.08 0.42,-0.12 0.12,-0.03 0.21,0.02 -0.14,0.02 0.08,0 0.18,-0.02 0.26,-0.03 0.06,-0.01 0.12,-0.01 0.18,-0.01 0.26,-0.01 0.12,0.04 -0.02,-0.01 0.12,0.05 0.3,0.03 0.43,0.05 0.04,0.01 0.31,0.03 0.08,0.01 -0.21,-0.02 0.05,0.02 0.11,0.04 0.05,0.02 0.1,0.04 0.15,0.06 0.29,0.12 -0.16,-0.11 0.04,0.02 0.62,0.38 1.52,0.33 2.08,-0.15 0.45,-0.34 0.78,-1.15 0.13,-1.55 z" />
			</g>
		</g>
		<g
   id="g151">
			<g
   id="g149">
				<path
   id="path147"
   d="m 160.1,126.92 c -1.64,-0.91 -3.82,-0.65 -5.51,0.01 -1.39,0.54 -3.04,1.64 -2.61,3.37 0.37,1.53 2,2.33 3.47,2.33 1.21,0 2.48,-0.29 3.56,-0.85 0.74,-0.39 1.5,-0.91 1.86,-1.69 0.35,-0.76 0.15,-1.54 -0.37,-2.16 -0.65,-0.78 -1.62,-1.11 -2.61,-1.22 -0.33,-0.04 -0.75,0.06 -1.06,0.14 -0.32,0.09 -0.71,0.21 -0.99,0.41 -0.13,0.09 -0.39,0.24 -0.34,0.43 0.05,0.19 0.38,0.19 0.51,0.2 -0.2,-0.02 0.09,0.02 0.11,0.02 0.09,0.02 0.17,0.04 0.26,0.06 0.13,0.04 0.19,0.06 0.32,0.12 0.3,0.14 0.59,0.33 0.83,0.56 0.38,0.36 0.63,0.87 0.62,1.4 0,0.22 -0.08,0.44 -0.19,0.63 -0.03,0.06 -0.07,0.12 -0.11,0.18 0.01,-0.01 -0.12,0.17 -0.07,0.1 0.06,-0.08 -0.09,0.1 -0.08,0.09 -0.07,0.07 -0.14,0.14 -0.21,0.21 -0.01,0 -0.2,0.16 -0.08,0.07 0.12,-0.09 -0.08,0.05 -0.09,0.06 -0.03,0.02 -0.17,0.13 -0.2,0.12 0.04,-0.02 0.09,-0.05 0.13,-0.07 -0.05,0.02 -0.1,0.05 -0.15,0.07 -0.14,0.07 -0.07,-0.04 0.11,-0.04 -0.03,0.01 -0.05,0.02 -0.08,0.03 -0.15,0.05 -0.1,0.04 0.15,-0.04 -0.03,0.01 -0.05,0.01 -0.08,0.02 -0.16,0.04 -0.11,0.03 0.15,-0.03 -0.04,0.01 -0.08,0.02 -0.12,0.02 -0.11,0.02 -0.05,0.01 0.15,-0.02 -0.08,-0.03 -0.33,0.09 -0.02,0.01 -0.07,0.02 -0.18,0 -0.25,-0.01 -0.18,0 -0.04,0 0,0.01 -0.08,-0.01 -0.17,-0.03 -0.25,-0.04 -0.32,-0.07 -0.49,-0.13 -0.79,-0.31 -0.44,-0.26 -0.81,-0.63 -1.03,-1.09 -0.21,-0.43 -0.31,-0.96 -0.17,-1.41 0.07,-0.23 0.18,-0.44 0.32,-0.63 0.07,-0.1 -0.12,0.11 0.03,-0.03 0.05,-0.05 0.09,-0.1 0.14,-0.14 0.05,-0.05 0.1,-0.09 0.16,-0.13 -0.12,0.1 -0.07,0.05 0.03,-0.01 0.05,-0.03 0.14,-0.07 0.18,-0.11 -0.17,0.09 -0.2,0.11 -0.08,0.05 0.03,-0.02 0.07,-0.03 0.1,-0.05 0.16,-0.09 -0.35,0.13 -0.09,0.04 0.38,-0.13 -0.28,0.07 -0.02,0 0.05,-0.01 0.1,-0.02 0.15,-0.04 -0.26,0.06 -0.32,0.07 -0.16,0.04 0.05,-0.01 0.1,-0.02 0.15,-0.03 -0.32,0.11 -0.19,0.02 -0.05,0.01 0.01,0 0.23,-0.02 0.23,-0.02 -0.05,0 -0.1,0 -0.16,0 0.05,0 0.1,0 0.16,0 0.1,0 0.21,0.01 0.31,0.02 -0.03,0 -0.2,-0.03 -0.02,0 0.1,0.02 0.2,0.03 0.3,0.06 0.36,0.08 0.51,0.14 0.8,0.3 0.21,0.12 0.51,0.11 0.74,0.09 0.37,-0.03 0.78,-0.12 1.13,-0.25 0.14,-0.09 1.32,-0.61 0.88,-0.86 z" />
			</g>
		</g>
		<g
   id="g157">
			<g
   id="g155">
				<path
   id="path153"
   d="m 170.73,127.38 c -0.99,-0.38 -2.07,-0.26 -3.07,0.01 -0.92,0.24 -1.9,0.63 -2.59,1.3 -0.44,0.42 -0.79,0.95 -0.79,1.58 0,0.54 0.36,1.02 0.78,1.34 1.14,0.86 2.86,0.81 4.17,0.52 1.47,-0.32 3.52,-1.01 3.7,-2.78 0.15,-1.54 -1.3,-2.68 -2.64,-3.01 -0.27,-0.07 -0.65,0 -0.91,0.05 -0.37,0.07 -0.77,0.18 -1.11,0.34 -0.25,0.12 -0.99,0.52 -0.38,0.68 0.02,0.01 0.27,0.08 0.17,0.04 0.09,0.03 0.17,0.06 0.26,0.1 0.14,0.06 0.28,0.14 0.42,0.22 0.27,0.17 0.52,0.38 0.73,0.62 -0.03,-0.03 -0.05,-0.06 -0.08,-0.09 0.48,0.57 0.76,1.3 0.61,2.04 0.01,-0.04 0.02,-0.08 0.02,-0.12 -0.06,0.24 -0.15,0.47 -0.3,0.68 -0.03,0.05 -0.07,0.1 -0.11,0.15 -0.11,0.14 0.08,-0.07 -0.03,0.03 -0.05,0.04 -0.09,0.08 -0.14,0.12 -0.03,0.02 -0.19,0.13 -0.05,0.04 0.15,-0.09 -0.05,0.03 -0.08,0.05 -0.09,0.05 -0.25,0.08 0.08,-0.04 -0.05,0.02 -0.11,0.05 -0.15,0.07 0.41,-0.2 0.23,-0.1 0.12,-0.05 0.48,-0.19 0.26,-0.08 0.13,-0.04 -0.16,0.05 0.45,-0.09 0.16,-0.04 -0.29,0.05 0.33,-0.04 0.09,-0.01 -0.06,0.01 -0.12,0.01 -0.18,0.02 -0.23,0.03 0.3,0 0.07,0 -0.06,0 -0.12,0 -0.18,0 -0.06,0 -0.12,0 -0.18,-0.01 -0.19,-0.01 0.22,0.03 -0.02,0 -0.24,-0.04 -0.48,-0.08 -0.72,-0.15 0.15,0.05 -0.01,-0.01 -0.04,-0.02 -0.06,-0.02 -0.12,-0.05 -0.18,-0.08 -0.11,-0.05 -0.21,-0.1 -0.31,-0.17 -0.19,-0.12 -0.37,-0.26 -0.51,-0.43 0.03,0.03 0.05,0.06 0.08,0.09 -0.29,-0.35 -0.43,-0.76 -0.35,-1.21 -0.01,0.04 -0.02,0.08 -0.02,0.12 0.06,-0.29 0.19,-0.55 0.37,-0.79 0.02,-0.03 0.18,-0.2 0.07,-0.09 0.06,-0.06 0.11,-0.11 0.18,-0.17 0.06,-0.05 0.13,-0.1 0.19,-0.15 0.15,-0.12 -0.18,0.1 0.03,-0.02 0.1,-0.05 0.3,-0.11 -0.03,0 0.04,-0.02 0.08,-0.04 0.12,-0.05 0.13,-0.06 0.08,-0.03 -0.16,0.06 0.36,-0.1 -0.32,0.09 -0.07,0.02 -0.28,0.06 -0.35,0.08 -0.2,0.05 0.14,-0.02 0.08,-0.02 -0.17,0.02 0.32,0 -0.2,-0.01 0.01,0 0.04,0 0.09,0 0.13,0 -0.14,-0.01 -0.16,-0.01 -0.05,0 0.09,0.02 0.17,0.03 0.26,0.05 0.04,0.01 0.08,0.02 0.13,0.03 -0.07,-0.02 -0.06,-0.02 0.02,0.01 0.56,0.21 1.32,-0.01 1.86,-0.2 0.28,-0.1 0.59,-0.21 0.82,-0.41 0.04,-0.05 0.22,-0.24 0.02,-0.32 z" />
			</g>
		</g>
	</g>
	<g
   id="g167">
		<path
   id="path161"
   d="m 166.41,154.58 c 3.99,3.61 6.74,8.07 7.87,12.77 2.77,-0.67 5.4,-1.71 7.72,-3.07 0.22,-0.13 0.46,-0.28 0.56,-0.48 0.13,-0.27 -0.01,-0.57 -0.15,-0.84 -0.74,-1.37 -1.72,-2.65 -2.68,-3.93 -1.75,-2.31 -3.5,-4.62 -5.25,-6.92 -0.1,-0.13 -0.21,-0.27 -0.38,-0.36 -0.34,-0.16 -0.78,-0.03 -1.14,0.11 -1.86,0.69 -3.72,1.39 -5.57,2.08"
   class="st1" />
		<g
   id="g165">
			<path
   id="path163"
   d="m 165.05,155.1 c 3.73,3.41 6.56,7.71 7.78,12.65 0.12,0.49 1.34,0.2 1.59,0.13 2.85,-0.7 5.64,-1.74 8.19,-3.2 0.46,-0.26 1.16,-0.58 1.38,-1.11 0.25,-0.61 -0.28,-1.27 -0.58,-1.75 -0.73,-1.19 -1.59,-2.31 -2.43,-3.42 -0.94,-1.24 -1.88,-2.48 -2.82,-3.72 -0.52,-0.68 -1.04,-1.37 -1.56,-2.05 -0.34,-0.45 -0.66,-1.09 -1.16,-1.38 -1.21,-0.71 -3.05,0.23 -4.19,0.66 -1.47,0.55 -2.93,1.09 -4.4,1.64 -0.3,0.11 -1.19,0.48 -0.84,0.91 0.33,0.4 1.54,0.02 1.88,-0.11 1.17,-0.44 2.35,-0.88 3.52,-1.31 0.58,-0.22 1.2,-0.39 1.76,-0.66 0.1,-0.04 0.2,-0.07 0.29,-0.11 -0.56,-0.07 -0.74,-0.01 -0.53,0.17 0,0.12 0.38,0.47 0.46,0.58 1.52,2.01 3.05,4.02 4.57,6.03 0.73,0.96 1.48,1.92 2.14,2.93 0.29,0.44 0.6,0.9 0.84,1.38 0.33,0.67 0.05,0.77 -0.54,1.09 -1.98,1.08 -4.09,1.85 -6.28,2.39 0.53,0.04 1.06,0.09 1.59,0.13 -1.24,-5.02 -4.16,-9.43 -7.95,-12.9 -0.6,-0.56 -3.25,0.53 -2.71,1.03 z" />
		</g>
	</g>
</g>
</svg>
