<?xml version="1.0" encoding="utf-8"?>
<!-- Generator: Adobe Illustrator 23.1.1, SVG Export Plug-In . SVG Version: 6.00 Build 0)  -->
<svg version="1.1" id="Layer_1" xmlns="http://www.w3.org/2000/svg" xmlns:xlink="http://www.w3.org/1999/xlink" x="0px" y="0px"
	 viewBox="0 0 78.76 62.67" style="enable-background:new 0 0 78.76 62.67;" xml:space="preserve">
<style type="text/css">
	.st0{fill:#9ABFA3;}
	.st1{fill:#52210F;}
	.st2{fill:#9F4B25;}
	.st3{fill:#231F20;}
	.st4{fill:#939598;}
	.st5{fill:#7D738F;}
</style>
<path class="st0" d="M30,27.96c-6.3-2.06-11.28-0.89-19.11,0.96c-1.57,0.37-3.03,0.77-4.04,2.06c-1.69,2.15-1.31,5.73,0.3,8
	c2.7,3.81,8.9,2.84,10.52,2.61c1.43-0.21,2.29-0.53,10.05-4.71c6.49-3.5,7.86-4.33,7.78-5.46C35.37,29.72,32.05,28.63,30,27.96z"/>
<path class="st0" d="M49.56,25.08c7.05-1.43,12.15,0.19,20.19,2.76c1.61,0.52,3.1,1.05,3.96,2.41c1.44,2.28,0.44,5.77-1.66,7.86
	c-3.51,3.5-9.95,1.96-11.63,1.58c-1.48-0.34-2.35-0.74-9.91-5.59c-6.32-4.06-7.64-5.02-7.37-6.12
	C43.55,26.31,47.27,25.55,49.56,25.08z"/>
<path class="st0" d="M36.91,28.34c1.17-2.23-4.61-7.14-16.15-16.96c-2.01-1.71-3.37-2.79-5.45-3.16C8.02,6.93-1.14,15.56,0.12,20.19
	c0.31,1.12,1.37,2.55,15.99,5.73C29.32,28.8,35.92,30.23,36.91,28.34z"/>
<path class="st0" d="M47.07,27.68C45.2,26,48.91,19.39,56.33,6.17c1.29-2.3,2.19-3.78,4.02-4.85c6.39-3.74,17.98,1.17,18.4,5.95
	c0.1,1.15-0.4,2.87-13,10.92C54.35,25.47,48.65,29.11,47.07,27.68z"/>
<path class="st1" d="M26.69,7.51c2.73,17.39,4,27.85,3.83,31.64c-0.02,0.5-0.13,2.18,0.81,3.83c1.36,2.39,4.06,3.22,5.44,3.63
	c4.65,1.37,11.74,0.89,14.71-3.43c1.6-2.32,1.46-4.96,1.41-6.05c-0.38-7.84-0.71-19.19-1.21-33.45c-1.41,2.08-2.82,4.16-4.23,6.25
	c-4.63,0.47-9.27,0.94-13.9,1.41C31.26,10.06,28.97,8.78,26.69,7.51z"/>
<ellipse class="st2" cx="33.78" cy="21.27" rx="2.84" ry="3.01"/>
<ellipse class="st2" cx="48.34" cy="20.29" rx="2.84" ry="3.01"/>
<ellipse class="st3" cx="34.62" cy="20.67" rx="1.3" ry="1.34"/>
<ellipse class="st3" cx="47.97" cy="19.82" rx="1.3" ry="1.34"/>
<path class="st4" d="M38.67,22.37c0.18,0.2,1.07,1.09,2.47,1.14c1.89,0.06,3-1.49,3.08-1.6c-1.55,0.13-3.09,0.26-4.64,0.39
	C39.28,22.32,38.98,22.34,38.67,22.37z"/>
<polygon class="st1" points="48.54,44.12 56.85,45.98 52.78,54.62 56.85,57.33 51.14,60.64 49.56,53.27 52.44,47.84 44.48,43.95 "/>
<polygon class="st1" points="39.22,46.15 47.53,48.01 43.46,56.66 47.53,59.37 41.82,62.67 40.24,55.3 43.12,49.88 35.16,45.98 "/>
<polygon class="st1" points="31.6,28.87 24.99,38.02 22.45,40.56 21.94,42.59 24.99,44.96 27.7,41.74 32.28,34.29 "/>
<polygon class="st1" points="52.1,26.75 58.71,35.9 61.25,38.44 61.76,40.47 58.71,42.85 56,39.63 51.42,32.17 "/>
<ellipse class="st5" cx="15.48" cy="35.48" rx="3.86" ry="3.75"/>
<ellipse class="st5" cx="66.01" cy="34.06" rx="3.86" ry="3.75"/>
<ellipse class="st5" cx="12.57" cy="16.48" rx="3.86" ry="3.75"/>
<ellipse class="st5" cx="64.8" cy="9.2" rx="3.86" ry="3.75"/>
</svg>
