<?xml version="1.0" encoding="utf-8"?>
<!-- Generator: Adobe Illustrator 23.1.1, SVG Export Plug-In . SVG Version: 6.00 Build 0)  -->
<svg version="1.1" id="Layer_1" xmlns="http://www.w3.org/2000/svg" xmlns:xlink="http://www.w3.org/1999/xlink" x="0px" y="0px"
	 viewBox="0 0 42.44 38.14" style="enable-background:new 0 0 42.44 38.14;" xml:space="preserve">
<style type="text/css">
	.st0{fill:#379344;}
	.st1{fill:#010101;}
</style>
<path class="st0" d="M0,35.69c0,0,4.32-6.3,14.03-9.45c9.71-3.15,16.72,0.45,16.72,0.45l0.54-7.2c0,0-1.08-7.65-2.7-12.6
	s2.99-6.67,2.99-6.67L33.96,0l4.77,1.11l3.71,1.77v2.21l-2.52,2.1l-3.31,1.44l-2.78-0.22l2.52,7.51l3.18,9.06l-1.06,7.74l-2.66,1.66
	l-2.14,0.81l-1.82,0.48l-1.66,0.57l-1.05,0.08l-1.67,0.04l-12,1.64c-1.7,0.23-3.43,0.18-5.1-0.17L0,35.69z"/>
<ellipse class="st1" cx="33.53" cy="2.81" rx="0.86" ry="0.74"/>
<path class="st1" d="M36.39,1.83c0.18,0.32,0.03,0.7-0.33,0.85c-0.37,0.14-0.81,0-1-0.33c-0.18-0.32-0.03-0.7,0.33-0.85
	C35.76,1.36,36.2,1.51,36.39,1.83z"/>
<path class="st1" d="M34.53,5.06c0.72,1.1,2.05,1.53,3.1,1.1c1.22-0.49,1.47-1.88,1.48-1.96"/>
</svg>
