<?xml version="1.0" encoding="UTF-8" standalone="no"?>
<svg
   xmlns:dc="http://purl.org/dc/elements/1.1/"
   xmlns:cc="http://creativecommons.org/ns#"
   xmlns:rdf="http://www.w3.org/1999/02/22-rdf-syntax-ns#"
   xmlns:svg="http://www.w3.org/2000/svg"
   xmlns="http://www.w3.org/2000/svg"
   xmlns:sodipodi="http://sodipodi.sourceforge.net/DTD/sodipodi-0.dtd"
   xmlns:inkscape="http://www.inkscape.org/namespaces/inkscape"
   inkscape:version="1.0 (4035a4fb49, 2020-05-01)"
   height="405.67001"
   width="375.57001"
   sodipodi:docname="ram.svg"
   xml:space="preserve"
   viewBox="0 0 375.57001 405.67001"
   y="0px"
   x="0px"
   id="Layer_1"
   version="1.1"><metadata
   id="metadata29"><rdf:RDF><cc:Work
       rdf:about=""><dc:format>image/svg+xml</dc:format><dc:type
         rdf:resource="http://purl.org/dc/dcmitype/StillImage" /><dc:title></dc:title></cc:Work></rdf:RDF></metadata><defs
   id="defs27" /><sodipodi:namedview
   fit-margin-bottom="0"
   fit-margin-right="0"
   fit-margin-left="0"
   fit-margin-top="0"
   inkscape:current-layer="Layer_1"
   inkscape:window-maximized="1"
   inkscape:window-y="66"
   inkscape:window-x="-8"
   inkscape:cy="207.57675"
   inkscape:cx="313.04822"
   inkscape:zoom="0.76781797"
   inkscape:snap-grids="false"
   showgrid="false"
   id="namedview25"
   inkscape:window-height="878"
   inkscape:window-width="1600"
   inkscape:pageshadow="2"
   inkscape:pageopacity="0"
   guidetolerance="10"
   gridtolerance="10"
   objecttolerance="10"
   borderopacity="1"
   bordercolor="#666666"
   pagecolor="#ffffff" />
<style
   id="style2"
   type="text/css">
	.st0{fill:#5C607C;}
	.st1{fill:#E0C794;}
	.st2{fill:#FFE5A9;}
	.st3{fill:#A9ADC9;}
	.st4{fill:#FFEFCB;}
	.st5{fill:#C5C8E5;}
</style>
<ellipse
   style="stroke-width:1.00002"
   id="ellipse4"
   ry="5.9301305"
   rx="8.6001902"
   cy="51.473339"
   cx="-113.75171"
   class="st0"
   transform="rotate(-77.655141)" />
<polygon
   transform="translate(-105.28,-177.9)"
   id="polygon6"
   points="204.55,565.6 213.63,567.11 237.82,565.6 234.8,533.84 238.58,461.99 200.77,457.45 198.5,520.98 "
   class="st1" />
<polygon
   transform="translate(-105.28,-177.9)"
   id="polygon8"
   points="394.69,553.71 395.64,566.57 409,569.59 428.08,565.81 428.08,503.04 435.71,464.48 400.41,460.69 395.64,531.03 "
   class="st1" />
<path
   id="path10"
   d="m 375.57,185.03 -1.4,-6.53 -7,-5.13 -8.4,0.93 -9.52,8.5 c -2.98,-2.21 -6.49,-3.65 -10.2,-4.15 l -14.55,-1.96 -95.35,-3 -31.91,0.38 -22.52,4.5 -36.99,1.47 -64.37,45.08 2.63,29.28 1.5,5.63 5.63,12.01 10.14,10.51 9.39,8.63 24.78,4.13 7.51,3 -1.5,43.55 0.38,22.52 2.25,28.53 1.57,11.06 7.81,1.7 14.27,-0.38 9.92,-1.33 -1.67,-56.11 2.63,-44.3 16.14,1.13 25.9,1.13 27.41,-1.88 46.55,3.75 22.15,-1.5 15.39,-1.13 5.26,9.76 0.46,25.15 -1.59,18.4 0.38,21.4 1.21,23.95 14.05,1.79 15.62,-3.12 -0.47,-20.36 0.75,-21.77 1.83,-20.28 -0.05,-31.86 3.48,-49.6 0.75,-36.42 -3.5,-21.44 c -0.14,-0.85 -0.35,-1.68 -0.59,-2.5 l 9.68,-5.21 z"
   class="st2" />
<polygon
   transform="translate(-105.28,-177.9)"
   id="polygon12"
   points="140.82,235.92 141.2,214.02 146.2,195.58 152.35,184.05 165.79,178.67 176.94,177.9 193.46,180.59 213.06,190.2 245.72,217.09 258.4,253.98 255.32,268.2 239.57,286.64 155.87,279.66 143.02,249.36 "
   class="st3" />
<polygon
   transform="translate(-105.28,-177.9)"
   id="polygon14"
   points="107.49,328.74 105.28,338.95 105.94,347.82 111.27,357.58 118.36,362.24 140.55,362.46 177.38,357.58 175.35,401.39 176.98,408.32 182.28,411.17 187.57,403.43 190.43,412.39 192.46,417.69 196.54,421.77 203.06,417.28 206.32,408.73 206.73,397.32 211.21,411.58 216.91,413.21 223.03,410.76 225.06,402.61 229.14,415.65 234.44,423.4 240.55,423.4 247.48,418.1 249.51,408.32 250.74,397.32 253.18,407.1 257.66,416.47 263.78,416.06 269.07,411.58 271.11,403.43 278.45,409.13 282.93,406.69 284.56,398.13 284.56,386.31 282.93,366.35 276.82,320.3 260.52,282.4 244.22,265.69 221.8,259.17 193.28,259.58 168.42,261.21 151.31,269.36 141.96,284.54 131.09,298.61 117.67,315.23 "
   class="st4" />
<path
   id="path16"
   d="m 71.08,79.5 2.43,-24.25 c 0.63,-6.3 3.29,-12.23 7.59,-16.88 l 9.81,-10.63 20.46,-11.43 c 1.87,-1.04 3.9,-1.76 6.01,-2.11 l 27.83,-4.64 c 1.22,-0.2 2.46,-0.17 3.67,0.08 l 36.52,7.83 20.2,12.3 c 7.28,4.43 12.72,11.35 15.32,19.47 l 4.63,14.52 c 1.06,3.33 1.38,6.86 0.94,10.33 l -4.52,35.05 c -0.18,1.42 -0.54,2.81 -1.06,4.14 l -10.17,26.07 -30.13,9.59 -25.57,-4.36 -8.29,-11.06 -3.95,-14.61 3.57,-18.59 3.65,-0.87 3.01,2.26 v 7.03 l 5.28,16.33 11.05,2.26 10.05,-2.26 6.03,-11.31 1.18,-29.61 -16.19,-15.4 -22.11,-5.13 -13.42,5.13 -12.64,15.4 -5.92,16.58 v 0 c -2.48,2.97 -6.24,4.57 -10.1,4.28 l -4.51,-0.33 -15,-6.71 -11.85,-9.08 -3.95,-5.13 0.1,-3.71 c 0.02,-0.19 0.03,-0.37 0.05,-0.55 z"
   class="st5" />
<ellipse
   id="ellipse18"
   ry="10.34"
   rx="7.0999999"
   cy="131.86002"
   cx="56.790009"
   class="st0" />
<ellipse
   style="stroke-width:0.99999"
   id="ellipse20"
   ry="1.1299891"
   rx="4.5199566"
   cy="123.54096"
   cx="-107.38062"
   transform="rotate(-45)" />
<ellipse
   style="stroke-width:1.00001"
   id="ellipse22"
   ry="3.3400455"
   rx="1.100015"
   cy="137.2139"
   cx="-88.23233"
   transform="rotate(-33.717082)" />
</svg>
