<?xml version="1.0" encoding="utf-8"?>
<!-- Generator: Adobe Illustrator 23.1.1, SVG Export Plug-In . SVG Version: 6.00 Build 0)  -->
<svg version="1.1" id="Layer_1" xmlns="http://www.w3.org/2000/svg" xmlns:xlink="http://www.w3.org/1999/xlink" x="0px" y="0px"
	 viewBox="0 0 306.1 306.1" style="enable-background:new 0 0 306.1 306.1;" xml:space="preserve">
<style type="text/css">
	.st0{fill:#BE9145;}
	.st1{fill:#BF9146;}
	.st2{fill:#FFFFFF;}
	.st3{fill:#013651;}
	.st4{fill:#FFD029;}
	.st5{fill:#F0A31F;}
	.st6{fill:none;stroke:#000000;stroke-width:0.75;stroke-miterlimit:10;}
</style>
<g id="XMLID_2_">
	<g>
		<g id="XMLID_1_">
			<g>
				<path class="st0" d="M131.2,86.2l0.1-0.1c-10.3,11.5-18.9,24.4-25.9,37.8h0.1c0.7,0.2,1.4,0.4,2,0.6l0.3-0.2c0,0,0,0-0.1,0.1
					l-0.3,0.2c-0.6-0.2-1.3-0.4-2-0.6h-0.1c0.4-0.8,0.9-1.7,1.3-2.5c5-9.2,10.7-18.1,17.2-26.4C126.2,92,128.6,89.1,131.2,86.2z"/>
				<path class="st0" d="M96.1,153.9L96.1,153.9c1.9-3.8,4-7.6,6-11.3c3.1-5.7,6.3-11.7,6.1-18l-0.1-0.3c1.3-1.7,2.4-3.2,3.5-4.7
					c0.1-0.1,0.1-0.1,0.2-0.2c11.1-14.7,22.1-29.4,33.5-43.8c0.6-0.8,1.2-1.5,1.8-2.2c0.3-0.3,0.5-0.7,0.8-1c0.8-1,1.6-1.9,2.4-2.9
					c0,0,0,0,0-0.1l0,0c-0.3-0.1-0.8-0.2-1.2-0.4c0.3-0.2,0.6-0.5,0.8-0.7c1.8-1.5,3.6-2.8,5.6-4.1c3-1.9,4.5-2.8,5.6-2.8
					c-1.2,0.1-2.6,0.9-5.5,2.8c-2,1.3-3.8,2.6-5.6,4.1l0.1,0.1c0,0,0,0-0.1,0c0.1,0.1,0.1,0.2,0.2,0.2c-0.1-0.1-0.1-0.1-0.2-0.1
					c-0.3,0.2-0.5,0.4-0.7,0.5c0.5,0.2,0.9,0.3,1.4,0.5l0,0l0,0l0,0l0,0l0,0l0,0c-13.3,16.3-25.8,33.1-38.4,49.9
					c-1.3,1.7-2.5,3.3-3.7,4.9l0.2,0.2c0.1,6.3-3,12.3-6.1,18c-2,3.7-4.1,7.5-6.1,11.2c-1.3,2.3-2.6,4.6-3.8,6.9h-0.3
					c0.3-0.5,0.5-1,0.8-1.4c0-0.1,0.1-0.1,0.1-0.2c0.6-1.2,1.3-2.3,1.9-3.4c0,0,0.1-0.1,0.1-0.2C95.6,154.9,95.8,154.4,96.1,153.9
					L96.1,153.9z"/>
				<path class="st1" d="M289.1,199.8c4.5,0,9,0,13.5,0c-0.2,1.2-0.6,2.6-1.8,3.2c-0.1,0.1-0.4,0.1-0.5,0.2c0,0-0.1,0-0.2,0
					s-0.1,0-0.2,0s-0.3,0-0.4,0c-0.9-0.1-1.7-0.6-2.6-1.1c-2.1-1.2-4.4-1.8-6.8-1.9c-0.3,0-0.6,0-0.9,0h-0.1V199.8z"/>
				<path class="st1" d="M296.9,202.1c0.9,0.4,1.7,0.9,2.6,1.1c-1-0.1-1.9-0.6-2.7-1.1c-2.1-1.1-4.3-1.7-6.7-1.9
					C292.5,200.3,294.8,200.9,296.9,202.1z"/>
				<path class="st1" d="M288.4,199.3h-0.1c-1.2-6.2-2.4-12.3-3.7-18.4h0.1C286,187,287.2,193.1,288.4,199.3z"/>
				<path class="st1" d="M283.8,181.1l0.8-0.2c1.3,6.1,2.5,12.2,3.7,18.4l-5.5,0.1c-0.3-0.4-0.5-0.8-0.7-1.3c0,0,0,0,0-0.1
					s-0.1-0.2-0.1-0.3s0-0.1-0.1-0.1c0-0.2-0.1-0.3-0.1-0.6c-0.5-2.4-1-4.8-1.5-7.1c-0.5-2.4-1-4.7-1.5-7.1l0.1-0.1h0.1
					c0-0.2-0.1-0.4-0.1-0.6c0.2-0.1,0.4-0.1,0.6-0.1c0.4-0.1,0.8-0.1,1.3-0.2c0.2,0,0.4-0.1,0.6-0.1
					C282.1,181.4,283,181.2,283.8,181.1z"/>
				<path class="st2" d="M284.7,180.9h-0.1c-0.9-4.3-1.9-8.5-3-12.7h0.1C282.8,172.4,283.8,176.6,284.7,180.9z"/>
				<path class="st3" d="M276,169.6v-0.1c0.9-0.2,1.7-0.3,2.5-0.5c0.4-0.1,0.9-0.2,1.3-0.3c0.1,0,0.3,0,0.4-0.1l0,0
					c0.2,0,0.4-0.1,0.6-0.1c0.1,0,0.1,0,0.2-0.1l0.5-0.1v-0.1l0,0c1.1,4.2,2.1,8.4,3,12.7l-0.8,0.2c-0.8,0.1-1.7,0.3-2.5,0.5
					c-0.6,0.1-1.2,0.2-1.8,0.3c-0.2,0-0.4,0.1-0.7,0.1c-0.7-3.1-1.3-6.1-2-9.2c-0.1-0.1-0.1-0.2-0.1-0.3
					C276.5,171.6,276.2,170.5,276,169.6z"/>
				<path class="st1" d="M90.8,160.7h0.7l0,0l0,0c0.1,0.1,0.3,0.1,0.4,0.1H92h0.2c0.3,13.8-3.8,27.3-8.2,40.6l23.8-0.3
					c41.2-11.7,84.2-18.2,127.4-19.3c9.4-0.2,18.8-0.2,28.2,0.1c5,0.2,10.1,0.4,15.1,0.7l-0.2,0.1c0.1,0,0.1,0,0.2,0v-0.1l0,0h0.1
					l0,0l0,0v0.1l0,0c0.5,2.3,1,4.7,1.5,7.1c0.5,2.4,1,4.8,1.5,7.1c0,0.2,0.1,0.4,0.1,0.6c0,0.1,0.1,0.3,0.1,0.4c0,0,0,0,0,0.1
					c0.1,0.3,0.3,0.6,0.4,0.9c0.1,0.2,0.2,0.4,0.3,0.5c0.1,0.1,0.3,0.3,0.5,0.4c0.2,0.1,0.4,0.1,0.5,0.2c0,0,0.1,0.1,0.2,0.1h-0.1
					h-0.1c-3.3-0.2-6.4-0.4-9.6-0.6c-0.5,0-1.1-0.1-1.6-0.1h1.6l8.5-0.1c-0.1-0.1-0.2-0.2-0.2-0.2c-0.2-0.4-0.4-0.9-0.5-1.3
					c-0.1-0.3-0.2-0.6-0.3-0.8c-1-4.8-2.1-9.4-3.1-14.2c-0.1,0-0.1,0-0.2,0c-5.1-0.3-10.1-0.6-15.1-0.7c-9.4-0.3-18.8-0.3-28.2-0.1
					c-9.5,0.2-18.9,0.7-28.3,1.5c-1.3,0.1-2.7,0.2-4,0.3c-10.8,0.9-21.5,2.2-32.2,3.8c-21.2,3.2-42.2,7.7-62.7,13.6l0,0h-0.1
					c-0.1,0-0.2,0.1-0.4,0.1l-23.5,0.3h-0.2c4.4-13.2,8.5-26.8,8.2-40.6h-0.3c-0.4-0.1-0.8-0.3-1.2-0.4l-0.3-0.1
					c1.5-4.9,3.2-9.7,5.1-14.4c0.1-0.2,0.2-0.4,0.3-0.7c2-5.2,4.4-10.4,6.8-15.5c0.1-0.2,0.2-0.5,0.3-0.7c0,0,0,0,0-0.1
					c0.1-0.1,0.1-0.2,0.2-0.4v0.1c-0.1,0.1-0.1,0.2-0.2,0.4c-2.6,5.6-5.1,11.2-7.3,16.8c-1.9,4.7-3.6,9.5-5.1,14.4l0.3,0.1h0.1h0.1
					L90.8,160.7z"/>
				<path class="st1" d="M282.7,199.4l-8.5,0.1c-0.5,0-1.1-0.1-1.6-0.1c-17.7-0.8-35.4-0.6-53,0.6c-0.5,0-1.1,0.1-1.6,0.1
					l-110.1,1.3c3.9-1.1,7.7-2.1,11.6-3.1c18.2-4.7,36.6-8.4,55.2-11.1c9.3-1.3,18.7-2.4,28-3.2c1.3-0.1,2.6-0.2,4-0.3
					c9.4-0.8,18.8-1.3,28.3-1.5c9.4-0.2,18.8-0.2,28.2,0.1c5,0.1,10,0.4,15.1,0.7c0.1,0,0.1,0,0.2,0c1,4.8,2.1,9.4,3.1,14.2
					c0.1,0.2,0.2,0.5,0.3,0.8c0.1,0.4,0.3,0.9,0.5,1.3C282.5,199.2,282.6,199.3,282.7,199.4z"/>
				<path class="st1" d="M282,197.7c0,0.1,0,0.2,0.1,0.3C282,197.9,282,197.7,282,197.7C282,197.6,282,197.6,282,197.7z"/>
				<path class="st1" d="M281.9,197.6c0-0.2-0.1-0.4-0.1-0.6C281.9,197.2,281.9,197.4,281.9,197.6z"/>
				<path class="st1" d="M281.6,168.2C281.6,168.2,281.6,168.3,281.6,168.2l-0.5,0.2c-0.1,0-0.1,0-0.2,0.1c-0.2,0-0.4,0.1-0.6,0.1
					c-0.1,0-0.3,0.1-0.5,0.1c-0.4,0.1-0.9,0.2-1.3,0.3c-0.8,0.2-1.7,0.3-2.5,0.5v-0.1l0,0c1.5-0.2,2.9-0.6,4.3-0.9
					c0.3-0.1,0.6-0.1,0.9-0.2L281.6,168.2z"/>
				<path class="st1" d="M281,166.2c0.2,0.7,0.4,1.3,0.6,2l-0.4,0.1c-0.3,0.1-0.6,0.1-0.9,0.2c-1.1,0.2-2.2,0.4-3.3,0.7
					c-0.3,0.1-0.7,0.1-1,0.2c0-0.1,0-0.1,0-0.1c-7.8-6.9-11.5-16.7-15-26.1c-4-10.7-7.9-21.4-11.9-32.1l0.2-0.1
					c0.1,0.1,0.1,0.2,0.1,0.2s0,0.1,0.1,0.1c0.8-0.5,1.6-1,2.4-1.6l0.6-0.5c7.1,8.4,13.2,17.4,17.7,26.8
					C274.8,145.7,278.2,155.9,281,166.2z"/>
				<path class="st1" d="M281.3,181.6c-0.2,0-0.4,0.1-0.6,0.1s-0.3,0.1-0.5,0.1C280.5,181.8,280.9,181.7,281.3,181.6z"/>
				<path class="st2" d="M280.2,181.8c0.2,0,0.3-0.1,0.5-0.1c-0.4,0.1-0.9,0.2-1.3,0.2c0.2-0.1,0.4-0.1,0.6-0.1
					C280.1,181.8,280.1,181.8,280.2,181.8z"/>
				<path class="st1" d="M280.3,168.6L280.3,168.6c-0.2,0-0.3,0.1-0.5,0.1C280,168.6,280.2,168.6,280.3,168.6z"/>
				<path class="st2" d="M280,181.9c-0.2,0-0.4,0.1-0.6,0.1s-0.4,0.1-0.6,0.1V182c0.2,0,0.4-0.1,0.7-0.1
					C279.6,181.9,279.8,181.9,280,181.9z"/>
				<path class="st1" d="M278.7,182.8c0.5,2.4,1,4.7,1.5,7.1C279.7,187.5,279.2,185.1,278.7,182.8L278.7,182.8z"/>
				<path class="st1" d="M278.9,182.7h-0.1v-0.1l0,0c0-0.1,0-0.1,0-0.2c0-0.1,0-0.2,0-0.3l0,0h0.1
					C278.8,182.3,278.9,182.5,278.9,182.7z"/>
				<path class="st1" d="M278.8,182.6L278.8,182.6C278.8,182.7,278.8,182.6,278.8,182.6L278.8,182.6z"/>
				<polygon class="st1" points="278.8,182 278.8,182.1 278.7,182.1 				"/>
				<path class="st1" d="M278.8,182l-0.1,0.1C278.7,182.1,278.7,182.1,278.8,182L278.8,182z"/>
				<path class="st1" d="M278.8,182.6C278.8,182.6,278.8,182.7,278.8,182.6C278.8,182.7,278.8,182.6,278.8,182.6L278.8,182.6z"/>
				<path class="st1" d="M278.8,182L278.8,182c-0.1,0.1-0.1,0.1-0.1,0.1c-0.5-2.1-0.9-4.2-1.4-6.2c-0.2-1.1-0.5-2.1-0.7-3.2l0,0
					c0-0.1,0-0.1-0.1-0.2c-0.2-1-0.4-2-0.6-3c0.1,0,0.1,0.1,0.1,0.1c0.2,0.9,0.5,2,0.7,2.9c0,0.1,0,0.2,0.1,0.3
					C277.5,175.9,278.1,178.9,278.8,182z"/>
				<path class="st1" d="M278.8,182.6L278.8,182.6c-0.1,0-0.1-0.1-0.1-0.1l0,0c0-0.1,0-0.2-0.1-0.3h0.1c0,0.1,0,0.1,0,0.2
					C278.8,182.5,278.8,182.5,278.8,182.6z"/>
				<path class="st1" d="M278.8,182.6L278.8,182.6C278.7,182.7,278.7,182.6,278.8,182.6c-0.1,0-0.1-0.1-0.1-0.1
					C278.7,182.5,278.7,182.6,278.8,182.6z"/>
				<path class="st1" d="M278.7,182.1c0,0.1,0,0.2,0,0.3C278.7,182.3,278.7,182.2,278.7,182.1L278.7,182.1
					C278.6,182.2,278.6,182.2,278.7,182.1C278.6,182.2,278.7,182.1,278.7,182.1z"/>
				<path class="st1" d="M278.7,182.1L278.7,182.1C278.7,182.1,278.6,182.2,278.7,182.1C278.6,182.2,278.6,182.1,278.7,182.1
					C278.6,182.1,278.7,182.1,278.7,182.1z"/>
				<path class="st1" d="M278.7,182.6C278.7,182.6,278.7,182.7,278.7,182.6L278.7,182.6c0-0.1-0.1-0.2-0.1-0.2
					S278.6,182.5,278.7,182.6C278.7,182.5,278.7,182.5,278.7,182.6C278.7,182.5,278.7,182.6,278.7,182.6z"/>
				<path class="st1" d="M278.7,182.1L278.7,182.1c-0.1,0-0.1-0.1-0.1-0.1v-0.1c-0.4-2-0.8-4-1.3-6
					C277.8,177.9,278.2,180,278.7,182.1z"/>
				<path class="st1" d="M278.6,182.1L278.6,182.1C278.7,182.1,278.6,182.1,278.6,182.1L278.6,182.1z"/>
				<path class="st1" d="M249.4,110.9l-0.3,0.2l0,0l-0.1,0.1c0,0,0,0,0-0.1L249.4,110.9l-0.4,0.2l0,0l-0.1,0.1
					c4,10.7,7.9,21.4,11.9,32.1c3.5,9.4,7.2,19.2,15,26.1v0.1c0.2,1,0.4,2.1,0.7,3.1c0.1,0.1,0.1,0.2,0.1,0.3c0.7,3.1,1.4,6.2,2,9.2
					v0.1v0.2c0,0.1,0.1,0.2,0.1,0.3l0,0h-0.1c-5-0.3-10.1-0.5-15.1-0.7c-9.4-0.3-18.8-0.3-28.2-0.1c-43.2,1.1-86.2,7.6-127.4,19.3
					l-23.8,0.3c4.4-13.3,8.5-26.8,8.2-40.6h-0.2H92c-0.2,0-0.3-0.1-0.4-0.1h0.6l-0.6-0.1l0.8,0.1c0-0.1,0.1-0.1,0.1-0.2h0.3
					c1.2-2.3,2.5-4.6,3.8-6.9c2-3.7,4.1-7.5,6.1-11.2c3.1-5.7,6.2-11.7,6.1-18l-0.2-0.2c1.2-1.6,2.4-3.2,3.7-4.9
					c12.7-16.8,25.1-33.6,38.4-49.9l0,0h0.1c3.5,0.1,6.8,0.3,10.3,0.4c1,0,1.9,0,2.8,0.1c0.1,0,0.1,0,0.1,0c0.3,0,0.6,0,0.8,0
					c0.3,0,0.6,0,0.9,0c0.1,0,0.3,0,0.4,0h0.1c0.2,0,0.4,0,0.6,0h0.1c0.2,0,0.4,0,0.5,0h0.1c0.2,0,0.5,0,0.7,0
					c0.6,0,1.2-0.1,1.9-0.2h0.1c0.2,0,0.5-0.1,0.7-0.1c1.4-0.3,2.8-0.7,4.1-1.2c1.4-0.5,2.7-1.3,3.9-2.2v-0.1v-0.1
					c0.1-0.1,0.2-0.1,0.3-0.1c0-0.1,0-0.1,0.1-0.1s0.1,0,0.1-0.1c-0.1,0.1-0.1,0.1-0.1,0v-0.1l0,0v-0.1v-0.1c0-0.1,0-0.2,0-0.3
					c0.2,0.1,0.3,0.1,0.5,0.1l0,0l0.1,0.2c1,0.8,1.9,1.6,2.9,2.4c0.9,0.7,1.8,1.5,2.8,2.2c1,0.8,2.1,1.6,3.1,2.3
					c13.2,9.6,28.3,16.6,44,22.5c0.1,0,0.1,0,0.1,0s0,0,0.1,0c-0.1,0.1-0.1,0.1-0.1,0.1c1.7,1,2.6,2.8,4.3,3.8
					c0.1,0.2,0.2,0.3,0.4,0.4l0,0c0.1,0.1,0.2,0.3,0.4,0.4c0.2,0.2,0.5,0.5,0.7,0.7l0,0c0.5,0.5,1,0.9,1.5,1.4
					C243.5,104.6,247.1,107.5,249.4,110.9C249.4,110.8,249.4,110.9,249.4,110.9L249.4,110.9L249.4,110.9z"/>
				<path class="st1" d="M278.7,182.5c0-0.1,0-0.1-0.1-0.1l0,0v-0.2l0,0C278.6,182.3,278.7,182.4,278.7,182.5z"/>
				<path class="st1" d="M278.6,182.4c0,0.1,0.1,0.2,0.1,0.3C278.7,182.6,278.6,182.5,278.6,182.4L278.6,182.4z"/>
				<path class="st1" d="M278.6,182.2L278.6,182.2L278.6,182.2L278.6,182.2z"/>
				<path class="st1" d="M278.6,182.1C278.6,182.1,278.6,182.2,278.6,182.1C278.6,182.2,278.6,182.2,278.6,182.1L278.6,182.1
					L278.6,182.1z"/>
				<path class="st1" d="M278.6,182.1L278.6,182.1L278.6,182.1L278.6,182.1z"/>
				<path class="st1" d="M278.6,182v0.1l0,0c-0.6-3-1.3-6.1-2-9.2c0-0.1,0-0.2-0.1-0.3c-0.1-0.5-0.2-1-0.3-1.6
					c0.1,0.5,0.2,0.9,0.3,1.3c0,0,0,0,0,0.1s0,0.1,0.1,0.2l0,0c0.2,1.1,0.5,2.1,0.7,3.2c0.5,2,0.9,4.1,1.3,6V182z"/>
				<path class="st1" d="M278.6,182.7L278.6,182.7c-0.1,0.1-0.1,0.1-0.2,0.1L278.6,182.7L278.6,182.7z"/>
				<path class="st1" d="M280.3,168.5c-1,0.2-2.2,0.4-3.3,0.7C278.1,168.9,279.2,168.7,280.3,168.5z"/>
				<path class="st1" d="M277,169.2c1.1-0.2,2.2-0.5,3.3-0.7c-1.4,0.3-2.8,0.7-4.3,0.9C276.3,169.3,276.7,169.2,277,169.2z"/>
				<path class="st1" d="M276,169.5c0.9-0.2,1.7-0.4,2.5-0.5C277.7,169.1,276.9,169.3,276,169.5L276,169.5z"/>
				<path class="st1" d="M274.2,145.1c2.4,6.2,4.5,12.6,6.3,19.1C278.7,157.7,276.6,151.4,274.2,145.1z"/>
				<path class="st1" d="M276.6,172.7c0-0.1,0-0.1-0.1-0.2C276.6,172.5,276.6,172.6,276.6,172.7z"/>
				<path class="st1" d="M276.5,172.5C276.5,172.4,276.5,172.4,276.5,172.5c-0.1-0.5-0.2-1-0.4-1.4c0-0.3-0.1-0.5-0.2-0.8
					s-0.1-0.5-0.2-0.8h0.1C276.1,170.5,276.3,171.5,276.5,172.5z"/>
				<path class="st1" d="M276.2,171.1c0.1,0.5,0.2,1.1,0.3,1.6c-0.3-1-0.5-2.1-0.7-3.1c0.1,0.2,0.1,0.5,0.2,0.8
					C276.1,170.5,276.1,170.8,276.2,171.1z"/>
				<path class="st1" d="M276.2,171.1c-0.1-0.3-0.1-0.5-0.2-0.8C276.1,170.5,276.1,170.8,276.2,171.1z"/>
				<path class="st1" d="M276,169.5v0.1l-0.1-0.1H276z"/>
				<path class="st1" d="M276,169.5L276,169.5h-0.1l0,0c0,0,0,0,0-0.1l0,0C275.9,169.4,276,169.4,276,169.5
					C276,169.4,276,169.4,276,169.5C276,169.4,276,169.4,276,169.5z"/>
				<path class="st1" d="M276,170.3c-0.1-0.3-0.1-0.5-0.2-0.8l0,0C275.9,169.8,276,170,276,170.3z"/>
				<path class="st1" d="M275.8,169.3C275.8,169.3,275.8,169.2,275.8,169.3c-0.3-0.3-0.6-0.5-0.8-0.8c-0.7-0.7-1.4-1.4-2-2.1
					c-0.6-0.7-1.2-1.4-1.8-2.2c-0.5-0.7-1.1-1.5-1.6-2.2c-0.4-0.5-0.7-1.1-1-1.6c-3.3-5.4-5.5-11.4-7.7-17.3
					c-4-10.7-7.9-21.3-11.9-32l0.1-0.1c4,10.7,7.9,21.4,11.9,32.1c3.5,9.4,7.2,19.2,15,26.1c0,0,0,0,0,0.1h-0.1
					C275.9,169.4,275.8,169.4,275.8,169.3L275.8,169.3z"/>
				<path class="st1" d="M275.9,169.5L275.9,169.5L275.9,169.5C275.9,169.5,275.9,169.4,275.9,169.5
					C275.9,169.4,275.9,169.4,275.9,169.5C275.9,169.4,275.9,169.5,275.9,169.5z"/>
				<path class="st1" d="M275.9,169.4L275.9,169.4L275.9,169.4C275.8,169.4,275.8,169.4,275.9,169.4L275.9,169.4L275.9,169.4z"/>
				<path class="st1" d="M275.9,169.5L275.9,169.5L275.9,169.5C275.8,169.5,275.8,169.5,275.9,169.5
					C275.8,169.5,275.8,169.4,275.9,169.5L275.9,169.5z"/>
				<path class="st1" d="M275.9,169.4L275.9,169.4L275.9,169.4C275.8,169.4,275.8,169.4,275.9,169.4
					C275.8,169.4,275.8,169.4,275.9,169.4C275.8,169.4,275.8,169.4,275.9,169.4C275.8,169.4,275.9,169.4,275.9,169.4z"/>
				<path class="st1" d="M275.9,169.4C275.9,169.4,275.9,169.5,275.9,169.4L275.9,169.4L275.9,169.4
					C275.8,169.4,275.8,169.4,275.9,169.4z"/>
				<path class="st1" d="M275.9,169.4C275.8,169.4,275.8,169.4,275.9,169.4C275.8,169.4,275.8,169.4,275.9,169.4
					C275.8,169.4,275.8,169.4,275.9,169.4L275.9,169.4C275.8,169.4,275.8,169.4,275.9,169.4z"/>
				<path class="st1" d="M275.8,169.5L275.8,169.5L275.8,169.5L275.8,169.5z"/>
				<path class="st1" d="M275.8,169.4C275.8,169.4,275.8,169.5,275.8,169.4C275.8,169.5,275.8,169.5,275.8,169.4L275.8,169.4
					L275.8,169.4L275.8,169.4L275.8,169.4z"/>
				<path class="st1" d="M275.8,169.4L275.8,169.4L275.8,169.4L275.8,169.4z"/>
				<path class="st1" d="M275.8,169.4L275.8,169.4L275.8,169.4L275.8,169.4z"/>
				<path class="st1" d="M275.8,169.4L275.8,169.4L275.8,169.4L275.8,169.4L275.8,169.4z"/>
				<path class="st1" d="M275.8,169.4L275.8,169.4L275.8,169.4L275.8,169.4L275.8,169.4L275.8,169.4z"/>
				<path class="st1" d="M275.8,169.4L275.8,169.4L275.8,169.4L275.8,169.4C275.8,169.3,275.8,169.3,275.8,169.4z"/>
				<path class="st1" d="M275.8,169.4L275.8,169.4c-7.8-6.9-11.5-16.7-15-26.1c-4-10.7-7.9-21.4-11.9-32.1l0.1-0.1c0,0,0,0,0,0.1
					l0,0c4,10.7,7.9,21.4,11.9,32.1c2.1,5.8,4.4,11.8,7.7,17.2c0.3,0.5,0.7,1.1,1,1.6c0.5,0.8,1,1.5,1.6,2.2
					c0.6,0.8,1.2,1.5,1.8,2.2c0.6,0.7,1.3,1.4,2,2.1c0.2,0.2,0.5,0.5,0.7,0.7C275.8,169.3,275.8,169.3,275.8,169.4z"/>
				<path class="st1" d="M275.8,169.3L275.8,169.3L275.8,169.3C275.8,169.2,275.8,169.3,275.8,169.3z"/>
				<path class="st1" d="M274.2,199.5h-1.6c-17.7-0.8-35.4-0.6-53,0.6l0,0H218c0.5,0,1.1-0.1,1.6-0.1c17.6-1.2,35.3-1.4,53-0.6
					C273.1,199.4,273.7,199.5,274.2,199.5z"/>
				<path class="st1" d="M273,166.5c0.6,0.7,1.3,1.4,2,2.1C274.3,167.9,273.6,167.2,273,166.5z"/>
				<path class="st2" d="M272.6,199.5l-52.9,0.6h-0.1C237.2,198.9,254.9,198.7,272.6,199.5z"/>
				<path class="st1" d="M271.2,164.3c0.6,0.8,1.2,1.5,1.8,2.2C272.4,165.8,271.8,165.1,271.2,164.3z"/>
				<path class="st1" d="M271.2,164.3c-0.6-0.7-1.1-1.5-1.6-2.2C270.1,162.8,270.6,163.6,271.2,164.3z"/>
				<path class="st1" d="M260.9,143.2c2.2,5.9,4.4,11.9,7.7,17.3c-3.3-5.4-5.5-11.4-7.7-17.2c-4-10.7-7.9-21.4-11.9-32.1l0,0
					C253,121.8,256.9,132.5,260.9,143.2z"/>
				<path class="st1" d="M264.6,125.5c1.7,2.8,3.3,5.6,4.8,8.5c-4.4-8.8-10.2-17.2-16.8-25h0.1c0,0,0,0,0,0.1
					c3.5,4.2,6.8,8.5,9.7,12.9l0.1,0.1c0.4,0.6,0.7,1.1,1.1,1.7C263.9,124.4,264.2,124.9,264.6,125.5z"/>
				<path class="st1" d="M263.5,123.8c-0.4-0.6-0.7-1.1-1.1-1.7C262.8,122.7,263.2,123.2,263.5,123.8z"/>
				<path class="st1" d="M262.3,122c-2.9-4.4-6.2-8.7-9.7-12.9c0-0.1,0-0.1,0-0.1C256.1,113.2,259.4,117.5,262.3,122z"/>
				<path class="st2" d="M252.6,109h-0.1c0,0,0,0,0-0.1C252.5,108.9,252.5,108.9,252.6,109L252.6,109z"/>
				<path class="st2" d="M252.5,108.9L252.5,108.9L252.5,108.9c-0.6-0.8-1.3-1.5-1.9-2.2C251.3,107.5,251.9,108.2,252.5,108.9z"/>
				<path class="st2" d="M250.6,106.7c0.6,0.7,1.2,1.4,1.9,2.2h-0.1c-1.2-1.5-2.5-2.9-3.8-4.3c-2.3-2.6-4.7-5.1-7.2-7.5
					c-0.2-0.2-0.5-0.5-0.7-0.7c-1.4-1.4-2.8-2.7-4.2-4c2.8,2.6,5.6,5.3,8.3,8C246.8,102.5,248.8,104.6,250.6,106.7z"/>
				<path class="st2" d="M252.5,109l-0.6,0.6c0,0-0.1,0.1-0.2,0.1c-0.6,0.4-1.2,0.8-1.8,1.2c-0.2,0.1-0.3,0.2-0.4,0.3c0,0,0,0,0-0.1
					l0,0c0.8-0.5,1.6-1,2.3-1.6l0,0L252.5,109z"/>
				<path class="st3" d="M248.6,104.6c1.3,1.4,2.5,2.8,3.8,4.3l-0.6,0.6l0,0c-0.8,0.6-1.6,1.1-2.3,1.6l0,0c-0.1,0-0.1-0.1-0.1-0.1
					l0,0c0-0.1,0-0.1,0-0.1l0,0l0,0l0.1-0.1c0-0.1,0-0.1,0-0.1c-2.8-4.2-7.6-7.6-11.5-11.4c-0.3-0.3-0.6-0.5-0.8-0.8
					c-1.7-1-2.6-2.8-4.2-3.8c1-0.9,1.9-1.8,2.7-2.5l0.3-0.3c0.2,0.2,0.4,0.3,0.5,0.5c1.4,1.3,2.8,2.6,4.2,4c0.2,0.2,0.5,0.4,0.7,0.7
					C243.9,99.5,246.3,102,248.6,104.6z"/>
				<path class="st1" d="M249.9,110.9c0.6-0.4,1.2-0.8,1.8-1.2C251.1,110.2,250.5,110.6,249.9,110.9z"/>
				<path class="st2" d="M249.5,111.1C249.5,111.2,249.5,111.2,249.5,111.1C249.5,111.2,249.5,111.2,249.5,111.1
					C249.5,111.1,249.4,111.1,249.5,111.1z"/>
				<path class="st1" d="M249.5,110.7C249.5,110.7,249.5,110.7,249.5,110.7l-0.1,0.2l0,0c-0.9-1.4-2-2.8-3.3-4
					c-0.2-0.2-0.3-0.3-0.5-0.5c-0.1-0.1-0.2-0.2-0.3-0.3c0,0,0,0-0.1-0.1c-0.2-0.2-0.4-0.4-0.6-0.6c-0.1,0-0.1-0.1-0.2-0.1
					c-2.4-2.3-5.1-4.4-7.4-6.7c-1.5-0.9-2.4-2.6-3.9-3.6c-0.1-0.1-0.2-0.2-0.3-0.2c0,0,0,0,0.1-0.1c1.7,1,2.6,2.8,4.2,3.8
					c0.2,0.3,0.5,0.5,0.8,0.8C241.9,103.1,246.7,106.5,249.5,110.7z"/>
				<path class="st1" d="M247.7,108.6c0.6,0.7,1.2,1.5,1.7,2.3c-2.1-3.2-5.3-5.9-8.4-8.6C243.3,104.3,245.8,106.3,247.7,108.6z"/>
				<path class="st2" d="M249.4,110.8c-0.5-0.8-1.1-1.5-1.7-2.3c-0.5-0.6-1-1.2-1.6-1.8C247.3,108.1,248.5,109.4,249.4,110.8z"/>
				<path class="st1" d="M249.3,110.9l-0.3,0.2l0,0L249.3,110.9z"/>
				<path class="st1" d="M246.1,106.8c0.6,0.6,1.1,1.2,1.6,1.8c-1.9-2.2-4.3-4.2-6.7-6.3c0,0,0,0-0.1,0c-0.2-0.2-0.5-0.4-0.7-0.6
					c-0.5-0.4-1-0.9-1.5-1.4l0,0c1.8,1.7,3.9,3.4,5.8,5.1c0.1,0.1,0.1,0.1,0.2,0.1c0.2,0.2,0.4,0.4,0.6,0.6c0,0,0,0,0.1,0.1
					s0.2,0.2,0.3,0.3C245.7,106.5,245.9,106.7,246.1,106.8z"/>
				<path class="st1" d="M249.4,110.8c-2.3-3.4-5.8-6.2-9.2-9.2c0.2,0.2,0.5,0.4,0.7,0.6c0,0,0,0,0.1,0
					C244,105,247.3,107.7,249.4,110.8z"/>
				<path class="st2" d="M244.5,105.3c-1.9-1.7-4-3.4-5.8-5.1l0,0c-0.2-0.2-0.5-0.5-0.7-0.7c-0.1-0.1-0.3-0.2-0.4-0.4l0,0
					c-0.1-0.1-0.2-0.3-0.4-0.4c-1.7-1-2.6-2.8-4.3-3.8c0,0,0,0,0.1-0.1c0.1,0.1,0.2,0.1,0.3,0.2c1.4,1,2.3,2.7,3.9,3.6
					C239.4,100.9,242,103.1,244.5,105.3z"/>
				<path class="st2" d="M241.4,97.1c2.5,2.4,4.9,5,7.2,7.5C246.3,102,243.9,99.5,241.4,97.1z"/>
				<path class="st1" d="M238.6,100.2L238.6,100.2L238.6,100.2L238.6,100.2z"/>
				<path class="st2" d="M237.9,99.5c-0.1-0.1-0.3-0.2-0.4-0.4C237.6,99.2,237.8,99.4,237.9,99.5z"/>
				<path class="st1" d="M237.1,98.7c0.1,0.1,0.2,0.3,0.4,0.4C237.3,99,237.2,98.8,237.1,98.7z"/>
				<path class="st1" d="M236,91.8c-0.1,0-0.1,0-0.1,0c-0.8-0.7-1.6-1.4-2.4-2.2c-2.4-2.1-4.8-4.2-7.3-6.2
					C214.7,73.9,197,65.9,179.5,62v-0.1c4.4,1,8.7,2.2,13,3.6c12.9,4.3,25.1,10.6,33.7,17.8c1.6,1.3,3.1,2.6,4.6,3.9
					c0.1,0.1,0.2,0.2,0.4,0.3C232.8,88.9,234.4,90.3,236,91.8z"/>
				<path class="st1" d="M180.3,62.3c17.2,4,34.5,11.8,45.8,21.2c2.5,1.9,5,4,7.4,6.2c0.8,0.7,1.6,1.4,2.4,2.2l-0.2,0.3
					c-0.9,0.8-1.8,1.7-2.8,2.6c0.1-0.1,0.1-0.1,0.1-0.1c-0.1,0-0.1,0-0.1,0c-0.1,0-0.1,0-0.1,0c-18.2-6.7-35.5-15-49.9-27
					c-1-0.8-2-1.6-2.9-2.4l-0.1-0.2c-0.3,0-0.5-0.1-0.7-0.2c0,0.1,0,0.1,0,0.1h0.1c0,0.1,0,0.1,0,0.1h-0.1h-0.1l0,0
					c0-0.1,0-0.2,0-0.2c0.1,0,0.1,0,0.2,0.1c0.1-0.9,0.1-1.8,0.2-2.7C179.8,62.2,180,62.3,180.3,62.3z"/>
				<path class="st2" d="M233.2,95c1.5,1,2.4,2.6,3.9,3.6C235.5,97.7,234.6,96,233.2,95z"/>
				<path class="st1" d="M185.6,70c-0.9-0.7-1.8-1.4-2.8-2.2c-1-0.8-1.9-1.6-2.9-2.4l-0.1-0.2l0,0c-0.1-0.1-0.3-0.1-0.5-0.2l0,0
					c0,0,0,0,0-0.1h-0.1c0,0,0,0,0-0.1c0.2,0.1,0.4,0.2,0.7,0.2l0.1,0.2c0.9,0.8,1.9,1.6,2.9,2.4c14.4,12,31.7,20.3,49.9,27
					c0,0,0,0,0.1,0c0,0,0,0,0.1,0c0,0,0,0-0.1,0.1c0,0,0,0-0.1,0l-0.1,0.1c0,0,0,0-0.1,0c-15.7-5.9-30.8-12.9-44-22.5
					C187.6,71.6,186.6,70.8,185.6,70z M232.8,94.7c-16.9-6.3-33.3-14-47.1-24.8C199.4,80.7,215.7,88.4,232.8,94.7z"/>
				<path class="st1" d="M233,94.7C232.9,94.8,232.9,94.8,233,94.7c-0.2,0.1-0.2,0.1-0.2,0.1C232.8,94.8,232.9,94.7,233,94.7
					C232.9,94.7,232.9,94.7,233,94.7z"/>
				<path class="st1" d="M226.3,83.3c1.5,1.3,3,2.6,4.5,3.9c-1.5-1.3-3.1-2.6-4.6-3.9c-8.6-7.1-20.8-13.4-33.7-17.8
					C205.4,69.9,217.7,76.2,226.3,83.3z"/>
				<path class="st1" d="M218,200.2c0.5,0,1.1-0.1,1.6-0.1c-47.7,3.3-94.9,13.8-139.6,30.4c0-0.1,0-0.1,0-0.1
					C124.2,214,170.8,203.6,218,200.2z"/>
				<path class="st1" d="M107.9,201.4l110.1-1.3c-47.2,3.4-93.8,13.9-138,30.2c-0.1-5.4,0-10.7,0.3-16.1c0-1.1,0.1-2.1,0.2-3.2
					c0-0.3,0.1-0.7,0.1-1v-0.1c8.9-3.1,18-5.9,27.1-8.5L107.9,201.4L107.9,201.4z"/>
				<path class="st1" d="M185.6,69.9c13.8,10.8,30.2,18.5,47.1,24.8C215.7,88.4,199.4,80.7,185.6,69.9z"/>
				<path class="st1" d="M188.7,72.3c13.2,9.5,28.3,16.6,44,22.5C217,88.9,201.9,81.9,188.7,72.3z"/>
				<path class="st1" d="M206.8,183.6c-1.3,0.1-2.7,0.2-4,0.3C204.1,183.8,205.5,183.7,206.8,183.6z"/>
				<path class="st1" d="M202.8,183.9c-9.4,0.8-18.7,1.9-28,3.2c-18.6,2.7-37.1,6.4-55.2,11.1c-3.9,1-7.8,2.1-11.6,3.1v-0.1
					c20.5-5.8,41.5-10.3,62.7-13.6C181.3,186.2,192.1,184.9,202.8,183.9z"/>
				<path class="st3" d="M179.5,61.9L179.5,61.9h-0.1H179.5z"/>
				<path class="st1" d="M179.5,61.9L179.5,61.9l-0.1,0.1v-0.1H179.5z"/>
				<path class="st3" d="M179.5,62L179.5,62c-0.1,0.1-0.1,0.1-0.2,0.1c-0.1,0.9-0.1,1.7-0.2,2.6c-4-1.5-8.4-2.2-12.7-2.1v-0.1
					c-1.7-1-2.9-1.9-4.4-2.2h-0.1l0,0c-0.2,0-0.4-0.1-0.6-0.1v-0.7c5.3,0.2,10.9,1,16.5,2.1c0.5,0.1,0.9,0.2,1.4,0.3h0.1l0,0
					C179.3,62,179.4,62,179.5,62C179.4,62,179.5,62,179.5,62z"/>
				<path class="st1" d="M179.3,62.1c0.1,0,0.1,0,0.2,0c-0.1,0.9-0.1,1.7-0.2,2.7c-0.1,0-0.1,0-0.2-0.1
					C179.2,63.8,179.2,63,179.3,62.1z"/>
				<path class="st1" d="M179.8,65.2c-0.2,0-0.3,0-0.5-0.1c0,0,0,0,0-0.1C179.5,65.1,179.6,65.1,179.8,65.2z"/>
				<path class="st2" d="M179.4,61.9L179.4,61.9C179.4,62,179.3,62,179.4,61.9z"/>
				<path class="st3" d="M179.3,61.9C179.3,61.9,179.4,61.9,179.3,61.9L179.3,61.9c-0.5-0.1-0.9-0.2-1.4-0.3
					C178.4,61.7,178.9,61.8,179.3,61.9z"/>
				<path class="st2" d="M179.3,61.9c-0.5-0.1-0.9-0.2-1.4-0.3c-1.2-0.3-2.4-0.5-3.5-0.7C176,61.2,177.7,61.5,179.3,61.9z"/>
				<path class="st4" d="M179.3,65.5C179.3,65.5,179.3,65.6,179.3,65.5L179.3,65.5L179.3,65.5z"/>
				<path class="st4" d="M179.3,65.4C179.3,65.4,179.3,65.5,179.3,65.4c-0.1,0.2-0.1,0.2-0.2,0.3v-0.1c0,0,0,0,0.1-0.1
					C179.3,65.5,179.3,65.4,179.3,65.4z"/>
				<path class="st4" d="M179.3,65.1c0,0.1,0,0.2,0,0.3c0,0,0,0.1-0.1,0.1c-0.1,0.1-0.1,0.1-0.1,0.1c0-0.2,0-0.4,0.1-0.6
					C179.2,65,179.2,65,179.3,65.1C179.3,65,179.3,65.1,179.3,65.1z"/>
				<path class="st1" d="M179.3,65L179.3,65L179.3,65c-0.1,0-0.1,0-0.1,0H179.3z"/>
				<path class="st4" d="M179.3,65.5L179.3,65.5c-0.1,0.2-0.1,0.2-0.2,0.3v-0.1C179.2,65.6,179.2,65.6,179.3,65.5z"/>
				<path class="st4" d="M179.3,65.6C179.3,65.6,179.3,65.7,179.3,65.6c0,0.1,0,0.1,0,0.2c-0.1,0-0.2,0.1-0.3,0.1l0.1-0.1
					C179.2,65.7,179.2,65.7,179.3,65.6z"/>
				<path class="st4" d="M179.3,65.8c0,0,0,0.1-0.1,0.1s-0.2,0-0.3,0.1l0,0c0,0,0,0,0.1-0.1S179.2,65.8,179.3,65.8z"/>
				<path class="st4" d="M179.2,65L179.2,65L179.2,65L179.2,65z"/>
				<path class="st4" d="M179.2,65L179.2,65C179.2,65,179.1,65,179.2,65C179.1,65,179.1,65,179.2,65C179.1,65,179.1,65,179.2,65
					L179.2,65z"/>
				<path class="st4" d="M164.8,62.9c0.1,0,0.2,0,0.3,0c0.3,0,0.6,0,0.9-0.1c0.1,0,0.2,0,0.3,0c0.8,0,1.6,0,2.4,0
					c0.4,0,0.9,0.1,1.4,0.1c1.1,0.1,2.1,0.2,3.2,0.5c-1.1-0.2-2.1-0.3-3.2-0.4c2.3,0.2,4.6,0.6,6.9,1.2c0.7,0.2,1.4,0.4,2.1,0.7l0,0
					l0,0h0.1c-0.1,0.2-0.1,0.4-0.1,0.6l-0.1,0.1l-0.1,0.1c-0.2,0.2-0.4,0.4-0.7,0.6c-1.5,1.2-3.3,2-5.1,2.6
					c-0.6,0.2-1.1,0.3-1.7,0.4c-1.4,0.3-2.8,0.4-4.2,0.4c-0.2,0-0.3,0-0.4,0c-0.1,0-0.2,0-0.3,0c-0.2,0-0.3,0-0.4,0
					c-0.1,0-0.1,0-0.2,0c-0.3,0-0.6,0-0.9,0c-1.2,0-2.5-0.1-3.8-0.1c-3.4-0.1-6.7-0.3-10.1-0.4l0,0c-0.2-0.3-0.5-0.7-0.7-1l-0.1-0.1
					h-0.1l0,0c-0.1,0-0.1,0.1-0.1,0.1l-0.1-0.1c1.8-1.5,3.6-2.8,5.6-4.1c2.9-1.9,4.4-2.7,5.5-2.8c0.1,0,0.1,0,0.2,0
					c0.2,0,0.5,0,0.7,0.1c0.1,0,0.2,0.1,0.3,0.1s0.2,0.1,0.3,0.1c0.1,0.1,0.3,0.1,0.5,0.2h0.1c0.2,0.1,0.4,0.2,0.7,0.4
					c0,0,0.1,0,0.1,0.1c0.2,0.1,0.4,0.2,0.6,0.4c0,0,0,0,0.1,0.1C164.7,62.8,164.7,62.9,164.8,62.9z M162.6,61.7
					c-0.1-0.1-0.2-0.2-0.3-0.1C162.4,61.6,162.5,61.7,162.6,61.7z"/>
				<path class="st4" d="M179.1,65L179.1,65L179.1,65L179.1,65z"/>
				<path class="st4" d="M179.1,65.6C179.1,65.6,179.1,65.7,179.1,65.6l-0.1,0.2c-0.2,0.2-0.4,0.4-0.7,0.6c-1.3,1-2.7,1.8-4.3,2.3
					c-0.3,0.1-0.6,0.2-0.9,0.3c1.9-0.6,3.6-1.4,5.1-2.6c0.3-0.2,0.5-0.4,0.7-0.6l0.1-0.1C179.1,65.7,179.1,65.6,179.1,65.6z"/>
				<path class="st4" d="M179.1,65.7L179.1,65.7l-0.1,0.2c0,0,0,0-0.1,0.1c-0.1,0-0.1,0.1-0.1,0.1c-0.2,0.1-0.3,0.2-0.4,0.3
					c-1,0.8-2.2,1.5-3.4,2c-0.3,0.1-0.7,0.2-1,0.4c1.6-0.6,3-1.3,4.3-2.3c0.3-0.2,0.5-0.4,0.7-0.6L179.1,65.7z"/>
				<path class="st4" d="M178.9,66L178.9,66c-0.1,0.1-0.1,0.1-0.1,0.1C178.9,66.1,178.9,66,178.9,66z"/>
				<path class="st4" d="M179.1,65c-0.7-0.3-1.4-0.5-2.1-0.7c-1.2-0.4-2.5-0.7-3.7-0.9C175.3,63.7,177.2,64.2,179.1,65z"/>
				<path class="st3" d="M179.3,61.9c-1.7-0.4-3.3-0.7-4.9-1c-0.3,0-0.6-0.1-0.8-0.1c-3.8-0.7-7.6-1.1-11.2-1.3
					C167.8,59.7,173.5,60.6,179.3,61.9z"/>
				<path class="st2" d="M174.4,60.9c1.2,0.2,2.4,0.5,3.5,0.7c-5.7-1.1-11.2-1.9-16.5-2.1c-0.4,0-0.7-0.1-1.1-0.1
					c4.2,0.1,8.7,0.5,13.3,1.3C173.8,60.8,174.1,60.8,174.4,60.9z"/>
				<path class="st1" d="M174.8,187.2c-18.6,2.7-37.1,6.4-55.2,11.1C137.7,193.6,156.1,189.9,174.8,187.2z"/>
				<path class="st4" d="M174,68.8c0.3-0.1,0.7-0.2,1-0.4c-1.3,0.6-2.7,0.9-4.1,1.2c-0.2,0-0.5,0.1-0.7,0.1c0.2,0,0.4-0.1,0.6-0.1
					C171.9,69.4,172.9,69.1,174,68.8z"/>
				<path class="st4" d="M173.3,63.4c1.2,0.2,2.5,0.5,3.7,0.9c-2.2-0.7-4.6-1.1-6.9-1.2C171.2,63.1,172.2,63.2,173.3,63.4z"/>
				<path class="st4" d="M173.1,69c0.3-0.1,0.6-0.2,0.9-0.3c-1,0.4-2.1,0.7-3.2,0.8c-0.2,0.1-0.5,0.1-0.8,0.1c0.2,0,0.4-0.1,0.6-0.1
					C171.5,69.4,172.3,69.3,173.1,69z"/>
				<path class="st4" d="M171.4,69.4c0.6-0.1,1.1-0.2,1.7-0.4c-0.8,0.2-1.6,0.4-2.4,0.6c-0.2,0-0.4,0.1-0.6,0.1H170
					c-0.7,0.1-1.5,0.2-2.2,0.2c-0.1,0-0.1,0-0.2,0h-0.1h-0.1c-0.1,0-0.3,0-0.5,0h-0.1c-0.2,0-0.4,0-0.6,0h-0.1c-0.1,0-0.3,0-0.4,0
					c-0.3,0-0.6,0-0.9,0c-0.3,0-0.6,0-0.8,0c-0.3,0-0.5,0-0.8,0c-0.6,0-1.2,0-1.8,0c-3.5-0.1-6.8-0.3-10.3-0.4v-0.2
					c3.4,0.1,6.7,0.3,10.1,0.4c1.3,0,2.6,0.1,3.8,0.1c0.3,0,0.6,0,0.9,0c0.1,0,0.1,0,0.2,0c0.1,0,0.2,0,0.4,0c0.1,0,0.2,0,0.3,0
					s0.2,0,0.4,0C168.6,69.8,170,69.7,171.4,69.4z"/>
				<path class="st1" d="M170.8,69.6c-0.2,0-0.4,0.1-0.6,0.1c-0.1,0-0.1,0-0.1,0c-0.1,0-0.1,0-0.2,0h0.1c0,0,0,0,0.1,0
					C170.3,69.7,170.6,69.7,170.8,69.6z"/>
				<path class="st4" d="M169.9,69.8c0.1,0,0.1,0,0.2,0c-0.6,0.1-1.2,0.2-1.9,0.2c0.5,0,1-0.1,1.4-0.2
					C169.7,69.8,169.8,69.8,169.9,69.8z"/>
				<path class="st1" d="M170,69.7C169.9,69.7,169.9,69.7,170,69.7c-0.2,0-0.2,0-0.3,0c-0.6,0.1-1.2,0.1-1.9,0.2
					C168.5,69.9,169.2,69.8,170,69.7z"/>
				<path class="st4" d="M168.7,62.8c0.5,0,0.9,0,1.4,0.1C169.6,62.9,169.1,62.8,168.7,62.8z"/>
				<path class="st4" d="M169.7,69.8c-0.5,0.1-1,0.2-1.4,0.2c-0.2,0-0.4,0-0.6,0c0.1,0,0.1,0,0.2,0
					C168.4,69.9,169.1,69.9,169.7,69.8z"/>
				<path class="st4" d="M168.2,70c-0.2,0-0.5,0-0.7,0h0.1C167.8,70,168,70,168.2,70z"/>
				<path class="st1" d="M149,68.8C148.9,68.8,148.9,68.9,149,68.8c-0.3,0.3-0.7,0.6-0.9,0.8c-0.3,0.2-0.6,0.5-0.8,0.8l0,0
					c-1.7,1.5-3.3,3.1-5,4.6c-8.2,7.5-15.4,15.7-21.8,24.5c-0.1,0.1-0.2,0.2-0.2,0.3c-0.5,0.7-1.1,1.5-1.6,2.2c0,0,0,0.1-0.1,0.1
					c-4.9,7-9.3,14.3-13.3,21.7h-0.1c0,0.1-0.1,0.1-0.1,0.2c0,0,0,0.1-0.1,0.1c-0.1,0.3-0.3,0.5-0.4,0.8c-0.7,1.3-1.3,2.5-2,3.8
					l0.1,0.1c-0.1,0.2-0.2,0.3-0.2,0.5c0,0,0,0,0,0.1c0,0,0,0-0.1,0.1c-0.3,0.7-0.7,1.4-1,2.1c-0.3,0.7-0.6,1.4-1,2.1c0,0,0,0,0,0.1
					c-0.1,0.2-0.2,0.3-0.2,0.5c-0.8,1.8-1.7,3.7-2.5,5.5c-0.9,2.2-1.8,4.4-2.7,6.6l0,0c-0.1,0.3-0.2,0.6-0.4,0.9
					c-1.8,4.4-3.3,8.8-4.7,13.4v0.1H90c-2.1,6.7-3.9,13.4-5.3,20.3c-1.5,6.9-2.6,13.8-3.4,20.7h-1.5h-0.1
					c1.4-16.2,4.7-32.2,10.3-47.9c0.1-0.3,0.2-0.6,0.3-1c0.8-2.1,1.6-4.3,2.5-6.4c10.8-26.8,27.1-52,48.7-72.7c3.1-3,6.9-6.3,10.6-9
					c0.3-0.2,0.7-0.5,1-0.7c0.6-0.4,1.1-0.8,1.7-1.1h0.1c1.2-0.8,2.4-1.4,3.4-1.9c-1,0.6-2.2,1.1-3.3,1.9c1.2-0.8,2.4-1.4,3.4-1.9
					c0.4-0.2,0.8-0.4,1.1-0.5c-0.4,0.1-0.8,0.2-1.2,0.5c0.1,0,0.1-0.1,0.2-0.1c0.6-0.3,1.2-0.5,1.7-0.6l0,0c0.2,0,0.3,0,0.5,0
					s0.4,0,0.5,0c0.2,0,0.4,0,0.6,0.1l0,0c1.4,0.3,2.6,1.3,4.3,2.2v0.1c-0.5,0-1,0-1.5,0.1c-0.2-0.1-0.4-0.2-0.6-0.3
					c-0.1,0-0.1,0-0.1-0.1c-0.3-0.2-0.5-0.3-0.7-0.4h-0.1c-0.1-0.1-0.3-0.2-0.4-0.2c-0.1,0-0.1,0-0.2-0.1h-0.1l0,0
					c-0.1,0-0.2-0.1-0.3-0.1s-0.2-0.1-0.3-0.1h-0.1c-1.4-0.3-2.7,0.3-6.4,2.7c-2,1.2-3.8,2.6-5.6,4.1
					C149.5,68.4,149.2,68.6,149,68.8L149,68.8z"/>
				<path class="st4" d="M164.7,62.7C164.7,62.7,164.7,62.8,164.7,62.7C164.6,62.7,164.6,62.7,164.7,62.7
					C164.6,62.7,164.6,62.7,164.7,62.7L164.7,62.7z"/>
				<path class="st3" d="M160.3,59.4c0.4,0,0.7,0,1.1,0.1v0.7c-0.3,0-0.7,0-1,0.1l0,0c-0.1,0-0.2,0-0.3,0c-0.2,0-0.3,0.1-0.5,0.1
					l0,0c-0.2,0-0.4,0.1-0.7,0.2c-0.1,0-0.2,0.1-0.4,0.1c-0.1,0-0.1,0-0.1,0.1c-0.9,0.5-1.9,0.9-2.8,1.5h-0.1
					c-0.2,0.1-0.4,0.2-0.7,0.4l0,0l-0.1-0.2h-0.1h-0.1l0,0c-0.1,0-0.2,0-0.3,0c-0.6,0.1-1.2,0.2-1.8,0.3v-0.2h-0.1
					c-0.7,0.1-1.4,0.2-2,0.3c-2.6,0.5-5.1,1.1-7.6,2h-0.1c-0.4,0.1-0.8,0.3-1.1,0.4v-0.1c-0.2-1.2-0.5-2.5-0.8-3.7
					c4.8-1.2,9.6-2.1,14.3-2.3c1.7-0.1,3.2-0.1,4.9-0.1h0.1c0.8,0,1.6,0.1,2.3,0.1c3.7,0.2,7.4,0.7,11.2,1.3
					C169,60,164.5,59.5,160.3,59.4z"/>
				<path class="st1" d="M164.7,62.7C164.6,62.7,164.6,62.7,164.7,62.7c-0.3-0.1-0.5-0.2-0.6-0.3C164.2,62.5,164.4,62.6,164.7,62.7z
					"/>
				<path class="st1" d="M164,70h-0.1c-0.2,0-0.4,0-0.6,0C163.5,70,163.7,70,164,70z"/>
				<path class="st4" d="M163.2,69.9c0.2,0,0.4,0,0.6,0c-0.9,0-1.9-0.1-2.8-0.1c-3.5-0.1-6.8-0.3-10.3-0.4v-0.1l0,0l0.1-0.1h0.1h0.1
					v0.2h0.1c3.5,0.1,6.8,0.3,10.3,0.4C162,69.9,162.6,69.9,163.2,69.9z"/>
				<path class="st1" d="M162.7,61.6c0.1,0.1,0.3,0.2,0.4,0.2C162.9,61.7,162.8,61.7,162.7,61.6c-0.1,0-0.1,0-0.2-0.1
					C162.6,61.6,162.6,61.6,162.7,61.6z"/>
				<path class="st4" d="M162.5,61.5C162.6,61.6,162.6,61.6,162.5,61.5c0,0.1-0.1,0-0.2,0C162.4,61.5,162.4,61.5,162.5,61.5
					L162.5,61.5z"/>
				<path class="st1" d="M162.4,61.5c-0.1,0-0.1,0-0.1,0c-0.1,0-0.2-0.1-0.3-0.1s-0.1-0.1-0.2-0.1c0.1,0,0.2,0,0.3,0.1
					C162.2,61.4,162.3,61.5,162.4,61.5L162.4,61.5z"/>
				<path class="st1" d="M162.3,61.6c0.1-0.1,0.2,0,0.3,0.1C162.5,61.7,162.4,61.6,162.3,61.6z"/>
				<path class="st4" d="M161.8,61.3c0.1,0,0.1,0,0.2,0.1c-0.2-0.1-0.5-0.1-0.7-0.1C161.4,61.3,161.6,61.3,161.8,61.3
					C161.7,61.3,161.8,61.3,161.8,61.3z"/>
				<path class="st3" d="M161.9,60.3c-0.2,0-0.4-0.1-0.6-0.1c-0.1,0-0.3,0-0.5,0s-0.3,0-0.5,0c0.3-0.1,0.7-0.1,1-0.1
					C161.5,60.2,161.7,60.2,161.9,60.3z"/>
				<path class="st1" d="M159.6,60.5c-0.4,0.1-0.7,0.2-1.1,0.5c-1.1,0.5-2.2,1.1-3.4,1.9c1.1-0.8,2.3-1.3,3.3-1.9
					C158.9,60.7,159.3,60.5,159.6,60.5z"/>
				<path class="st3" d="M155.6,62.4c0.9-0.6,1.9-1,2.8-1.5C157.4,61.4,156.5,61.9,155.6,62.4z"/>
				<path class="st5" d="M154.6,62.9c-0.2,0.1-0.4,0.3-0.6,0.4c-1.4,1-2.9,2-4.3,3.2C151.3,65.2,153,64,154.6,62.9z"/>
				<path class="st5" d="M146.2,66.5c-0.1,0-0.2-0.1-0.4-0.1v-0.1c-1.4-0.4-3-0.7-4.5-0.6c-0.1,0-0.3,0-0.4,0l0,0
					c0.1,0,0.2-0.1,0.3-0.1h0.1c0.4-0.1,0.8-0.3,1.1-0.4h0.1c2.5-0.8,5.1-1.5,7.6-2c0.7-0.1,1.4-0.2,2-0.3V63h0.1h0.1l0,0
					c0.1,0,0.1,0,0.2,0c0.2,0,0.5-0.1,0.7-0.2l0,0c0.2,0,0.5-0.1,0.8-0.1c0.2,0,0.3,0,0.4-0.1l0.1,0.2c-2.1,1.4-4.2,3-6.4,4.8
					l-0.2-0.2c-0.1-0.1-0.3-0.2-0.4-0.3c-0.2-0.2-0.5-0.4-0.9-0.6l-0.1,0.2C146.5,66.6,146.4,66.5,146.2,66.5z"/>
				<path class="st5" d="M154.6,62.6L154.6,62.6L154.6,62.6L154.6,62.6C154.5,62.6,154.6,62.6,154.6,62.6z"/>
				<path class="st5" d="M154.6,62.6C154.6,62.6,154.5,62.6,154.6,62.6h-0.1H154.6z"/>
				<path class="st5" d="M154.5,62.6L154.5,62.6c-0.1,0.1-0.2,0.1-0.4,0.1C154.2,62.7,154.3,62.7,154.5,62.6
					C154.4,62.6,154.5,62.6,154.5,62.6L154.5,62.6z"/>
				<path class="st5" d="M154.5,62.6L154.5,62.6L154.5,62.6L154.5,62.6z"/>
				<path class="st5" d="M154.5,62.6L154.5,62.6C154.5,62.6,154.4,62.6,154.5,62.6c-0.2,0-0.2,0-0.3,0.1l0,0
					C154.3,62.6,154.4,62.6,154.5,62.6L154.5,62.6L154.5,62.6z"/>
				<path class="st5" d="M154.5,62.6c-0.1,0-0.2,0-0.3,0C154.3,62.6,154.4,62.6,154.5,62.6z"/>
				<path class="st5" d="M154.2,62.7c0.1,0,0.2,0,0.3,0C154.3,62.7,154.2,62.7,154.2,62.7C154.1,62.7,154.1,62.7,154.2,62.7
					L154.2,62.7z"/>
				<path class="st5" d="M154.2,62.7L154.2,62.7c-0.1,0-0.2,0-0.2,0l0,0c-0.2,0-0.3,0.1-0.5,0.1c-0.1,0-0.1,0-0.2,0l0,0
					c-0.1,0-0.1,0-0.2,0.1H153c-0.2,0-0.3,0.1-0.5,0.1l0,0C153.1,62.9,153.6,62.8,154.2,62.7z"/>
				<path class="st5" d="M154.2,62.7L154.2,62.7c-0.1,0-0.1,0-0.1,0l0,0C154.1,62.7,154.1,62.7,154.2,62.7z"/>
				<path class="st5" d="M154.1,62.7L154.1,62.7L154.1,62.7H154C154.1,62.7,154.1,62.7,154.1,62.7z"/>
				<path class="st5" d="M154.1,62.7L154.1,62.7c-0.3,0-0.5,0.1-0.8,0.1c0.1,0,0.2,0,0.2,0h0.1C153.8,62.8,153.9,62.7,154.1,62.7
					C154,62.7,154,62.7,154.1,62.7L154.1,62.7z"/>
				<path class="st5" d="M154,62.7c-0.1,0-0.2,0-0.4,0.1C153.8,62.8,153.9,62.7,154,62.7L154,62.7z"/>
				<path class="st5" d="M154,62.7c-0.1,0-0.2,0-0.4,0.1h-0.1l0,0C153.7,62.8,153.8,62.7,154,62.7z"/>
				<path class="st5" d="M154,63.3c-0.3,0.2-0.5,0.4-0.8,0.6c-0.3,0.2-0.7,0.5-1,0.7c-1,0.7-2.1,1.5-3.1,2.3
					c0.2-0.2,0.3-0.3,0.5-0.4l0.1-0.1C151.1,65.3,152.6,64.3,154,63.3z"/>
				<path class="st5" d="M153.5,62.8c-0.1,0-0.1,0-0.2,0l0,0C153.4,62.8,153.4,62.8,153.5,62.8L153.5,62.8z"/>
				<path class="st5" d="M153.5,62.8c-0.1,0-0.1,0-0.2,0l0,0C153.4,62.8,153.4,62.8,153.5,62.8z"/>
				<path class="st5" d="M153.3,62.8L153.3,62.8c-0.2,0.1-0.4,0.1-0.7,0.2c0.1,0,0.2,0,0.3-0.1c0.1,0,0.1,0,0.1,0
					C153.1,62.9,153.2,62.9,153.3,62.8L153.3,62.8z"/>
				<path class="st5" d="M153.3,62.8c-0.1,0-0.1,0-0.2,0.1C153.1,62.9,153.2,62.9,153.3,62.8z"/>
				<path class="st5" d="M152.9,62.9c-0.1,0-0.2,0.1-0.3,0.1s-0.1,0-0.2,0C152.6,63,152.7,63,152.9,62.9z"/>
				<path class="st1" d="M151.1,69.3v0.2H151v-0.2H151.1z"/>
				<path class="st4" d="M151,69.3h-0.1h-0.1l-0.1,0.1l0,0v-0.1c-0.1-0.2-0.3-0.5-0.5-0.7l0,0c-0.1-0.1-0.1-0.2-0.2-0.2h0.1l0,0
					c0.1,0,0.1-0.1,0.1-0.1l0.1,0.1C150.5,68.6,150.8,69,151,69.3z"/>
				<path class="st1" d="M150.7,69.4L150.7,69.4L150.7,69.4C150.6,69.5,150.6,69.5,150.7,69.4C150.7,69.5,150.7,69.5,150.7,69.4z"/>
				<path class="st1" d="M150.7,69.4L150.7,69.4L150.7,69.4C150.7,69.4,150.7,69.5,150.7,69.4C150.7,69.5,150.7,69.5,150.7,69.4
					L150.7,69.4L150.7,69.4z"/>
				<path class="st1" d="M150,68.4c0.1,0,0.1,0.1,0.2,0.1l0,0c0.2,0.2,0.4,0.5,0.5,0.7v0.1c-0.5-0.2-0.9-0.3-1.4-0.5
					C149.5,68.8,149.7,68.6,150,68.4z"/>
				<path class="st1" d="M150.7,69.5C150.7,69.5,150.7,69.4,150.7,69.5L150.7,69.5L150.7,69.5z"/>
				<path class="st1" d="M150.7,69.3c-0.1-0.2-0.3-0.5-0.5-0.7C150.4,68.8,150.6,69.1,150.7,69.3z"/>
				<path class="st1" d="M150.3,69.3L150.3,69.3c-0.1,0.1-0.1,0.1-0.1,0.1c-0.1,0.1-0.1,0.2-0.2,0.3c-13.3,16.3-25.8,33-38.4,49.8
					c-1.2,1.6-2.2,3-3.5,4.7l-0.1-0.1c-0.1,0-0.1,0.1-0.1,0.1c-0.1,0-0.1,0.1-0.1,0.1l0,0l-0.3,0.2c-0.6-0.2-1.3-0.4-2-0.6h-0.1
					c7-13.4,15.6-26.3,25.9-37.8c3.5-3.8,7-7.4,10.9-11c0.1,0,0.1,0,0.1-0.1c0.1,0,0.1-0.1,0.1-0.1c0.2-0.2,0.3-0.3,0.5-0.5
					c0.3-0.3,0.7-0.6,1-0.9c1.1-1,2.2-2,3.2-3c0.1-0.1,0.3-0.2,0.4-0.4c0.4-0.4,0.9-0.8,1.4-1.2C149.4,69.1,149.8,69.2,150.3,69.3z"
					/>
				<path class="st1" d="M150.3,69.3C150.2,69.4,150.2,69.4,150.3,69.3C150.2,69.4,150.2,69.4,150.3,69.3
					C150.2,69.4,150.2,69.4,150.3,69.3z"/>
				<path class="st4" d="M150.2,68.2L150.2,68.2c0,0.1,0,0.1-0.1,0.1l0,0C150.1,68.2,150.1,68.2,150.2,68.2z"/>
				<path class="st1" d="M150.2,69.4c-0.8,1-1.6,1.9-2.4,2.9c0.7-0.9,1.4-1.8,2.1-2.6C150.1,69.6,150.1,69.5,150.2,69.4L150.2,69.4z
					"/>
				<path class="st1" d="M150,69.7c-0.7,0.9-1.4,1.8-2.1,2.6c-0.3,0.3-0.6,0.7-0.8,1c-12.2,15.1-23.8,30.5-35.3,46.1
					c-1.2,1.6-2.3,3.1-3.6,4.8l0,0c1.3-1.7,2.3-3.1,3.5-4.7C124.1,102.7,136.7,86,150,69.7z"/>
				<path class="st5" d="M149.1,67c1-0.8,2.1-1.6,3.1-2.3c-3.7,2.7-7.5,6.1-10.6,9c-21.6,20.7-37.9,45.9-48.7,72.7
					c-0.8,2.1-1.7,4.2-2.5,6.4c0.8-2.1,1.6-4.3,2.4-6.4l0,0c10.8-26.8,27.1-52,48.7-72.7c0.3-0.2,0.5-0.5,0.8-0.8
					c1.8-1.7,3.8-3.5,6-5.2C148.6,67.4,148.9,67.2,149.1,67z"/>
				<path class="st1" d="M149.6,66.6c-0.2,0.1-0.3,0.3-0.5,0.4c-2.4,1.9-4.7,3.9-6.7,5.8c-0.3,0.3-0.5,0.5-0.8,0.8
					c-21.6,20.7-37.9,45.9-48.7,72.7l0,0c-1.8,4.2-3.3,8.6-4.7,12.9c0.6-1.8,1.2-3.7,1.9-5.5c-5.6,15.7-8.9,31.7-10.3,47.9h0.1h1.5
					c0.8-7,1.9-13.9,3.4-20.7c1.4-6.8,3.2-13.6,5.3-20.3l0,0c-4.2,13.4-7.1,27.2-8.7,41.1c-0.2,2-0.5,4.1-0.6,6.2
					c0.2-2.1,0.4-4.1,0.5-6.2h-1.5h-0.1v-0.1c0-0.5,0.1-1,0.1-1.5c1.1-12.3,3.4-24.6,7-36.7c0.4-1.4,0.8-2.8,1.3-4.2
					c1.4-4.3,2.9-8.7,4.7-12.9c10.8-26.8,27.1-52,48.7-72.7c2-1.9,4.3-4,6.8-6C148.7,67.2,149.1,66.9,149.6,66.6z"/>
				<path class="st1" d="M149.1,67c-0.2,0.2-0.5,0.4-0.7,0.6c-2.2,1.7-4.2,3.6-6,5.2C144.4,70.9,146.7,68.9,149.1,67z"/>
				<path class="st1" d="M148.7,69c-0.4,0.3-0.7,0.7-1.1,1c-0.1,0.1-0.3,0.2-0.4,0.4c-0.5,0.5-1.1,1-1.6,1.5s-1.1,1-1.6,1.5
					c-0.3,0.3-0.7,0.6-1,0.9c1.4-1.3,2.8-2.6,4.2-4l0,0c0.2-0.2,0.5-0.5,0.8-0.8C148.3,69.4,148.5,69.2,148.7,69z"/>
				<path class="st5" d="M141.6,65.9c0.3,0,0.7,0,1,0c1.1,0.1,2.3,0.3,3.4,0.6v0.1c0.2,0.1,0.5,0.1,0.7,0.2l0,0l0.1-0.2l0,0
					c0.4,0.2,0.7,0.5,1.1,0.7l0.2,0.3c0,0,0,0,0.1,0l0,0c-2.4,2-4.8,4-6.8,6c-21.6,20.7-37.9,45.9-48.7,72.7
					c-1.7,4.3-3.3,8.6-4.7,12.9c-0.4,1.4-0.9,2.8-1.3,4.2c-3.6,12.1-5.9,24.4-7,36.7c0,0.5-0.1,1-0.1,1.5v0.1l-14.7,0.2h-0.1
					l-0.1-0.1h-0.1h-0.2l0,0h-0.1c-1.1-0.7-2.2-1.4-3.4-2.1c-8.7-4.8-18.5-7.9-28.6-8.9c1.3-7,2.7-14,4-21c0.1,0,0.1-0.1,0.1-0.1
					c0-0.1,0-0.1,0-0.1c0-0.1,0-0.1,0-0.1c8-11.6,14.6-23.6,19.1-36.2c0.4-1,0.7-2,1.1-3.1c0.4-1.2,0.8-2.4,1.1-3.6
					c0.2-0.6,0.4-1.2,0.5-1.8c0.2-0.8,0.4-1.6,0.6-2.4c0.4-1.8,0.8-3.5,1.2-5.3c2.6-2.7,5.2-5.4,7.8-8c1.9-1.9,3.7-3.8,5.6-5.8
					c2-0.9,4.1-1.8,6.1-2.7c1.7-0.7,3.3-1.5,4.9-2.2c3.6-1.7,7.2-3.4,10.8-5.2c0.9-0.5,1.9-0.9,2.8-1.4c0.5-0.3,1.1-0.5,1.6-0.8
					c0.1-0.1,0.2-0.1,0.3-0.2c1.3-0.7,2.6-1.3,3.9-2.1c1.4-0.8,2.8-1.5,4.2-2.3c2.8-1.5,5.6-3.1,8.4-4.8c1.3-0.8,2.6-1.5,3.9-2.3
					c0.4-0.3,0.9-0.5,1.3-0.8c1.3-0.8,2.5-1.6,3.8-2.4c3.8-2.4,7.5-4.9,11.1-7.4c1.3-0.9,2.6-1.8,3.9-2.8c0.3,0,0.7-0.1,1-0.1
					C141.5,65.9,141.6,65.9,141.6,65.9z M96,120.9c-0.1-0.1-0.3-0.2-0.4-0.3C95.7,120.7,95.8,120.8,96,120.9z M95.4,120.4
					c-0.4-0.3-0.8-0.5-1.2-0.7C94.6,120,95,120.2,95.4,120.4z M94.3,120.1c0.3,0.2,0.6,0.4,1,0.6l0.1,0.1l0,0c0.1,0,0.1,0.1,0.1,0.1
					c0.1,0.1,0.2,0.2,0.3,0.2l-0.1-0.1c0,0,0,0-0.1,0l0,0c0,0,0,0-0.1-0.1c0,0,0,0-0.1-0.1C95.2,120.5,94.8,120.3,94.3,120.1
					c-0.1-0.1-0.1-0.1-0.2-0.2C94.2,119.9,94.3,120,94.3,120.1z M45,170.3c0.1-0.2,0.2-0.2,0.2-0.4c0.1-0.2,0.2-0.4,0.3-0.6
					c0,0.2-0.1,0.3-0.2,0.5c1.4-3,2.8-6,4.3-8.9c0.8-1.6,1.6-3.1,2.4-4.7c4.1-7.7,8.5-15.2,13.4-22.5c1.6-2.6,3.4-5.1,5.4-7.4
					c0.8-1,1.7-1.9,2.6-2.7c1.7-1.5,3.5-2.8,5.7-3.9c0.1-0.1,0.2-0.1,0.4-0.2c0.1-0.1,0.2-0.1,0.4-0.2c0.5-0.2,1.1-0.4,1.6-0.6
					c0.4-0.1,0.8-0.2,1.2-0.3c0.2,0,0.4-0.1,0.6-0.1c0.1,0,0.2,0,0.3-0.1c0.2,0,0.3,0,0.5-0.1c-0.8,0.1-1.6,0.3-2.4,0.6
					c2.3-0.6,4.7-0.8,7.1-0.6h0.1c1.1,0.1,2.2,0.4,3.2,0.7c0.1,0,0.2,0.1,0.4,0.1c0,0,0,0,0.1,0c0,0,0,0,0.1,0l0.1,0.1h0.1l0,0
					c0.1,0,0.1,0.1,0.2,0.1c0,0,0.1,0,0.1,0.1l0,0l0,0c0.1,0.1,0.2,0.1,0.3,0.1c-0.1,0-0.1-0.1-0.2-0.1c-0.2-0.1-0.4-0.2-0.6-0.3
					l0,0c0,0,0,0-0.1,0l0,0c-0.3-0.2-0.6-0.3-0.9-0.4c0.4,0.2,0.9,0.3,1.3,0.5c-5.3-2.5-12.1-2.8-17.4-0.3c-0.3,0.1-0.6,0.3-0.9,0.4
					c-0.3,0.2-0.7,0.4-1,0.6c-0.2,0.1-0.4,0.3-0.6,0.4c-0.3,0.2-0.5,0.4-0.8,0.6c-1.3,1-2.4,2.1-3.5,3.3c-0.4,0.4-0.7,0.9-1.1,1.3
					c-0.3,0.4-0.7,0.9-1,1.3c-0.8,1.1-1.6,2.1-2.3,3.2c-8.3,12.6-14.9,26.1-19.5,40.2l0,0C44.9,170.2,44.9,170.3,45,170.3L45,170.3z
					"/>
				<path class="st5" d="M148.2,67.6C148.1,67.6,148.1,67.6,148.2,67.6l-0.3-0.2c-0.4-0.2-0.7-0.5-1.1-0.7c0.3,0.1,0.5,0.3,0.8,0.4
					c0.1,0.1,0.3,0.2,0.4,0.3L148.2,67.6z"/>
				<path class="st5" d="M146.8,66.6L146.8,66.6l-0.1,0.2l0,0c-0.2-0.1-0.5-0.1-0.7-0.2v-0.1c-1.1-0.3-2.2-0.6-3.4-0.6
					c1.2,0.1,2.4,0.3,3.5,0.6c0.1,0,0.1,0,0.1,0c0.1,0,0.2,0.1,0.4,0.1l0.1-0.2c0.4,0.2,0.6,0.5,0.9,0.6
					C147.4,66.9,147.1,66.7,146.8,66.6z"/>
				<path class="st1" d="M145.6,71.9c0.5-0.5,1.1-1,1.6-1.5C146.7,70.9,146.1,71.4,145.6,71.9z"/>
				<path class="st1" d="M145.6,71.9c0.5-0.5,1.1-1,1.6-1.5c-1.1,1-2.2,2-3.2,3C144.5,72.9,145.1,72.4,145.6,71.9z"/>
				<path class="st5" d="M146.2,66.5c-0.1,0-0.1,0-0.1,0c-1.1-0.3-2.3-0.6-3.5-0.6c-0.3,0-0.7,0-1,0h-0.1c-0.3,0-0.7,0.1-1,0.1
					c0-0.1,0-0.1,0-0.2c0.2,0,0.3,0,0.5-0.1c0.1,0,0.3,0,0.4,0c1.5-0.1,3.1,0.2,4.5,0.6v0.1C146,66.4,146.1,66.5,146.2,66.5z"/>
				<path class="st1" d="M142.3,75L142.3,75c0,0.1,0,0.1-0.1,0.1L142.3,75z"/>
				<path class="st5" d="M142.5,65.2c-0.1,0-0.2,0.1-0.4,0.1C142.2,65.3,142.4,65.2,142.5,65.2z"/>
				<path class="st5" d="M142.1,65.3c0.1,0,0.3-0.1,0.4-0.1c-0.3,0.1-0.7,0.3-1.1,0.4C141.6,65.5,141.9,65.4,142.1,65.3L142.1,65.3z
					"/>
				<path class="st5" d="M142.1,65.3L142.1,65.3H142H142.1z"/>
				<path class="st5" d="M142,65.4h0.1c-0.3,0.1-0.5,0.2-0.7,0.3c0.2-0.1,0.3-0.2,0.5-0.2L142,65.4z"/>
				<path class="st5" d="M141.9,65.4c-0.2,0-0.3,0.1-0.5,0.2h-0.1C141.5,65.5,141.7,65.4,141.9,65.4z"/>
				<path class="st5" d="M141.3,65.6c-0.1,0-0.2,0.1-0.3,0.1l0,0c-0.2,0-0.4,0.1-0.5,0.1c0-0.3,0-0.6-0.1-0.8c-0.1-1-0.1-2.1-0.2-3
					c0.1,0,0.1,0,0.1-0.1C140.8,63.1,141.1,64.3,141.3,65.6z"/>
				<path class="st5" d="M140.5,65.8c0,0.1,0,0.1,0,0.2h-0.1v-0.1C140.4,65.9,140.4,65.8,140.5,65.8L140.5,65.8
					C140.4,65.8,140.4,65.8,140.5,65.8z"/>
				<path class="st5" d="M140.4,66h0.1c-1.3,1-2.6,1.9-3.9,2.8c-3.7,2.5-7.3,5-11.1,7.4c-1.3,0.8-2.5,1.6-3.8,2.4
					c-0.4,0.2-0.9,0.5-1.3,0.8c-1.3,0.8-2.6,1.6-3.9,2.3c-2.8,1.6-5.6,3.2-8.4,4.8C119.3,80.3,130.1,73.5,140.4,66z"/>
				<path class="st5" d="M140.4,64.9c0,0.3,0,0.6,0.1,0.8h-0.1l0,0c-0.1-1.3-0.2-2.6-0.3-3.9h0.1C140.3,62.9,140.4,63.9,140.4,64.9z
					"/>
				<path class="st5" d="M140.4,65.9L140.4,65.9c-10.2,7.6-21.1,14.4-32.3,20.5c-1.4,0.8-2.8,1.5-4.2,2.3c-1.3,0.7-2.6,1.4-3.9,2.1
					c-0.1,0.1-0.2,0.1-0.3,0.2C113.9,83.6,127.6,75.3,140.4,65.9z"/>
				<path class="st5" d="M140.4,65.8C140.4,65.8,140.4,65.9,140.4,65.8c-12.8,9.5-26.5,17.8-40.8,25.2c-0.5,0.3-1.1,0.6-1.6,0.8
					c-0.9,0.5-1.8,0.9-2.8,1.4c-3.6,1.8-7.2,3.5-10.8,5.2c-1.6,0.8-3.3,1.5-4.9,2.2c-2,0.9-4.1,1.8-6.1,2.7c0-0.1-0.1-0.2-0.1-0.2
					c14.8-6.4,29.3-13.5,43-21.6c1.8-1,3.5-2.1,5.2-3.1c5.1-3.1,10.1-6.4,14.9-9.8C137.7,67.7,139,66.8,140.4,65.8L140.4,65.8z"/>
				<path class="st5" d="M140.4,65.8L140.4,65.8c-1.4,1-2.7,1.9-4,2.8c-4.8,3.4-9.8,6.7-14.9,9.8c-1.7,1-3.4,2.1-5.2,3.1
					c-13.8,8.1-28.3,15.2-43,21.6c-0.4-0.6-0.8-1.2-1.2-1.9c6.9-6.6,14.6-12.7,22.9-18c13.1-8.3,29-17.1,45.1-21.3
					C140.2,63.2,140.3,64.5,140.4,65.8z"/>
				<path class="st5" d="M140.3,61.8L140.3,61.8L140.3,61.8L140.3,61.8z"/>
				<path class="st5" d="M140.3,61.8L140.3,61.8l-0.1,0.1h-0.1c0,0,0,0,0.1,0C140.2,61.9,140.3,61.8,140.3,61.8z"/>
				<path class="st5" d="M140.3,61.8L140.3,61.8l-0.1,0.1C140.2,61.9,140.2,61.8,140.3,61.8z"/>
				<path class="st1" d="M131.2,86.2c-2.6,2.9-5,5.8-7.4,8.9c-5.9,7.6-11.2,15.6-15.8,23.9c2.8-5,5.8-9.9,9-14.6
					c0.5-0.8,1-1.5,1.6-2.3c0,0,0,0,0.1-0.1c0.5-0.7,1-1.5,1.6-2.2c0.1-0.1,0.2-0.2,0.2-0.3C123.8,94.9,127.3,90.5,131.2,86.2z"/>
				<path class="st5" d="M136.6,68.8c-3.6,2.5-7.3,5-11.1,7.4C129.3,73.8,132.9,71.3,136.6,68.8z"/>
				<path class="st5" d="M120.4,79.4c-1.3,0.8-2.6,1.6-3.9,2.3C117.8,80.9,119.1,80.1,120.4,79.4z"/>
				<path class="st1" d="M111.8,119.4c11.1-14.8,22.1-29.5,33.5-43.8C133.8,90,122.8,104.7,111.8,119.4z"/>
				<path class="st5" d="M108.1,124.3l0.1,0.3c0.2,6.3-3,12.3-6.1,18c-2,3.7-4.1,7.5-6.1,11.2v-0.1c0.8-2,1.6-4,2.4-6
					c0.5-1.2,1-2.4,1.5-3.6c1.3-3.2,2.6-6.7,3.1-10.2c0-0.2,0.1-0.5,0.1-0.8l0,0c0-0.2,0-0.5,0-0.7c0-0.5,0-0.9,0-1.4
					c0-0.7-0.1-1.4-0.2-2.1c0,0.1-0.1,0.1-0.1,0.1v-0.1c0,0,0-0.1,0.1-0.1l0,0c0,0,0,0,0-0.1l0,0c0.8-1.4,1.5-3,2.2-4.5l0,0l0.3,0.1
					c0.6,0.2,1.3,0.4,2,0.6l0.3-0.2c0.1,0,0.1-0.1,0.2-0.2S108,124.4,108.1,124.3C108,124.3,108,124.3,108.1,124.3L108.1,124.3z"/>
				<path class="st5" d="M103.9,88.7c1.4-0.8,2.8-1.5,4.2-2.3C106.7,87.2,105.3,88,103.9,88.7z"/>
				<path class="st5" d="M108,124.2L108,124.2C108,124.3,108,124.3,108,124.2L108,124.2L108,124.2z"/>
				<path class="st5" d="M108,124.3L108,124.3C107.9,124.3,107.9,124.3,108,124.3L108,124.3z"/>
				<path class="st5" d="M107.4,124.8l0.3-0.2c0.1,0,0.1-0.1,0.2-0.2l0.1-0.1c0,0.1,0,0.1-0.1,0.2s-0.1,0.2-0.2,0.2L107.4,124.8
					c-0.7-0.1-1.4-0.3-2-0.5l-0.3-0.1c0.1,0,0.1,0,0.1-0.1l0.2,0.1C106,124.4,106.7,124.6,107.4,124.8L107.4,124.8z"/>
				<path class="st5" d="M107.4,124.8L107.4,124.8c-0.7-0.2-1.4-0.4-2-0.6l-0.2-0.1l0,0c0,0,0.1,0,0.1-0.1l0,0h0.1
					c0.7,0.2,1.4,0.4,2,0.6l0.3-0.2c0,0,0-0.1,0.1-0.1l0,0l0,0c0,0,0-0.1,0.1-0.1l0,0l0.1,0.1l-0.1,0.1c-0.1,0.1-0.1,0.2-0.2,0.2
					L107.4,124.8z"/>
				<path class="st1" d="M107.9,201.3L107.9,201.3L107.9,201.3l-0.2,0.1C107.8,201.4,107.8,201.4,107.9,201.3z"/>
				<path class="st1" d="M107.9,201.3L107.9,201.3c-0.1,0.1-0.1,0.1-0.2,0.1h-0.3C107.6,201.4,107.7,201.3,107.9,201.3L107.9,201.3z
					"/>
				<path class="st5" d="M107.9,124.2C107.8,124.2,107.8,124.3,107.9,124.2L107.9,124.2C107.8,124.3,107.8,124.2,107.9,124.2z"/>
				<path class="st1" d="M107.4,201.4h0.3c-9.1,2.6-18.2,5.4-27.1,8.5v-0.1C89.5,206.7,98.4,204,107.4,201.4z"/>
				<path class="st1" d="M83.7,201.7h0.2l23.5-0.3c-9.1,2.6-18,5.3-26.8,8.4c0.1-0.6,0.1-1.3,0.2-1.9c0.2-2.1,0.4-4.1,0.6-6.2H83.7z
					"/>
				<path class="st5" d="M105.3,124L105.3,124L105.3,124L105.3,124L105.3,124L105.3,124C105.2,124.1,105.2,124,105.3,124z"/>
				<path class="st5" d="M105.2,124.1L105.2,124.1C105.3,124.1,105.2,124.1,105.2,124.1z"/>
				<path class="st5" d="M105.2,123.9L105.2,123.9C105.2,124,105.2,124,105.2,123.9C105.2,124,105.2,123.9,105.2,123.9z"/>
				<path class="st5" d="M105.2,124.1L105.2,124.1L105.2,124.1L105.2,124.1z"/>
				<path class="st5" d="M105.2,124.1L105.2,124.1C105.2,124.2,105.2,124.2,105.2,124.1L105.2,124.1
					C105.1,124.2,105.1,124.2,105.2,124.1C105.1,124.1,105.1,124.1,105.2,124.1L105.2,124.1z"/>
				<path class="st5" d="M105.2,124L105.2,124C105.2,124.1,105.1,124.1,105.2,124C105.1,124.1,105.1,124.1,105.2,124
					C105.1,124.1,105.1,124,105.2,124L105.2,124C105.1,124,105.1,124,105.2,124L105.2,124z"/>
				<path class="st5" d="M105.2,124L105.2,124C105.1,124,105.1,124,105.2,124L105.2,124C105.1,124,105.1,124.1,105.2,124
					c-0.1,0.2-0.2,0.3-0.3,0.5c0.1-0.1,0.1-0.2,0.2-0.4C105.1,124.1,105.1,124,105.2,124C105.1,124,105.1,124,105.2,124z"/>
				<path class="st5" d="M105.1,124.1L105.1,124.1L105.1,124.1L105.1,124.1z"/>
				<path class="st5" d="M105.1,124.1L105.1,124.1L105.1,124.1C105.1,124.2,105.1,124.2,105.1,124.1c-0.7,1.6-1.4,3.2-2.2,4.6l0,0
					C103.7,127.3,104.4,125.8,105.1,124.1L105.1,124.1z"/>
				<path class="st5" d="M105.1,124.1L105.1,124.1c0,0.1-0.1,0.1-0.1,0.2c-0.1,0.3-0.3,0.5-0.4,0.8c0.1-0.2,0.2-0.3,0.2-0.5
					C104.9,124.3,105,124.2,105.1,124.1z"/>
				<path class="st5" d="M104.9,124.5c-0.1,0.2-0.2,0.3-0.2,0.5v0.1c-0.5,0.9-0.9,1.8-1.3,2.7c-0.2,0.3-0.3,0.6-0.4,0.8l0,0
					c0.6-1.2,1.2-2.5,1.8-3.7C104.7,124.8,104.8,124.6,104.9,124.5z"/>
				<path class="st5" d="M104.7,124.9c-0.6,1.2-1.2,2.5-1.8,3.7l0,0c0,0,0,0,0,0.1s0,0.1,0,0.1l-0.1-0.1
					C103.3,127.4,104,126.2,104.7,124.9z"/>
				<path class="st5" d="M99.9,90.8c1.3-0.7,2.6-1.4,3.9-2.1C102.6,89.4,101.3,90.1,99.9,90.8z"/>
				<path class="st5" d="M104.6,125.1c-0.4,0.9-0.9,1.8-1.3,2.7C103.7,126.9,104.1,126,104.6,125.1z"/>
				<path class="st5" d="M102.8,128.6c0.2-0.3,0.3-0.6,0.4-0.8C103.1,128.1,103,128.4,102.8,128.6L102.8,128.6z"/>
				<path class="st5" d="M103.1,131c0,0.5,0,0.9,0,1.4c0,0.2,0,0.5,0,0.7l0,0c-0.1,1.5-0.5,2.9-0.9,4.4c0.5-1.7,0.8-3.4,0.8-5.1
					C103,131.9,103,131.5,103.1,131c-0.1-0.5-0.2-1.1-0.2-1.6c0-0.1,0-0.2,0-0.4c0,0,0-0.1,0.1-0.1C103,129.6,103.1,130.3,103.1,131
					z"/>
				<path class="st5" d="M103.1,133.1c0,0.2-0.1,0.5-0.1,0.8c-0.5,3.4-1.8,6.9-3.1,10.1c0.3-0.8,0.6-1.6,0.9-2.3
					c0.1-0.2,0.1-0.3,0.2-0.5c0.2-0.5,0.3-1,0.5-1.4c0.2-0.5,0.3-1,0.5-1.4c0.1-0.2,0.2-0.5,0.2-0.7
					C102.6,136.1,102.9,134.6,103.1,133.1z"/>
				<path class="st5" d="M90.7,160.7L90.7,160.7h-0.2l-0.3-0.1c1.5-4.9,3.2-9.7,5.1-14.4c2.2-5.6,4.7-11.2,7.3-16.8
					c0.1-0.1,0.2-0.2,0.2-0.4c0,0.1,0,0.2,0.1,0.4c0.1,0.5,0.1,1.1,0.1,1.6s0,0.9,0,1.4c-0.2,3.5-1.3,7-2.6,10.3
					c-0.2,0.5-0.4,0.9-0.6,1.4c-1.3,3.2-2.6,6.3-3.9,9.6l0.1,0.1l0.1,0.1c-0.3,0.5-0.6,1.1-0.9,1.5c0,0.1-0.1,0.1-0.1,0.2
					c-0.7,1.2-1.3,2.3-1.9,3.4c0,0.1-0.1,0.1-0.1,0.2c-0.3,0.5-0.5,0.9-0.7,1.4l-1.4-0.1h-0.1c0.2,0.1,0.4,0.2,0.6,0.2l0,0l0,0
					l-0.7-0.1C90.7,160.7,90.7,160.7,90.7,160.7z"/>
				<path class="st5" d="M102.9,128.7L102.9,128.7C102.9,128.7,102.9,128.8,102.9,128.7L102.9,128.7c-0.1,0.1-0.1,0.1-0.1,0.1
					S102.8,128.7,102.9,128.7L102.9,128.7z"/>
				<path class="st5" d="M102.9,128.8C102.9,128.8,102.9,128.7,102.9,128.8C102.9,128.7,102.9,128.8,102.9,128.8z"/>
				<path class="st5" d="M102.8,129c0,0.1,0,0.2,0,0.4C102.8,129.3,102.8,129.1,102.8,129L102.8,129z"/>
				<path class="st1" d="M102.9,128.7l-0.1,0.1C102.8,128.8,102.8,128.7,102.9,128.7L102.9,128.7z"/>
				<path class="st5" d="M102.9,128.8c0,0,0,0.1-0.1,0.1C102.8,128.9,102.8,128.8,102.9,128.8C102.8,128.8,102.8,128.8,102.9,128.8z
					"/>
				<path class="st5" d="M102.9,128.7c0,0.1,0,0.1-0.1,0.1C102.8,128.8,102.8,128.8,102.9,128.7
					C102.8,128.7,102.8,128.6,102.9,128.7L102.9,128.7z"/>
				<path class="st1" d="M102.6,129.3c-0.1,0.2-0.2,0.4-0.3,0.7C102.3,129.8,102.4,129.6,102.6,129.3
					C102.5,129.4,102.5,129.4,102.6,129.3z"/>
				<path class="st1" d="M102.5,129.4c-0.1,0.2-0.2,0.4-0.3,0.6c-0.2,0.5-0.5,1-0.7,1.4C101.8,130.8,102.2,130.1,102.5,129.4z"/>
				<path class="st5" d="M102.5,129.4c-0.3,0.7-0.7,1.4-1,2c0,0,0,0,0,0.1C101.8,130.8,102.2,130.1,102.5,129.4z"/>
				<path class="st5" d="M103,132.4c0,1.7-0.4,3.4-0.8,5.1c-0.1,0.2-0.2,0.5-0.2,0.7c-0.1,0.5-0.3,1-0.5,1.4c-0.2,0.5-0.3,1-0.5,1.4
					c-0.1,0.2-0.1,0.3-0.2,0.5c-0.1,0.3-0.3,0.7-0.4,1C101.7,139.4,102.8,135.9,103,132.4z"/>
				<path class="st5" d="M99.9,144c1.3-3.2,2.6-6.7,3.1-10.1C102.5,137.4,101.2,140.9,99.9,144c-0.5,1.3-1,2.5-1.5,3.7
					C98.9,146.5,99.4,145.2,99.9,144z"/>
				<path class="st5" d="M101.9,138.2c-0.1,0.5-0.3,1-0.5,1.4C101.6,139.2,101.8,138.7,101.9,138.2z"/>
				<path class="st1" d="M101.5,131.4c-0.3,0.7-0.7,1.4-1,2.2c0,0,0,0,0-0.1C100.8,132.9,101.2,132.2,101.5,131.4
					C101.5,131.5,101.5,131.5,101.5,131.4z"/>
				<path class="st5" d="M100.8,141.7c0.1-0.2,0.1-0.4,0.2-0.5C100.9,141.3,100.8,141.5,100.8,141.7z"/>
				<path class="st5" d="M100.4,142.7c0.1-0.3,0.3-0.7,0.4-1c-0.3,0.8-0.6,1.6-0.9,2.3c-0.5,1.2-1,2.5-1.5,3.7c-0.8,2-1.6,4-2.4,6
					v0.1l-0.1-0.1c1.3-3.3,2.6-6.4,3.9-9.6C100,143.6,100.2,143.2,100.4,142.7z"/>
				<path class="st5" d="M100.5,133.6c-0.1,0.2-0.2,0.3-0.2,0.5C100.3,133.9,100.4,133.8,100.5,133.6z"/>
				<path class="st5" d="M100.3,134.1c-0.2,0.5-0.5,1-0.7,1.6c-0.6,1.3-1.2,2.6-1.7,3.8c-0.9,2.2-1.8,4.4-2.7,6.6
					c-1.9,4.7-3.6,9.5-5.1,14.4v0.1H90v-0.1c1.4-4.5,3-8.9,4.7-13.4c0.1-0.3,0.2-0.6,0.4-0.9l0,0c0.9-2.2,1.8-4.4,2.7-6.6
					C98.6,137.8,99.4,135.9,100.3,134.1z"/>
				<path class="st5" d="M99.9,90.8c-0.1,0.1-0.2,0.1-0.3,0.2l0,0C99.7,90.9,99.8,90.8,99.9,90.8z"/>
				<path class="st5" d="M99.6,91L99.6,91c-0.5,0.3-1.1,0.6-1.6,0.8C98.5,91.5,99.1,91.2,99.6,91z"/>
				<path class="st5" d="M97.9,139.5c0.5-1.3,1.1-2.6,1.7-3.8c-1.5,3.3-2.8,6.6-4.1,9.9c-0.1,0.2-0.2,0.4-0.3,0.7
					c-1.9,4.7-3.6,9.5-5.1,14.4l0,0v-0.1c1.5-4.9,3.2-9.7,5.1-14.4C96.1,143.9,97,141.7,97.9,139.5z"/>
				<path class="st5" d="M96,153.7c0.8-2.1,1.6-4,2.4-6C97.6,149.7,96.8,151.7,96,153.7z"/>
				<path class="st5" d="M96.1,153.9L96.1,153.9c-0.3,0.5-0.5,1-0.8,1.5c0,0.1-0.1,0.2-0.1,0.2c-0.6,1.1-1.3,2.2-1.9,3.4
					c0,0.1-0.1,0.1-0.1,0.2c-0.3,0.4-0.5,0.9-0.8,1.4l0,0l0,0c0.3-0.5,0.5-0.9,0.7-1.4c0-0.1,0.1-0.1,0.1-0.2
					c0.7-1.1,1.3-2.3,1.9-3.4c0-0.1,0.1-0.1,0.1-0.2C95.5,154.9,95.8,154.4,96.1,153.9z"/>
				<path class="st5" d="M95.9,121.1c-0.1-0.1-0.2-0.1-0.3-0.2l-0.1-0.1c0.1,0,0.1,0.1,0.2,0.1c0,0,0,0,0.1,0.1
					C95.8,121,95.8,121.1,95.9,121.1z"/>
				<path class="st2" d="M95.6,120.9c0.1,0.1,0.2,0.1,0.3,0.2C95.8,121.1,95.7,121,95.6,120.9z"/>
				<path class="st5" d="M95.6,120.9C95.6,120.9,95.7,120.9,95.6,120.9C95.6,120.9,95.5,120.9,95.6,120.9L95.6,120.9l-0.2-0.2
					C95.4,120.8,95.5,120.8,95.6,120.9z"/>
				<path class="st2" d="M95.4,120.8L95.4,120.8L95.4,120.8z"/>
				<path class="st5" d="M95.6,120.9c-0.1-0.1-0.2-0.1-0.3-0.2l-0.5-0.3c-0.2-0.1-0.3-0.2-0.5-0.3C94.8,120.3,95.2,120.5,95.6,120.9
					z"/>
				<path class="st2" d="M95.3,120.7c-0.3-0.2-0.6-0.4-1-0.6c0.2,0.1,0.3,0.2,0.5,0.3L95.3,120.7z"/>
				<path class="st2" d="M94.8,120.4c-0.2-0.1-0.3-0.2-0.5-0.3c-0.1,0-0.2-0.1-0.2-0.2c0.1,0,0.2,0.1,0.3,0.2
					C94.5,120.1,94.7,120.2,94.8,120.4z"/>
				<path class="st5" d="M95.4,120.4c-0.4-0.3-0.8-0.5-1.2-0.7C94.6,119.9,95,120.1,95.4,120.4z"/>
				<path class="st5" d="M95.1,155.6c-0.6,1.1-1.2,2.3-1.9,3.4C93.8,157.9,94.4,156.8,95.1,155.6z"/>
				<path class="st4" d="M93.4,119.5c-0.1,0-0.2-0.1-0.3-0.1c0.1,0,0.1,0,0.2,0.1C93.3,119.4,93.3,119.5,93.4,119.5z"/>
				<path class="st4" d="M93.2,119.4c-0.1,0-0.1,0-0.2-0.1l0,0C93.1,119.4,93.2,119.4,93.2,119.4z"/>
				<path class="st4" d="M93.2,119.4c-0.1,0-0.1,0-0.2-0.1l0,0l0,0h-0.1c-0.1-0.1-0.2-0.1-0.3-0.2C92.8,119.2,93,119.3,93.2,119.4z"
					/>
				<path class="st5" d="M93.1,119.4L93.1,119.4L93.1,119.4L93.1,119.4z"/>
				<path class="st5" d="M93,119.3L93,119.3L93,119.3L93,119.3z"/>
				<path class="st4" d="M93,119.3L93,119.3L93,119.3L93,119.3z"/>
				<path class="st5" d="M93,119.3C93,119.3,92.9,119.3,93,119.3c-0.2-0.1-0.2-0.1-0.3-0.2C92.8,119.2,92.9,119.3,93,119.3L93,119.3
					L93,119.3z"/>
				<path class="st4" d="M92.9,119.3L92.9,119.3c-0.1-0.1-0.2-0.1-0.3-0.1c0,0,0,0-0.1-0.1c0,0,0,0,0.1,0l0,0
					C92.8,119.2,92.9,119.2,92.9,119.3z"/>
				<path class="st5" d="M92.9,119.3c-0.1,0-0.2-0.1-0.2-0.1l0,0l0,0l0,0l0,0C92.8,119.2,92.8,119.2,92.9,119.3z"/>
				<path class="st5" d="M92.7,119.2L92.7,119.2L92.7,119.2c-0.2,0-0.2,0-0.2-0.1C92.5,119.1,92.6,119.2,92.7,119.2L92.7,119.2z"/>
				<path class="st5" d="M92.7,119.2L92.7,119.2c-0.1,0-0.1,0-0.2,0c0,0,0,0-0.1,0c0,0,0,0-0.1,0c-0.1-0.1-0.3-0.1-0.4-0.2
					c0.2,0.1,0.3,0.1,0.5,0.2c0,0,0,0,0.1,0C92.6,119.1,92.6,119.1,92.7,119.2z"/>
				<path class="st5" d="M92.7,119.2c0,0-0.1,0-0.2-0.1C92.6,119.1,92.6,119.1,92.7,119.2C92.6,119.1,92.6,119.1,92.7,119.2z"/>
				<path class="st5" d="M92.7,119.1C92.6,119.1,92.6,119.1,92.7,119.1L92.7,119.1C92.6,119.1,92.6,119.1,92.7,119.1z"/>
				<path class="st4" d="M92.6,119.1L92.6,119.1L92.6,119.1L92.6,119.1L92.6,119.1z"/>
				<path class="st4" d="M92.6,119.1L92.6,119.1C92.5,119.1,92.5,119.1,92.6,119.1c-0.5-0.2-0.9-0.3-1.2-0.5c0.1,0,0.3,0.1,0.4,0.1
					C92,118.8,92.3,118.9,92.6,119.1z"/>
				<path class="st5" d="M92.4,160.6L92.4,160.6L92.4,160.6c0,0.1,0,0.1-0.1,0.2l-0.8-0.1l0,0c-0.2-0.1-0.5-0.2-0.6-0.2H91
					L92.4,160.6z"/>
				<path class="st4" d="M92.3,119.1c-0.1-0.1-0.2-0.1-0.4-0.1c-1.2-0.4-2.6-0.7-3.9-0.8c0.8,0.1,1.6,0.2,2.3,0.3
					c0.5,0.1,0.9,0.2,1.4,0.4c0.1,0,0.1,0,0.2,0.1C92.1,118.9,92.2,119,92.3,119.1z"/>
				<path class="st5" d="M92.2,160.8h-0.6l0,0H92.2z"/>
				<path class="st1" d="M91.9,161.1c0.3,13.8-3.8,27.4-8.2,40.6h-2.3c1.6-13.9,4.5-27.7,8.7-41.1l0.2,0.1h0.1
					c0.4,0.1,0.8,0.3,1.2,0.4H91.9z"/>
				<path class="st4" d="M91.8,118.8c-0.4-0.1-0.9-0.3-1.4-0.4c-1.3-0.3-2.7-0.5-4.1-0.5c1.7,0,3.3,0.2,4.9,0.6
					C91.4,118.7,91.6,118.8,91.8,118.8z"/>
				<path class="st5" d="M92.9,146.3c-0.9,2.1-1.7,4.3-2.4,6.4c-0.1,0.3-0.2,0.6-0.3,1c-0.7,1.8-1.3,3.6-1.9,5.5
					C89.6,154.9,91.1,150.5,92.9,146.3z"/>
				<path class="st5" d="M91.6,160.8L91.6,160.8L91.6,160.8L91.6,160.8L91.6,160.8z"/>
				<path class="st5" d="M90.8,160.7l0.7,0.1L90.8,160.7L90.8,160.7z"/>
				<path class="st4" d="M91.7,118.7c-0.1,0-0.3-0.1-0.4-0.1c-0.4-0.1-0.7-0.3-1.1-0.4C90.7,118.4,91.2,118.5,91.7,118.7z"/>
				<path class="st4" d="M91.2,118.6c-1.5-0.4-3.2-0.6-4.9-0.6c-0.2,0-0.4,0-0.6,0c-1.5,0.1-2.9,0.3-4.3,0.7
					c-0.5,0.2-1.1,0.4-1.6,0.6c-2.4,1-4.6,2.5-6.5,4.2c-0.9,0.9-1.8,1.8-2.6,2.7c-2,2.3-3.7,4.8-5.3,7.3c-1.3,1.9-2.5,3.8-3.7,5.7
					c-0.5,0.8-1.1,1.7-1.6,2.5c-0.6,1-1.2,1.9-1.8,2.9c-2.3,3.8-4.4,7.7-6.5,11.6c-0.8,1.6-1.6,3.1-2.4,4.7c-1.4,2.8-2.7,5.4-4,8.2
					c4.5-13.6,10.9-26.8,19.1-39.2c0.7-1,1.4-2,2.1-3c0.3-0.4,0.7-0.9,1-1.3c0.4-0.4,0.7-0.9,1.1-1.3c1.6-1.8,3.5-3.5,5.7-4.7
					c2.8-1.6,5.9-2.3,9.1-2.3h0.1c0.4,0,0.7,0,1,0s0.5,0,0.8,0c0.2,0,0.4,0,0.6,0.1c0.2,0,0.4,0,0.6,0.1c0.2,0,0.4,0.1,0.7,0.1
					c0.2,0,0.4,0.1,0.7,0.1c0.1,0,0.1,0,0.2,0c0.2,0,0.4,0.1,0.6,0.1c0.2,0.1,0.4,0.1,0.7,0.2l0,0h0.1c0.1,0,0.2,0.1,0.3,0.1
					C90.4,118.3,90.8,118.4,91.2,118.6z"/>
				<path class="st5" d="M90,160.5c1.4-4.5,3-9,4.7-13.4C93,151.6,91.4,156,90,160.5z"/>
				<path class="st5" d="M90.8,160.7L90.8,160.7C90.7,160.7,90.7,160.7,90.8,160.7L90.8,160.7z"/>
				<path class="st4" d="M90,118.2c-0.1,0-0.2-0.1-0.3-0.1l0,0h-0.1l0,0c-0.2-0.1-0.3-0.1-0.5-0.1c0,0-0.1,0-0.2,0
					c-0.2,0-0.4-0.1-0.6-0.1c-0.1,0-0.1,0-0.2,0c-0.2-0.1-0.5-0.1-0.8-0.2C88.3,117.7,89.2,117.9,90,118.2z"/>
				<path class="st4" d="M89.9,118.2c-0.1,0-0.2-0.1-0.3-0.1l0,0C89.8,118.1,89.9,118.1,89.9,118.2z"/>
				<path class="st5" d="M84.4,98.4c3.6-1.7,7.2-3.4,10.8-5.2C91.7,95,88.1,96.7,84.4,98.4z"/>
				<path class="st4" d="M89.6,118c-0.2-0.1-0.4-0.1-0.7-0.2c0,0,0.1,0,0.2,0C89.2,117.9,89.4,118,89.6,118z"/>
				<path class="st4" d="M89.1,117.9c0,0-0.1,0-0.2,0C88.9,117.9,89,117.9,89.1,117.9z"/>
				<path class="st5" d="M92,118.9c-1-0.3-2.1-0.6-3.2-0.7h-0.1c-1.5-0.2-3.1-0.2-4.6,0c0.6-0.1,1.3-0.2,1.9-0.2
					c0.7,0,1.4,0,2.1,0.1C89.4,118.2,90.8,118.5,92,118.9z"/>
				<path class="st4" d="M88.9,117.9c-0.2,0-0.4-0.1-0.6-0.1C88.5,117.8,88.7,117.8,88.9,117.9z"/>
				<path class="st4" d="M88.1,117.7c-0.2,0-0.4-0.1-0.7-0.1c-0.2,0-0.4-0.1-0.7-0.1c-0.2,0-0.4-0.1-0.6-0.1c0.1,0,0.2,0,0.3,0
					c0.3,0,0.6,0.1,0.8,0.1C87.6,117.6,87.9,117.6,88.1,117.7z"/>
				<path class="st4" d="M90.4,118.5c-0.8-0.2-1.5-0.3-2.3-0.3c-0.7-0.1-1.4-0.1-2.1-0.1c-0.8,0-1.7,0.1-2.5,0.3
					c-0.1,0-0.2,0-0.3,0.1c-0.2,0-0.4,0.1-0.6,0.1c-0.4,0.1-0.8,0.2-1.2,0.3c-0.5,0.2-1.1,0.4-1.6,0.6c0.1,0,0.1-0.1,0.2-0.1
					c1-0.4,2.1-0.8,3.2-1c0.8-0.2,1.7-0.3,2.5-0.3c0.2,0,0.4,0,0.6,0C87.7,118,89.1,118.2,90.4,118.5z"/>
				<path class="st4" d="M87.5,117.6c-0.2,0-0.4-0.1-0.7-0.1C87,117.5,87.3,117.5,87.5,117.6z"/>
				<path class="st5" d="M88.7,118.2c-2.4-0.3-4.8-0.1-7.1,0.6c0.8-0.2,1.6-0.4,2.4-0.6c0,0,0,0,0.1,0C85.6,118,87.2,118,88.7,118.2
					z"/>
				<path class="st4" d="M86.5,117.4c-0.1,0-0.2,0-0.3,0c-0.2,0-0.3,0-0.5-0.1C86,117.4,86.3,117.4,86.5,117.4z"/>
				<path class="st4" d="M85.7,117.3c0.2,0,0.3,0,0.5,0.1C86,117.4,85.8,117.4,85.7,117.3c-0.3,0-0.6,0-0.8,0
					C85.2,117.3,85.4,117.3,85.7,117.3z"/>
				<path class="st4" d="M85.7,118c-0.9,0.1-1.7,0.2-2.5,0.3c-1.1,0.2-2.2,0.6-3.3,1c-2.3,0.9-4.4,2.3-6.2,4
					c-0.1,0.1-0.2,0.2-0.4,0.3c-0.9,0.9-1.8,1.8-2.6,2.7c-2,2.3-3.8,4.9-5.4,7.4c-1.2,1.8-2.4,3.7-3.6,5.5c1.2-1.9,2.4-3.8,3.7-5.7
					c1.6-2.5,3.3-5,5.3-7.3c0.8-0.9,1.7-1.8,2.6-2.7c1.9-1.7,4.1-3.2,6.5-4.2c0.5-0.2,1.1-0.4,1.6-0.6
					C82.8,118.3,84.2,118.1,85.7,118z"/>
				<path class="st4" d="M85.6,117.3c-0.3,0-0.5,0-0.8,0h0.1C85.1,117.3,85.4,117.3,85.6,117.3z"/>
				<path class="st5" d="M86,118.1c-0.6,0-1.3,0.1-1.9,0.2c0,0,0,0-0.1,0c-0.2,0-0.3,0.1-0.5,0.1C84.3,118.2,85.2,118.1,86,118.1z"
					/>
				<path class="st5" d="M79.5,100.6c1.6-0.7,3.3-1.5,4.9-2.2C82.8,99.1,81.2,99.9,79.5,100.6z"/>
				<path class="st5" d="M84.2,241.2c0,0,0,0.1,0.1,0.1c-0.6-0.2-1.3-0.3-1.9-0.4c-0.3-0.1-0.6-0.1-1-0.2
					C82.4,240.9,83.3,241,84.2,241.2L84.2,241.2z"/>
				<path class="st5" d="M84.2,241.2L84.2,241.2c-0.9-0.2-1.9-0.3-2.8-0.5l0,0c-1.6-0.3-3.3-0.5-4.9-0.6c-2.3-0.2-4.6-0.2-7.1-0.1
					c2.1-2.5,4.2-5.1,6.3-7.6l0.1,0.1c0.8-0.3,1.6-0.7,2.4-1c0.1,0,0.2-0.1,0.3-0.1c0.1-0.1,0.2-0.1,0.2-0.1l0.1-0.1
					c0.2-0.1,0.3-0.1,0.5-0.2c0.2,0.2,0.3,0.5,0.3,0.6C80.5,235.1,82.1,238.3,84.2,241.2z"/>
				<path class="st5" d="M83.2,118.4c-0.2,0-0.4,0.1-0.6,0.1C82.8,118.4,83,118.4,83.2,118.4z"/>
				<path class="st5" d="M81.4,240.7c0.3,0.1,0.6,0.1,1,0.2c-1.9-0.3-3.8-0.5-5.8-0.7C78.2,240.3,79.8,240.4,81.4,240.7L81.4,240.7z
					"/>
				<path class="st5" d="M79.8,201.7h1.5c-0.2,2-0.4,4.1-0.5,6.2c-0.1,0.6-0.1,1.3-0.2,1.9l0,0v0.1c-0.4,0.1-0.7,0.3-1,0.4h-0.1
					l-0.2-0.1c0-0.1,0-0.2,0-0.3c0,0,0-0.1,0-0.2C79.4,207,79.6,204.4,79.8,201.7z"/>
				<path class="st4" d="M83.2,118.3c-1.1,0.2-2.2,0.6-3.2,1c-0.1,0-0.1,0.1-0.2,0.1s-0.2,0.1-0.4,0.2c-1.7,0.7-3.3,1.7-4.7,2.8
					c-0.3,0.2-0.5,0.4-0.8,0.6c-0.1,0.1-0.2,0.2-0.3,0.3c1.8-1.7,3.9-3,6.2-4C80.9,118.9,82,118.5,83.2,118.3z"/>
				<path class="st5" d="M80.6,209.8C80.6,209.8,80.6,209.9,80.6,209.8L80.6,209.8C80.6,209.9,80.6,209.8,80.6,209.8L80.6,209.8z"/>
				<path class="st5" d="M80.6,209.9C80.6,209.9,80.6,210,80.6,209.9C80.6,210,80.6,209.9,80.6,209.9L80.6,209.9z"/>
				<path class="st5" d="M80.6,210c0,0.3,0,0.7-0.1,1c-0.1,1.1-0.1,2.1-0.2,3.2c-0.3,5.4-0.4,10.7-0.3,16.1v0.1h-0.1l-0.1,0.1
					c0,0,0,0-0.1,0l0,0c0,0-0.1,0-0.1,0.1l0,0l0,0c0,0,0,0,0-0.1c0,0,0,0,0-0.1v-0.1c0-0.6-0.1-1.1-0.1-1.6
					c-0.1-1.4-0.2-2.8-0.2-4.2v-0.1c-0.1-3.9-0.1-7.9,0-11.8c0-0.5,0-1,0.1-1.5V211v-0.1c0-0.2,0-0.4,0-0.5h0.2
					c0.2-0.1,0.5-0.3,0.8-0.4C80.4,210,80.5,209.9,80.6,210C80.6,209.9,80.6,210,80.6,210z"/>
				<path class="st5" d="M80.5,211c-0.1,1.1-0.1,2.1-0.2,3.2C80.4,213.1,80.4,212.1,80.5,211z"/>
				<path class="st5" d="M80,230.4c0,0,0,0,0,0.1c-0.1,0.1-0.3,0.1-0.4,0.1l0.1-0.1c0,0,0,0,0.1,0l0,0
					C79.8,230.5,79.9,230.4,80,230.4z"/>
				<path class="st5" d="M79.8,230.5L79.8,230.5L79.8,230.5L79.8,230.5z"/>
				<path class="st5" d="M79.8,201.7c-0.2,2.8-0.4,5.3-0.5,8C79.4,207,79.5,204.4,79.8,201.7z"/>
				<path class="st5" d="M79.8,201.7c-0.3,2.7-0.4,5.3-0.5,8c0,0,0,0.1,0,0.2c0,0.1,0,0.2,0,0.3v0.1c0,0.1,0,0.3,0,0.5h-0.1
					c0-0.2,0-0.4,0-0.6C79.3,207.3,79.5,204.6,79.8,201.7L79.8,201.7z"/>
				<path class="st5" d="M79.7,230.5L79.7,230.5c-0.1,0.1-0.1,0.1-0.1,0.1l0,0l0,0C79.7,230.5,79.7,230.5,79.7,230.5z"/>
				<path class="st5" d="M79.6,230.6c0,0.3,0,0.7,0.1,1c-0.1-0.1-0.1-0.2-0.1-0.4c0,0,0,0,0-0.1s0-0.2-0.1-0.3
					C79.5,230.8,79.5,230.8,79.6,230.6L79.6,230.6C79.5,230.7,79.6,230.6,79.6,230.6z"/>
				<path class="st5" d="M79.6,230.4C79.6,230.5,79.6,230.5,79.6,230.4C79.6,230.5,79.6,230.5,79.6,230.4
					C79.6,230.5,79.6,230.5,79.6,230.4c-0.2-3-0.4-6-0.5-9c0-0.1,0-0.1,0-0.2c0-0.9,0-1.9,0-2.8c0-2,0-4,0.1-6c0-0.1,0-0.2,0.1-0.3
					c-0.2,4.1-0.1,8.2,0.1,12.2v0.1c0,1.4,0.1,2.8,0.2,4.2c0,0.6,0.1,1.1,0.1,1.6C79.6,230.4,79.6,230.4,79.6,230.4z"/>
				<path class="st5" d="M64.9,201.9l14.7-0.2c-0.2,2.9-0.4,5.6-0.5,8.5c0,0.2,0,0.4,0,0.6h-0.3c-1.1-0.3-2.2-0.6-3.3-0.9h-0.3
					c-0.7-0.7-1.4-1.4-2.2-2c-0.5-0.5-1-0.9-1.5-1.3c-0.8-0.7-1.7-1.3-2.6-2C67.6,203.6,66.2,202.8,64.9,201.9L64.9,201.9z"/>
				<path class="st5" d="M79.6,230.4C79.6,230.5,79.6,230.5,79.6,230.4c0,0.1,0,0.1,0,0.1h-0.1c-0.1-0.9-0.1-1.8-0.2-2.7
					c0,0.8,0.1,1.6,0.2,2.4C79.6,230.4,79.6,230.4,79.6,230.4z"/>
				<path class="st5" d="M79.5,230.6C79.5,230.6,79.6,230.6,79.5,230.6C79.6,230.6,79.6,230.6,79.5,230.6c0,0.1,0,0.1,0,0.1v0.1
					C79.5,230.7,79.5,230.7,79.5,230.6z"/>
				<path class="st5" d="M79.6,230.4c0-0.1,0-0.1-0.1-0.1c-0.1-0.8-0.1-1.6-0.2-2.4c-0.1-1.1-0.1-2.3-0.2-3.4c0-1-0.1-2-0.1-3
					C79.2,224.5,79.4,227.5,79.6,230.4z"/>
				<path class="st5" d="M79.5,230.9c0,0.1,0.1,0.2,0.1,0.3C79.6,231.1,79.5,231,79.5,230.9z"/>
				<path class="st5" d="M79.4,230.9c-0.1,0-0.1,0-0.2,0S79.1,231,79,231l-0.3,0.1c-0.1,0-0.2,0.1-0.2,0.1l-0.3-0.8
					c-11.4-14.3-29-24.4-48-27.7l0.1-0.4l34.2-0.4h-0.1c0,0,0.1,0,0.2,0c1.5,0.9,2.9,1.8,4.2,2.8c0.9,0.6,1.7,1.3,2.6,2
					c0.5,0.4,1,0.9,1.5,1.3c0.7,0.7,1.5,1.3,2.2,2l0.1,0.1h0.4c1.1,0.3,2.2,0.6,3.3,0.9h0.3c-0.1,2.2-0.1,4.4-0.1,6.6
					c0,2.3,0.1,4.6,0.1,6.9c0,1.1,0.1,2.3,0.2,3.4c0,0.9,0.1,1.8,0.2,2.7C79.5,230.7,79.5,230.7,79.4,230.9
					C79.5,230.8,79.4,230.8,79.4,230.9z M70.7,206.3c-0.6-0.5-1.3-1-1.9-1.5C69.4,205.2,70.1,205.8,70.7,206.3z"/>
				<polygon class="st5" points="79.5,210.3 79.3,210.3 79.3,210.2 				"/>
				<path class="st4" d="M79.4,119.6c-0.1,0.1-0.2,0.1-0.4,0.2c-1.5,0.7-3,1.6-4.3,2.6C76.2,121.2,77.7,120.3,79.4,119.6z"/>
				<path class="st5" d="M79.3,224.5c0,1.4,0.1,2.8,0.2,4.2C79.4,227.3,79.3,225.9,79.3,224.5z"/>
				<path class="st5" d="M79.3,210.8C79.3,210.9,79.3,210.9,79.3,210.8l-0.1,0.1L79.3,210.8L79.3,210.8L79.3,210.8z"/>
				<rect x="79.2" y="210.9" class="st5" width="0.1" height="0.1"/>
				<path class="st5" d="M79.3,211c0,0.4,0,0.8,0,1.1l0,0c0,0.1,0,0.2-0.1,0.3c-0.1,2-0.1,4-0.1,6c0,0.9,0,1.9,0,2.8
					c0-1.2-0.1-2.5-0.1-3.7c0-2.2,0-4.4,0.1-6.6L79.3,211L79.3,211z"/>
				<path class="st5" d="M79.3,212.1c0-0.4,0-0.8,0-1.1C79.3,211.4,79.3,211.8,79.3,212.1z"/>
				<path class="st5" d="M79,231c0.1,0,0.1,0,0.3,0c-0.2,0.1-0.4,0.2-0.5,0.2L79,231z"/>
				<path class="st5" d="M75.5,210h0.2c1.1,0.3,2.2,0.6,3.3,0.9h0.2v0.1h-0.3c-1.1-0.3-2.2-0.6-3.3-0.9h-0.4l-0.1-0.1
					c-0.7-0.7-1.5-1.3-2.2-2c-0.5-0.4-1-0.9-1.5-1.3c-0.9-0.7-1.7-1.4-2.6-2c-1.3-1-2.7-1.9-4.2-2.8h0.2c0.2,0.1,0.3,0.2,0.5,0.3
					c2.8,1.8,5.5,3.8,8,6c0.6,0.6,1.2,1.1,1.9,1.7h0.1l0.1,0.1H75.5z"/>
				<path class="st5" d="M79.2,210.8L79.2,210.8l-0.2,0.1c-1.1-0.3-2.2-0.6-3.3-0.9h-0.2h-0.2l-0.1-0.1h0.3c1.1,0.3,2.2,0.6,3.3,0.9
					H79.2L79.2,210.8z"/>
				<path class="st5" d="M79.1,221.5c0,1,0,2,0.1,3c-0.1-2.3-0.1-4.6-0.1-6.9c0,1.2,0,2.5,0.1,3.7C79.1,221.3,79.1,221.4,79.1,221.5
					z"/>
				<path class="st5" d="M79.2,230.9c-0.1,0.1-0.1,0.1-0.2,0.1C79.1,231,79.1,230.9,79.2,230.9z"/>
				<path class="st5" d="M78.6,231.2L78.6,231.2L78.6,231.2z"/>
				<path class="st5" d="M76.5,240.1c1.7,0.1,3.3,0.3,4.9,0.6C79.8,240.4,78.2,240.3,76.5,240.1c-2.3-0.1-4.7-0.1-7,0h-0.1V240
					C71.9,239.9,74.2,239.9,76.5,240.1z"/>
				<path class="st4" d="M74.8,122.4c1.3-1,2.8-1.9,4.3-2.6c-2.1,1-4,2.4-5.7,3.9c-0.9,0.8-1.8,1.7-2.6,2.7c-2,2.3-3.8,4.8-5.4,7.4
					c-4.9,7.3-9.3,14.8-13.4,22.5c-0.8,1.6-1.6,3.1-2.4,4.7c-1.5,2.9-2.9,5.9-4.3,8.9c0-0.2,0.1-0.3,0.2-0.5c2.8-6,5.8-12,9-17.9
					c0.3-0.5,0.6-1.1,0.9-1.6c3.1-5.5,6.4-10.9,9.9-16.2c1.6-2.5,3.4-5.1,5.4-7.4c0.8-0.9,1.7-1.8,2.6-2.7c0.2-0.2,0.5-0.4,0.7-0.6
					C74.3,122.8,74.5,122.6,74.8,122.4z"/>
				<path class="st5" d="M75.2,209.9L75.2,209.9c-0.7-0.6-1.3-1.2-2-1.7c-2.4-2.2-5.1-4.2-8-6c-0.2-0.1-0.3-0.2-0.5-0.3l0,0
					c1.3,0.9,2.7,1.7,4.1,2.7c0.9,0.7,1.8,1.3,2.6,2c0.5,0.4,1,0.8,1.5,1.3C73.8,208.5,74.5,209.2,75.2,209.9z"/>
				<path class="st4" d="M74,123c-0.2,0.2-0.5,0.4-0.7,0.6c0.1-0.1,0.2-0.2,0.4-0.3C73.8,123.2,73.9,123.1,74,123z"/>
				<path class="st3" d="M73.4,103.3c-2.3,2.3-4.5,4.5-6.7,6.8c-2.3,2.3-4.5,4.7-6.8,7c0,0,0,0,0,0.1c0,0,0,0-0.1,0
					c0-0.1,0-0.2,0.1-0.3c-0.1,0-0.1,0.1-0.1,0.1v-0.1c4.5-4.6,9-9.2,13.4-13.8c0,0,0,0,0.1,0C73.3,103.2,73.4,103.2,73.4,103.3z"/>
				<path class="st3" d="M73.3,103.1C73.2,103.1,73.2,103.1,73.3,103.1c-4.5,4.6-9,9.2-13.5,13.8v0.1c0,0,0-0.1,0.1-0.1
					c0,0.1,0,0.2-0.1,0.3c-0.2-0.1-0.3-0.1-0.5-0.2s-0.5-0.2-0.7-0.3l-0.4-0.2c0.1-0.1,0.2-0.2,0.3-0.3c2.5-3.2,5.2-6.4,8.1-9.4
					c1.8-1.9,3.6-3.8,5.5-5.6C72.5,101.8,72.9,102.4,73.3,103.1z"/>
				<path class="st5" d="M73.1,120.3c-0.3,0.2-0.5,0.4-0.8,0.6C72.5,120.7,72.8,120.5,73.1,120.3z"/>
				<path class="st2" d="M73.4,103.3c-1.8,1.9-3.7,3.8-5.6,5.8C69.7,107.1,71.5,105.2,73.4,103.3z"/>
				<path class="st2" d="M73.4,103.3c-1.9,1.9-3.7,3.8-5.6,5.8c-2.6,2.7-5.2,5.3-7.8,8C64.5,112.5,68.9,107.9,73.4,103.3z"/>
				<path class="st2" d="M66.7,110.1c2.2-2.3,4.4-4.5,6.7-6.8c-4.5,4.6-8.9,9.2-13.4,13.8C62.2,114.7,64.5,112.4,66.7,110.1z"/>
				<path class="st5" d="M68.8,204.8c0.7,0.4,1.3,0.9,1.9,1.5C70.1,205.8,69.4,205.2,68.8,204.8z"/>
				<path class="st4" d="M66.7,127c-0.7,1-1.4,2-2.1,2.9c-8.3,12.6-14.9,25.9-19.4,39.9l0,0v-0.1c0,0.1,0,0.1,0,0.2v0.1l0,0l0,0
					c0,0.1-0.1,0.1-0.1,0.2H45c4.6-14.1,11.2-27.5,19.5-40.1C65.1,129,65.9,127.9,66.7,127z"/>
				<path class="st2" d="M65.5,108c0.3-0.4,0.7-0.8,1.1-1.2c-2.9,3.1-5.6,6.3-8.1,9.4c1.2-1.6,2.5-3.1,3.8-4.7
					C63.3,110.3,64.4,109.2,65.5,108z"/>
				<path class="st5" d="M65.3,202.2c2.9,1.8,5.5,3.8,8,6C70.8,206,68.1,204.1,65.3,202.2z"/>
				<path class="st2" d="M64.5,109.1c0.3-0.4,0.7-0.7,1-1.1c-1.1,1.2-2.2,2.4-3.2,3.6c0.3-0.4,0.7-0.8,1.1-1.2
					C63.7,109.9,64.1,109.5,64.5,109.1z"/>
				<path class="st5" d="M64.9,201.9L64.9,201.9c-0.1,0-0.2-0.1-0.2-0.1L64.9,201.9C64.8,201.9,64.8,201.9,64.9,201.9z"/>
				<path class="st5" d="M64.8,201.9L64.8,201.9L64.8,201.9z"/>
				<path class="st5" d="M64.7,201.8c0.1,0,0.1,0.1,0.2,0.1l0,0C64.8,201.9,64.7,201.8,64.7,201.8L64.7,201.8z"/>
				<path class="st5" d="M64.8,201.9l-0.1-0.1C64.8,201.8,64.8,201.8,64.8,201.9z"/>
				<path class="st5" d="M64.8,201.9h-0.2l-0.1-0.1c0.1,0,0.1,0,0.2,0C64.7,201.8,64.8,201.9,64.8,201.9z"/>
				<path class="st5" d="M64.7,201.8L64.7,201.8C64.7,201.8,64.6,201.8,64.7,201.8L64.7,201.8z"/>
				<path class="st5" d="M64.6,201.8C64.6,201.8,64.7,201.8,64.6,201.8c0,0.1-0.1,0-0.2,0c0,0,0,0-0.1,0H64.6z"/>
				<path class="st5" d="M64.5,201.8c0.1,0,0.1,0.1,0.1,0.1C64.5,201.9,64.4,201.9,64.5,201.8c-0.1,0-0.1,0-0.2,0H64.5L64.5,201.8
					C64.4,201.8,64.4,201.8,64.5,201.8z"/>
				<path class="st5" d="M64.5,201.9l-34.2,0.4v-0.1l34-0.4l0,0C64.4,201.8,64.4,201.8,64.5,201.9C64.4,201.9,64.5,201.9,64.5,201.9
					z"/>
				<path class="st5" d="M64.4,201.8L64.4,201.8L64.4,201.8c-0.8-0.4-1.5-0.9-2.2-1.3c-0.4-0.3-0.9-0.6-1.4-0.8
					c-0.8-0.4-1.5-0.8-2.3-1.2c0.8,0.4,1.6,0.8,2.4,1.2C62.1,200.4,63.2,201.1,64.4,201.8C64.3,201.8,64.4,201.8,64.4,201.8z"/>
				<path class="st5" d="M64.3,201.8l-34,0.4h-0.1c0,0.1,0,0.1,0,0.1h-0.1c0,0,0,0,0-0.1l0.5-2.8c0.9-4.6,1.3-6.5,1.7-8.4h0.1
					c0.9,0.1,1.7,0.2,2.6,0.3c6.2,0.9,12.3,2.5,18.1,4.9h0.1c1.3,0.5,2.6,1.1,3.9,1.7c0.5,0.2,1.1,0.5,1.6,0.8
					c0.2,0.1,0.3,0.1,0.5,0.2c0.6,0.3,1.2,0.6,1.8,0.9c0.4,0.2,0.8,0.5,1.3,0.7C62.9,200.9,63.6,201.4,64.3,201.8z"/>
				<path class="st4" d="M61.7,139.2c1.2-1.9,2.4-3.7,3.6-5.5c-3.5,5.3-6.8,10.7-9.9,16.2c1-1.8,2-3.5,3-5.2c0.6-1,1.2-2,1.8-2.9
					C60.7,140.9,61.2,140,61.7,139.2z"/>
				<path class="st2" d="M67.8,109.1c-2.6,2.7-5.1,5.4-7.8,8l0,0l0,0c0,0,0,0,0,0.1c0,0,0,0,0-0.1l0,0l0,0l0,0
					C62.7,114.4,65.3,111.7,67.8,109.1z"/>
				<path class="st2" d="M63.3,110.3c-0.3,0.4-0.7,0.8-1.1,1.2c-1.3,1.5-2.6,3.1-3.8,4.7c-0.1,0.1-0.2,0.2-0.3,0.3l0,0l0,0l0,0
					C59.8,114.5,61.5,112.4,63.3,110.3z"/>
				<path class="st5" d="M60,117.1C60,117.1,59.9,117.1,60,117.1C59.9,117.1,59.9,117.1,60,117.1c2.2-2.3,4.4-4.7,6.7-7
					C64.5,112.4,62.2,114.7,60,117.1L60,117.1z"/>
				<path class="st5" d="M62.2,200.5c0.7,0.4,1.4,0.8,2.1,1.3C63.6,201.4,62.9,200.9,62.2,200.5z"/>
				<path class="st5" d="M60.9,199.7c1.2,0.7,2.3,1.4,3.4,2.1C63.2,201.1,62.1,200.4,60.9,199.7z"/>
				<path class="st4" d="M61.7,139.2c-0.5,0.8-1.1,1.7-1.6,2.5C60.7,140.9,61.2,140,61.7,139.2z"/>
				<path class="st5" d="M60.8,199.7c0.5,0.3,0.9,0.6,1.4,0.8c-0.4-0.2-0.8-0.5-1.3-0.7c-1.1-0.6-2.2-1.2-3.3-1.7
					c-0.6-0.3-1.1-0.6-1.7-0.8c-0.4-0.2-0.8-0.4-1.2-0.5c1.3,0.6,2.5,1.1,3.8,1.8C59.3,198.9,60,199.3,60.8,199.7z"/>
				<path class="st5" d="M60.9,199.8c-0.6-0.3-1.2-0.6-1.8-0.9c-0.2-0.1-0.3-0.1-0.5-0.2c-0.4-0.2-0.7-0.4-1.1-0.6
					C58.7,198.6,59.8,199.2,60.9,199.8z"/>
				<path class="st5" d="M60,117.1C60.1,117.1,60.1,117.1,60,117.1C60.1,117.1,60,117.1,60,117.1L60,117.1z"/>
				<path class="st5" d="M60,117.1L60,117.1C60,117.2,60,117.2,60,117.1C60,117.2,60,117.2,60,117.1L60,117.1
					C60,117.1,60.1,117.1,60,117.1c0,0.1,0,0.1,0,0.3c-1.8,8.3-4.4,16.2-7.7,23.9c-0.8,1.8-1.6,3.6-2.5,5.4
					c-0.4,0.9-0.9,1.8-1.3,2.7c0,0.1-0.1,0.1-0.1,0.2c-0.5,0.9-0.9,1.8-1.4,2.7c-0.9,1.7-1.8,3.4-2.8,5c-0.3,0.5-0.6,1-0.9,1.6
					c-2.2,3.6-4.5,7.2-6.9,10.7l0,0c0-0.1,0-0.1,0-0.2c0,0-0.1,0-0.1,0.1c0,0,0,0,0-0.1l0,0c4.5-6.4,8.5-13,12-19.8
					c0.1-0.1,0.1-0.2,0.2-0.3c0.5-0.9,0.9-1.8,1.3-2.7c0.2-0.5,0.5-0.9,0.7-1.4s0.5-1.1,0.7-1.6s0.5-1,0.7-1.5
					c0.7-1.5,1.3-3,1.9-4.5c0.4-1,0.8-2,1.2-3s0.8-2,1.1-3.1c0.2-0.5,0.4-1,0.5-1.5c1-2.9,1.8-5.8,2.5-8.8c0-0.2,0.1-0.3,0.1-0.5
					c0.2-0.6,0.3-1.2,0.4-1.7l0,0C59.7,118.4,59.8,117.8,60,117.1C59.9,117.1,60,117.1,60,117.1L60,117.1z"/>
				<path class="st5" d="M60,117.1L60,117.1L60,117.1L60,117.1z"/>
				<path class="st5" d="M60,117.4c0-0.2,0-0.2,0.1-0.3c-0.4,1.8-0.8,3.5-1.2,5.3c-0.2,0.8-0.4,1.6-0.6,2.4
					c-0.2,0.6-0.3,1.2-0.5,1.8c-0.4,1.2-0.7,2.4-1.1,3.6c-0.3,1-0.7,2.1-1.1,3.1c-1,2.7-2,5.4-3.2,8C55.6,133.6,58.2,125.7,60,117.4
					z"/>
				<path class="st5" d="M59.9,117.2c-0.1,0.6-0.2,1.2-0.4,1.8C59.6,118.4,59.8,117.8,59.9,117.2L59.9,117.2z"/>
				<path class="st5" d="M59.9,117.2L59.9,117.2L59.9,117.2L59.9,117.2z"/>
				<path class="st5" d="M59.8,117.2L59.8,117.2c-0.1,0-0.3-0.1-0.3-0.1l0,0c-0.1,0-0.2-0.1-0.3-0.1c0,0-0.1,0-0.2-0.1
					c0.1,0,0.2,0.1,0.3,0.1C59.5,117.1,59.7,117.1,59.8,117.2z"/>
				<path class="st5" d="M59.8,117.2c-0.1,0.6-0.2,1.2-0.3,1.8l0,0c-0.1,0.6-0.3,1.2-0.4,1.7c0,0.2-0.1,0.3-0.1,0.5
					c-0.1,0.3-0.2,0.7-0.3,1c-0.7,2.6-1.4,5.2-2.3,7.8c-0.2,0.5-0.3,1-0.5,1.5c-0.3,1-0.7,2-1.1,3.1c-0.4,1-0.8,2-1.2,3
					c-0.6,1.5-1.2,3-1.9,4.5c-0.2,0.5-0.4,1-0.7,1.5c-0.2,0.5-0.5,1.1-0.7,1.6s-0.4,0.9-0.7,1.4c-0.4,0.9-0.9,1.8-1.3,2.7
					c0,0.1-0.1,0.2-0.2,0.3c-3.5,6.8-7.5,13.3-12,19.8c0,0,0,0,0,0.1s-0.1,0.1-0.1,0.1l0.1,0.1v0.1c-0.7-0.1-1.4-0.3-2.1-0.4
					l-0.3-0.1c2.6-11.9,6.2-23.6,12.2-34.4c3.6-6.4,7.6-12.4,12.2-18.2c0.2,0.1,0.3,0.2,0.5,0.2c0,0-0.1,0-0.2,0
					c-0.1,0-0.2-0.1-0.4-0.1c0.5,0.1,0.9,0.3,1.3,0.4C59.6,117.1,59.8,117.2,59.8,117.2z"/>
				<path class="st5" d="M59.5,117.1L59.5,117.1c-0.4-0.1-0.8-0.3-1.3-0.4c0.1,0,0.2,0.1,0.4,0.1c0.1,0,0.1,0,0.2,0c0,0,0,0,0.1,0
					C59,116.9,59.2,117,59.5,117.1z"/>
				<path class="st5" d="M59.2,117c0.1,0,0.2,0.1,0.3,0.1c-0.2-0.1-0.5-0.2-0.7-0.2c0,0,0.1,0,0.2,0C59,116.9,59.1,116.9,59.2,117z"
					/>
				<path class="st5" d="M59.2,117c-0.1,0-0.2-0.1-0.2-0.1h0.1C59.1,116.9,59.2,116.9,59.2,117z"/>
				<path class="st5" d="M60.9,199.7c-0.8-0.4-1.6-0.8-2.4-1.2c-8.1-4.1-17-6.8-26.2-7.7l0,0C42.4,191.8,52.2,194.9,60.9,199.7z"/>
				<path class="st5" d="M58.7,122.2c0.1-0.3,0.2-0.7,0.3-1c-0.7,3-1.6,5.9-2.5,8.8C57.3,127.4,58,124.8,58.7,122.2z"/>
				<path class="st5" d="M58.3,124.8c0.2-0.8,0.4-1.6,0.6-2.4C58.7,123.2,58.5,124,58.3,124.8z"/>
				<path class="st5" d="M58.7,116.8c-0.1,0-0.1,0-0.2,0C58.6,116.8,58.7,116.8,58.7,116.8z"/>
				<path class="st5" d="M58.7,198.6c-0.5-0.3-1.1-0.5-1.6-0.8c0.2,0.1,0.3,0.1,0.5,0.2C58,198.3,58.3,198.4,58.7,198.6z"/>
				<path class="st5" d="M58.3,124.8c-0.2,0.6-0.3,1.2-0.5,1.8C57.9,126,58.1,125.4,58.3,124.8z"/>
				<path class="st5" d="M57.6,198.1c-0.2-0.1-0.3-0.2-0.5-0.2c-0.4-0.2-0.8-0.4-1.2-0.6C56.5,197.5,57,197.8,57.6,198.1z"/>
				<path class="st5" d="M55.9,197.3c0.4,0.2,0.8,0.4,1.2,0.6c-1.3-0.6-2.6-1.2-3.9-1.7h-0.1c-5.8-2.4-11.9-4-18.1-4.9
					c6.2,0.8,12.3,2.4,18.1,4.8h0.1c0.2,0.1,0.4,0.2,0.6,0.2c0.2,0.1,0.3,0.2,0.5,0.2C54.8,196.8,55.4,197,55.9,197.3z"/>
				<path class="st4" d="M51.9,156.2c2.1-3.9,4.2-7.8,6.5-11.6c-1,1.7-2,3.5-3,5.2c-0.3,0.5-0.6,1.1-0.9,1.6
					C53.6,153,52.8,154.6,51.9,156.2z"/>
				<path class="st5" d="M55.9,131.6c0.2-0.5,0.3-1,0.5-1.5C56.3,130.5,56.1,131,55.9,131.6z"/>
				<path class="st5" d="M56.6,130.2c-0.3,1-0.7,2.1-1.1,3.1C55.9,132.2,56.2,131.2,56.6,130.2z"/>
				<path class="st5" d="M54.7,196.7c0.4,0.2,0.8,0.3,1.2,0.5c-0.5-0.2-1.1-0.5-1.6-0.7C54.4,196.6,54.6,196.7,54.7,196.7z"/>
				<path class="st4" d="M55.4,149.9c-0.3,0.5-0.6,1.1-0.9,1.6C54.8,150.9,55.1,150.4,55.4,149.9z"/>
				<path class="st5" d="M54.8,134.6c0.4-1,0.7-2,1.1-3.1C55.6,132.6,55.2,133.6,54.8,134.6z"/>
				<path class="st5" d="M54.8,134.6c-0.4,1-0.8,2-1.2,3C54.1,136.6,54.5,135.6,54.8,134.6z"/>
				<path class="st5" d="M53.2,196.1c0.2,0.1,0.4,0.2,0.6,0.2C53.6,196.3,53.4,196.2,53.2,196.1L53.2,196.1z"/>
				<path class="st4" d="M51.9,156.2c0.8-1.6,1.7-3.2,2.6-4.7c-3.2,5.9-6.2,11.8-9,17.9c0-0.1,0.1-0.2,0.1-0.3
					c1.3-2.8,2.6-5.4,4-8.2C50.3,159.3,51.1,157.8,51.9,156.2z"/>
				<path class="st5" d="M53.2,196.1L53.2,196.1c-5.9-2.4-11.9-4-18.2-4.8c-0.9-0.1-1.7-0.2-2.6-0.3c5.1,0.5,10,1.5,14.8,2.9
					C49.2,194.6,51.2,195.3,53.2,196.1z"/>
				<path class="st5" d="M52.3,141.3c1.2-2.6,2.2-5.3,3.2-8C51,146,44.4,158,36.4,169.5c2.4-3.5,4.7-7,6.8-10.6
					c0.3-0.5,0.6-1.1,0.9-1.6c1-1.7,1.9-3.3,2.8-5c0.5-0.9,1-1.8,1.4-2.7c0-0.1,0.1-0.1,0.1-0.2c0.5-0.9,0.9-1.8,1.3-2.7
					C50.7,144.9,51.5,143.1,52.3,141.3z"/>
				<path class="st5" d="M51.1,143.6c0.2-0.5,0.4-1,0.7-1.5C51.5,142.6,51.3,143.1,51.1,143.6z"/>
				<path class="st5" d="M49.7,146.5c0.2-0.5,0.4-0.9,0.7-1.4C50.2,145.6,49.9,146.1,49.7,146.5z"/>
				<path class="st5" d="M48.5,149.4c0.4-0.9,0.9-1.8,1.3-2.7C49.4,147.6,48.9,148.5,48.5,149.4z"/>
				<path class="st5" d="M48.4,149.2c0.5-0.9,0.9-1.8,1.3-2.7C49.3,147.4,48.8,148.3,48.4,149.2z"/>
				<path class="st5" d="M46.9,152.3c0.5-0.9,1-1.8,1.4-2.7C47.9,150.5,47.4,151.4,46.9,152.3z"/>
				<path class="st4" d="M45.2,169.7c0,0.1,0,0.1,0,0.1s0,0,0,0.1C45.2,169.8,45.2,169.8,45.2,169.7z"/>
				<path class="st5" d="M45.1,170.1c0-0.1,0.1-0.1,0.1-0.2c0,0.1-0.1,0.2-0.2,0.4C45.1,170.2,45.1,170.1,45.1,170.1
					C45.1,170,45.1,170.1,45.1,170.1z"/>
				<path class="st5" d="M45.2,169.9L45.2,169.9L45.2,169.9z"/>
				<path class="st5" d="M45.1,170L45.1,170L45.1,170L45.1,170z"/>
				<path class="st4" d="M45.1,170L45.1,170c0,0.1-0.1,0.2-0.1,0.3h-0.1v-0.1H45C45,170.1,45.1,170,45.1,170z"/>
				<path class="st5" d="M43.2,158.9c0.3-0.5,0.6-1.1,0.9-1.6C43.8,157.9,43.5,158.4,43.2,158.9z"/>
				<path class="st5" d="M43.2,158.9c-2.1,3.6-4.4,7.1-6.8,10.6l-0.1,0.1l0,0C38.7,166.1,41,162.5,43.2,158.9z"/>
				<path class="st5" d="M36.2,169.3c4.5-6.4,8.5-13,12-19.8C44.7,156.3,40.7,162.9,36.2,169.3L36.2,169.3z"/>
				<path class="st5" d="M36.4,169.6L36.4,169.6c0,0.1,0,0.2-0.1,0.2c0-0.1,0-0.2,0.1-0.3C36.4,169.5,36.4,169.5,36.4,169.6z"/>
				<path class="st2" d="M36.4,169.5c0,0.1,0,0.2-0.1,0.3l0,0l-0.1-0.1v-0.1l0,0l0,0L36.4,169.5z"/>
				<path class="st2" d="M36.3,169.8L36.3,169.8c-1.3,7-2.7,14-4,21l0,0h-0.1v-0.1c0.3-1.7,0.6-3.4,1-5.1c0-0.1,0-0.1,0-0.2
					c0.8-4,1.6-8,2.3-12C35.8,172.2,36,171,36.3,169.8L36.3,169.8z"/>
				<path class="st5" d="M36.3,169.6L36.3,169.6L36.3,169.6L36.3,169.6z"/>
				<path class="st5" d="M36.3,169.6L36.3,169.6L36.3,169.6L36.3,169.6z"/>
				<path class="st2" d="M36.3,169.6v0.1V169.6C36.2,169.7,36.2,169.6,36.3,169.6z"/>
				<path class="st2" d="M36.3,169.6C36.2,169.6,36.2,169.7,36.3,169.6C36.2,169.7,36.2,169.6,36.3,169.6z"/>
				<path class="st2" d="M36.2,169.7c-0.2,1.2-0.5,2.5-0.7,3.7C35.7,172.2,36,170.9,36.2,169.7L36.2,169.7z"/>
				<path class="st3" d="M36.2,169.7c-0.2,1.2-0.5,2.5-0.7,3.7c-0.8,4-1.5,8-2.3,12c0,0.1,0,0.1,0,0.2c-0.4,1.8-0.7,3.5-1.1,5.3
					c-0.6-0.1-1.3-0.1-1.9-0.1l-0.4-0.1c1.2-7.2,2.4-14.4,4-21.5l0.3,0.1C34.8,169.4,35.5,169.6,36.2,169.7z"/>
				<path class="st3" d="M33.2,185.4c0.8-4,1.5-8,2.3-12C34.8,177.4,34,181.4,33.2,185.4z"/>
				<path class="st2" d="M33.2,185.6c-0.3,1.7-0.6,3.4-1,5.1v0.1h0.1v0.1h-0.1h-0.1C32.5,189.1,32.8,187.4,33.2,185.6z"/>
				<path class="st5" d="M32.3,190.9C32.3,191,32.2,191,32.3,190.9L32.3,190.9z"/>
				<path class="st5" d="M29.8,202.3h-0.2h-1.8c0.7-3.8,1.3-7.7,2-11.6l0.4,0.1c0.6,0.1,1.3,0.1,1.9,0.1h0.1v0.1
					c-0.7,3.7-1.4,7.4-2.2,11.2L29.8,202.3z"/>
				<path class="st5" d="M32.2,191c-0.5,2.9-1,5.6-1.6,8.4l-0.5,2.8H30C30.8,198.4,31.5,194.7,32.2,191z"/>
				<path class="st5" d="M30.3,202.2v0.1h-0.1C30.2,202.3,30.2,202.3,30.3,202.2L30.3,202.2z"/>
				<path class="st5" d="M30.1,202.2c0,0.1,0,0.1,0,0.1H30C30,202.3,30,202.2,30.1,202.2z"/>
				<path class="st5" d="M24.8,202.3c0.7,0.2,1.4,0.4,2.2,0.4c-5.3,0.1-10.6,0.1-15.9,0.1c0.5-0.4,1-0.8,1.6-1.1c1-0.6,2-1.2,3-1.5
					c0.9-0.3,1.8-0.4,2.7-0.4c0.1,0,0.3,0,0.4,0.1c1.6,0.3,3.2,1.3,4.8,2C24,202,24.4,202.2,24.8,202.3z"/>
				<path class="st5" d="M24.8,202.3c-0.4-0.1-0.8-0.3-1.2-0.5c-1.6-0.7-3.1-1.7-4.8-2c-0.1,0-0.3,0-0.4-0.1h0.1
					C20.7,200,22.7,201.5,24.8,202.3z"/>
				<path class="st5" d="M18.8,199.9c1.7,0.3,3.2,1.2,4.8,2C22,201.1,20.5,200.1,18.8,199.9z"/>
				<path class="st5" d="M15.7,200.2c-1,0.3-2,0.9-3,1.5C13.6,201.1,14.6,200.5,15.7,200.2z"/>
			</g>
			<g>
				<line class="st6" x1="179.4" y1="61.8" x2="179.4" y2="61.9"/>
				<path class="st6" d="M10.5,202.8c0.2,0,0.4,0,0.6,0c5.3,0,10.6,0,15.9,0c0.2,0,0.4,0,0.7,0"/>
				<path class="st6" d="M58.2,116.6c0.1-0.1,0.2-0.2,0.3-0.3c1.2-1.6,2.5-3.1,3.8-4.7c0.3-0.4,0.7-0.8,1.1-1.2
					c0.4-0.4,0.8-0.8,1.1-1.3c0.7-0.8,1.4-1.6,2.1-2.4c1.8-1.9,3.6-3.8,5.5-5.6l0,0c6.9-6.6,14.6-12.7,22.9-18
					c13.1-8.3,29-17.1,45.1-21.3h0.1c0.1,0,0.1-0.1,0.2-0.1h0.1c4.8-1.3,9.6-2.1,14.4-2.3h0.1c1.7-0.1,3.2-0.1,4.9-0.1h0.1
					c0.8,0,1.6,0.1,2.3,0.1c3.7,0.2,7.4,0.7,11.2,1.3c0.3,0,0.6,0.1,0.8,0.1c1.2,0.2,2.4,0.5,3.5,0.7c0.5,0.1,0.9,0.2,1.4,0.3h0.1
					l0,0h0.1c4.4,1,8.7,2.2,13,3.6c12.9,4.3,25.1,10.6,33.7,17.8c1.6,1.3,3.1,2.6,4.6,3.9c0.1,0.1,0.2,0.2,0.4,0.3
					c1.6,1.4,3.1,2.8,4.7,4.2c0,0,0,0,0.1,0c0,0,0,0,0.1,0.1c0.2,0.2,0.4,0.3,0.5,0.5c2.8,2.6,5.5,5.3,8.2,8.1
					c2,2.1,3.9,4.2,5.8,6.4c0.6,0.7,1.2,1.4,1.9,2.2l0,0l0,0c0,0,0,0,0.1,0.1c0,0,0,0,0,0.1c3.5,4.2,6.8,8.5,9.7,12.9l0.1,0.1
					c0.4,0.6,0.7,1.1,1.1,1.7s0.7,1.1,1.1,1.7c2.1,3.4,4,6.9,5.7,10.4c4.6,9.7,8,19.9,10.8,30.2c0.2,0.7,0.4,1.4,0.6,2.1
					c1.1,4.2,2.1,8.4,3,12.7c1.3,6.1,2.5,12.2,3.7,18.4"/>
				<path class="st6" d="M27.8,202.3c0.7-3.8,1.3-7.7,2-11.6c1.2-7.2,2.4-14.4,4-21.5c2.6-11.9,6.2-23.6,12.2-34.4
					c3.6-6.4,7.6-12.4,12.2-18.2"/>
				<path class="st6" d="M287.6,199.8c0.5,0,1,0,1.5,0c4.5,0,9,0,13.5,0"/>
				<path class="st6" d="M69.4,239.9c2.1-2.5,4.2-5.1,6.2-7.5c0,0,0,0,0-0.1s0.1-0.1,0.1-0.1"/>
				<path class="st6" d="M79.5,230.9L79.5,230.9C79.5,230.8,79.5,230.8,79.5,230.9c0-0.2,0-0.2,0-0.3c-0.1-0.9-0.1-1.8-0.2-2.7
					c-0.1-1.1-0.1-2.3-0.2-3.4c-0.1-2.3-0.1-4.6-0.1-6.9c0-2.2,0-4.4,0.1-6.6v-0.1v-0.1c0-0.2,0-0.4,0-0.6c0.1-2.9,0.3-5.6,0.5-8.5
					v-0.1c0-0.5,0.1-1,0.1-1.5c1.1-12.3,3.4-24.6,7-36.7c0.4-1.4,0.8-2.8,1.3-4.2c1.4-4.3,2.9-8.7,4.7-12.9
					c10.8-26.8,27.1-52,48.7-72.7c2-1.9,4.3-4,6.8-6c0.4-0.3,0.8-0.7,1.3-1l0.1-0.1c1.5-1.2,2.9-2.2,4.3-3.2
					c0.2-0.2,0.4-0.3,0.6-0.4c0.1,0,0.1-0.1,0.2-0.1l0,0c0,0,0,0,0.1,0c0.2-0.1,0.4-0.3,0.6-0.4h0.1c0.9-0.6,1.9-1,2.8-1.5
					c0.1,0,0.1,0,0.1-0.1c0.1,0,0.2-0.1,0.4-0.1c0.2-0.1,0.4-0.2,0.7-0.2l0,0c0.2,0,0.3-0.1,0.5-0.1c0.1,0,0.2,0,0.3,0l0,0
					c0.3-0.1,0.7-0.1,1-0.1c0.2,0,0.4,0,0.6,0.1l0,0h0.1c1.4,0.3,2.6,1.2,4.3,2.2"/>
				<path class="st6" d="M79.6,231.5c0-0.1,0-0.2,0-0.2s0,0,0-0.1s0-0.2-0.1-0.3"/>
				<path class="st6" d="M79.6,231.6v-0.1"/>
				<path class="st6" d="M164.8,62.9c0.1,0,0.1,0.1,0.2,0.1"/>
				<path class="st6" d="M80,231.2c0-0.2,0-0.5,0-0.7c0-0.1,0-0.1,0-0.1v-0.1c-0.1-5.4,0-10.7,0.3-16.1c0-1.1,0.1-2.1,0.2-3.2
					c0-0.3,0.1-0.7,0.1-1v-0.1v-0.1c0.1-0.6,0.1-1.3,0.2-1.9c0.2-2.1,0.4-4.1,0.6-6.2c1.6-13.9,4.5-27.7,8.7-41.1
					c1.5-4.9,3.2-9.7,5.1-14.4c0.1-0.2,0.2-0.4,0.3-0.7c2-5.2,4.4-10.4,6.8-15.5c0.1-0.2,0.2-0.4,0.3-0.6c0,0,0,0,0.1-0.1
					c0,0,0,0,0-0.1c0.1-0.1,0.1-0.2,0.2-0.4l0,0c0,0,0-0.1,0.1-0.1l0,0c0,0,0,0,0-0.1l0,0c0.8-1.4,1.5-3,2.2-4.5c0,0,0,0,0-0.1l0,0
					l0,0l0,0l0.1-0.1l0,0c0.4-0.8,0.9-1.7,1.3-2.5c5-9.2,10.7-18.1,17.2-26.4c2.4-3,4.8-6,7.4-8.9l0.1-0.1c3.5-3.8,7-7.4,10.9-11
					c0.1,0,0.1,0,0.1-0.1c0,0,0-0.1,0.1-0.1l0,0c0.2-0.2,0.3-0.3,0.5-0.5c0.3-0.3,0.7-0.6,1-0.9c0.5-0.5,1.1-1,1.6-1.5
					s1.1-1,1.6-1.5c0.1-0.1,0.3-0.2,0.4-0.4c0.4-0.4,0.9-0.8,1.4-1.2c0,0,0,0,0.1,0c0.3-0.2,0.6-0.5,0.8-0.7
					c1.8-1.5,3.6-2.8,5.6-4.1c3-1.9,4.5-2.8,5.6-2.8c0.1,0,0.1,0,0.2,0c0.2,0,0.5,0,0.7,0.1c0.1,0,0.2,0.1,0.3,0.1s0.2,0.1,0.3,0.1
					c0.1,0.1,0.3,0.1,0.5,0.2h0.1c0.2,0.1,0.4,0.2,0.7,0.4c0,0,0.1,0,0.1,0.1c0.2,0.1,0.4,0.2,0.6,0.4c0,0,0,0,0.1,0.1h0.1"/>
				<path class="st6" d="M34.1,169.3c0.7,0.1,1.4,0.3,2.1,0.4"/>
				<path class="st6" d="M36.4,169.5c0,0.1,0,0.2-0.1,0.3c-1.4,7-2.8,14-4,21l0,0v0.1v0.1c-0.3,1.9-0.7,3.8-1.7,8.4l-0.5,2.8
					c0,0.1,0,0.1,0,0.1v0.1c-0.1-0.1-0.2-0.1-0.3-0.1c0,0-0.1,0-0.1-0.1c-0.5-0.2-0.9-0.4-1.4-0.6"/>
				<path class="st6" d="M58.2,116.6l0.4,0.2c0.1,0.1,0.2,0.1,0.3,0.1H59c0,0,0.1,0,0.2,0.1c0.1,0,0.2,0.1,0.3,0.1l0,0
					c0.1,0,0.2,0.1,0.3,0.1c0,0,0,0,0.1,0c0-0.1,0.1-0.1,0.1-0.1l0,0c4.5-4.6,8.9-9.2,13.4-13.8c0-0.1-0.1-0.2-0.1-0.2
					c-0.4-0.6-0.8-1.2-1.2-1.9c0,0,0,0,0-0.1c-0.1-0.2-0.2-0.2-0.3-0.3"/>
				<path class="st6" d="M58.2,116.6L58.2,116.6L58.2,116.6L58.2,116.6c1.6-2.1,3.3-4.2,5.1-6.3"/>
				<path class="st6" d="M235.7,92.1c-0.9,0.8-1.8,1.7-2.8,2.6c0,0,0,0-0.1,0l-0.1,0.1c0,0,0,0,0.1,0c0.1,0.1,0.2,0.1,0.3,0.2
					c1.5,1,2.4,2.6,3.9,3.6"/>
				<path class="st6" d="M237.1,98.7c0.1,0.2,0.2,0.3,0.4,0.4l0,0c0.1,0.1,0.3,0.2,0.4,0.4c0.2,0.2,0.5,0.5,0.7,0.7l0,0
					c0.5,0.5,1,0.9,1.5,1.4c3.3,3,6.9,5.9,9.2,9.2l0,0l0,0l0,0c0,0,0,0,0,0.1v0.1c0,0,0,0,0.1,0.1l0,0c0,0.1,0,0.1,0,0.1
					c0.8-0.5,1.6-1,2.4-1.6"/>
				<line class="st6" x1="275.8" y1="169.4" x2="275.7" y2="169.4"/>
				<path class="st6" d="M281.2,168.4c-0.1,0-0.2,0.1-0.3,0.1c-0.2,0-0.4,0.1-0.6,0.1c-0.1,0-0.3,0.1-0.5,0.1
					c-0.4,0.1-0.9,0.2-1.3,0.3c-0.8,0.2-1.7,0.3-2.5,0.5l0,0h-0.1h-0.1l0,0"/>
				<polyline class="st6" points="275.8,169.4 275.8,169.4 275.8,169.3 				"/>
				<path class="st6" d="M275.8,169.4L275.8,169.4L275.8,169.4L275.8,169.4L275.8,169.4L275.8,169.4c0-0.1,0-0.1,0-0.1s0,0,0-0.1"/>
				<path class="st6" d="M284,200.2c-0.1,0-0.2-0.1-0.2-0.1c-0.1-0.1-0.3-0.1-0.5-0.2c-0.2-0.1-0.4-0.3-0.5-0.4
					c-0.1-0.1-0.2-0.3-0.3-0.5c-0.1-0.3-0.3-0.6-0.4-0.9c0,0,0,0,0-0.1s-0.1-0.2-0.1-0.3s0-0.1-0.1-0.1c0-0.2-0.1-0.3-0.1-0.6
					c-0.5-2.4-1-4.8-1.5-7.1c-0.5-2.4-1-4.7-1.5-7.1v-0.1l0,0l0,0l0,0v-0.1l0,0c0-0.1,0-0.2-0.1-0.3l0,0l0,0l0,0v-0.1v-0.1
					c-0.4-2-0.8-4-1.3-6c-0.2-1.1-0.5-2.1-0.7-3.2l0,0c0-0.1,0-0.1-0.1-0.2v-0.1c-0.1-0.4-0.2-0.9-0.3-1.3c0-0.3-0.1-0.5-0.2-0.8
					s-0.1-0.5-0.2-0.8l0,0l0,0"/>
				<path class="st6" d="M287.5,199.9c-0.6,0.2-1.2,0.3-1.8,0.4c-0.6,0.1-1.2,0.1-1.7-0.1"/>
				<path class="st6" d="M73.4,103.3c2-0.9,4.1-1.8,6.1-2.7c1.6-0.7,3.3-1.5,4.9-2.2c3.6-1.7,7.2-3.4,10.8-5.2
					c0.9-0.5,1.9-0.9,2.8-1.4c0.5-0.3,1.1-0.5,1.6-0.8l0,0c0.1,0,0.2-0.1,0.3-0.2c1.3-0.7,2.6-1.3,3.9-2.1c1.4-0.8,2.8-1.5,4.2-2.3
					c2.8-1.5,5.6-3.1,8.4-4.8c1.3-0.8,2.6-1.5,3.9-2.3c0.4-0.3,0.9-0.5,1.3-0.8c1.3-0.8,2.5-1.6,3.8-2.4c3.8-2.4,7.5-4.9,11.1-7.4
					c1.3-0.9,2.6-1.8,3.9-2.8"/>
				<path class="st6" d="M60.1,117.1c-0.4,1.8-0.8,3.5-1.2,5.3c-0.2,0.8-0.4,1.6-0.6,2.4c-0.2,0.6-0.3,1.2-0.5,1.8
					c-0.4,1.2-0.7,2.4-1.1,3.6c-0.3,1-0.7,2.1-1.1,3.1c-1,2.7-2,5.4-3.2,8c-0.8,1.8-1.6,3.6-2.5,5.4c-0.4,0.9-0.9,1.8-1.3,2.7
					c0,0.1-0.1,0.1-0.1,0.2c-0.5,0.9-0.9,1.8-1.4,2.7c-0.9,1.7-1.8,3.4-2.8,5c-0.3,0.5-0.6,1-0.9,1.6c-2.1,3.6-4.4,7.1-6.8,10.6
					c0,0,0,0,0,0.1c0,0,0,0,0,0.1c0,0,0,0.1-0.1,0.1l0,0c0,0,0,0,0,0.1"/>
				<path class="st6" d="M179.9,65.3c1.8,1.6,3.7,3.2,5.7,4.7c1,0.8,2.1,1.6,3.1,2.3c13.2,9.6,28.3,16.6,44,22.5"/>
				<path class="st6" d="M248.9,111.2c4,10.7,7.9,21.4,11.9,32.1c3.5,9.4,7.2,19.2,15,26.1l0,0l0,0l0,0l0.1,0.1l0,0
					c0.1,0,0.1,0.1,0.1,0.1c0.1,0.1,0.2,0.2,0.3,0.3"/>
				<path class="st6" d="M29.9,202.9c19.1,3.3,36.7,13.4,48.1,27.7"/>
				<path class="st6" d="M79.5,230.6L79.5,230.6C79.5,230.6,79.6,230.6,79.5,230.6C79.6,230.6,79.6,230.6,79.5,230.6L79.5,230.6
					c0.1-0.1,0.2-0.1,0.2-0.1l0,0c0,0,0,0,0.1,0c0,0,0.1,0,0.1-0.1H80c44.2-16.4,90.8-26.8,138-30.2c0.5,0,1.1-0.1,1.6-0.1l0,0
					c17.6-1.2,35.3-1.4,53-0.6c0.5,0,1.1,0.1,1.6,0.1c3.2,0.2,6.3,0.4,9.6,0.6h0.1h0.1l0,0c0.5,0,1,0.1,1.6,0.1h0.1
					c0.1,0,0.1,0,0.2,0"/>
				<path class="st6" d="M79.5,210.3C79.5,210.3,79.6,210.3,79.5,210.3c0.4-0.1,0.6-0.2,0.9-0.3c0.1,0,0.2-0.1,0.2-0.1l0,0
					c8.9-3.1,18-5.9,27.1-8.5c0.1,0,0.1,0,0.2-0.1c20.5-5.8,41.5-10.3,62.7-13.6c10.7-1.6,21.4-2.9,32.2-3.8c1.3-0.1,2.6-0.2,4-0.3
					c9.4-0.8,18.8-1.3,28.3-1.5c9.4-0.2,18.8-0.2,28.2,0.1c5,0.1,10,0.4,15.1,0.7"/>
				<path class="st6" d="M75.1,210c-0.7-0.7-1.5-1.3-2.2-2c-0.5-0.4-1-0.9-1.5-1.3c-0.9-0.7-1.7-1.4-2.6-2c-1.3-1-2.7-1.9-4.2-2.8
					l-0.1-0.1c0,0,0,0-0.1,0l0,0h-0.1c-1.2-0.7-2.2-1.4-3.4-2.1c-8.7-4.8-18.5-7.9-28.6-8.9"/>
				<path class="st6" d="M41.1,181.8c13.2,0.9,26,6.1,35.6,14.5"/>
				<path class="st6" d="M96.5,121.5c0.9,0.8,1.6,1.8,2,3"/>
				<path class="st6" d="M96,121.1c0.2,0.1,0.3,0.3,0.5,0.4"/>
				<path class="st6" d="M92.9,119.3C92.9,119.3,93,119.3,92.9,119.3L92.9,119.3L92.9,119.3L92.9,119.3L92.9,119.3
					c0.2,0.1,0.2,0.1,0.3,0.2c0.1,0,0.1,0.1,0.2,0.1c0.9,0.4,1.7,0.9,2.5,1.5"/>
				<path class="st6" d="M40.1,181.8c1.5-3.9,3.2-7.7,4.9-11.5c0.1-0.2,0.2-0.2,0.2-0.4v-0.1c0.1-0.2,0.2-0.5,0.3-0.7
					c1.3-2.8,2.6-5.4,4-8.2c0.8-1.6,1.6-3.1,2.4-4.7c2.1-3.9,4.2-7.8,6.5-11.6c0.6-1,1.2-2,1.8-2.9c0.5-0.8,1-1.7,1.6-2.5
					c1.2-1.9,2.4-3.7,3.6-5.5c1.6-2.5,3.4-5.1,5.4-7.4c0.8-0.9,1.7-1.8,2.6-2.7c0.2-0.2,0.5-0.4,0.7-0.6s0.5-0.4,0.8-0.6
					c1.3-1,2.8-1.9,4.3-2.6c0.1-0.1,0.2-0.1,0.4-0.2c0.1-0.1,0.2-0.1,0.4-0.2c0.5-0.2,1.1-0.4,1.6-0.6c0.4-0.1,0.8-0.2,1.2-0.3
					c0.2,0,0.4-0.1,0.6-0.1c0.1,0,0.2,0,0.3-0.1c0.2,0,0.3,0,0.5-0.1c0,0,0,0,0.1,0c1.5-0.2,3.1-0.2,4.6,0H89
					c1.3,0.2,2.5,0.5,3.7,0.9"/>
				<path class="st6" d="M99.8,125.2c-0.9-1.4-2-2.6-3.3-3.7c-0.2-0.1-0.4-0.3-0.6-0.4l-0.1-0.1c0,0,0,0-0.1,0l0,0c0,0,0,0-0.1-0.1
					c-0.1,0-0.1-0.1-0.2-0.1l0,0l-0.1-0.1l-0.5-0.3c-0.2-0.1-0.3-0.2-0.5-0.3c-0.3-0.2-0.7-0.4-1-0.6c-0.1-0.1-0.3-0.1-0.4-0.2
					c-0.1,0-0.1,0-0.2-0.1l0,0h-0.1c-0.1,0-0.1,0-0.1-0.1c0,0,0,0-0.1,0c0,0,0,0-0.1,0c-0.1-0.1-0.3-0.1-0.4-0.2
					c-0.1,0-0.1,0-0.2-0.1c-0.2-0.1-0.4-0.1-0.6-0.2c-0.4-0.2-0.8-0.3-1.2-0.4c-0.1,0-0.2-0.1-0.3-0.1h-0.1l0,0
					c-0.2-0.1-0.4-0.1-0.7-0.2c-0.2,0-0.4-0.1-0.6-0.1c-0.1,0-0.1,0-0.2,0c-0.2,0-0.4-0.1-0.7-0.1c-0.2,0-0.4-0.1-0.7-0.1
					c-0.2,0-0.4-0.1-0.6-0.1s-0.4,0-0.6-0.1c-0.3,0-0.5,0-0.8,0c-0.4,0-0.8-0.1-1.1,0c-2.8,0-5.7,0.5-8.2,1.7
					c-0.3,0.1-0.6,0.3-0.9,0.4c-0.1,0-0.1,0.1-0.2,0.1c-0.2,0.1-0.5,0.3-0.7,0.4s-0.4,0.3-0.6,0.4c-0.3,0.2-0.5,0.4-0.8,0.6
					c-3.3,2.4-5.7,5.8-8,9.2c-8.4,12.6-15,26.1-19.5,40.2"/>
				<path class="st6" d="M45.7,166.3c-1.7-0.1-3.3,1.1-3.6,2.5c1.2-0.7,2.5-1.5,3.7-2.2"/>
				<path class="st6" d="M148.9,68.8L148.9,68.8C149,68.8,149,68.8,148.9,68.8c0.1,0,0.1,0,0.2,0.1c0.4,0.2,0.9,0.3,1.2,0.4l0,0
					c0,0,0,0-0.1,0.1s-0.1,0.2-0.2,0.3c-13.3,16.3-25.8,33-38.4,49.8c-1.2,1.6-2.2,3-3.5,4.7c0,0,0,0-0.1,0.1l0,0l-0.1,0.1
					c-0.1,0.1-0.1,0.2-0.2,0.2"/>
				<path class="st6" d="M107.5,124.8C107.5,124.8,107.4,124.8,107.5,124.8c-0.8-0.2-1.4-0.4-2-0.6"/>
				<path class="st6" d="M90.4,160.6c0.1,0,0.2,0.1,0.3,0.1c0,0,0,0,0.1,0l0,0c0.3,0.1,0.5,0.2,0.8,0.3"/>
				<path class="st6" d="M91.9,161.1c0.3,13.8-3.8,27.4-8.2,40.6c-0.4,1.2-0.8,2.5-1.2,3.7"/>
				<path class="st6" d="M82.7,205.5c-0.3,0-0.7,0-1,0"/>
				<path class="st6" d="M92.3,160.7C92.3,160.7,92.3,160.6,92.3,160.7c0.3-0.6,0.5-1,0.8-1.5c0-0.1,0.1-0.1,0.1-0.2
					c0.6-1.1,1.2-2.2,1.9-3.4c0-0.1,0.1-0.1,0.1-0.2c0.3-0.5,0.6-1,0.9-1.5c0,0,0,0,0-0.1c2-3.7,4.1-7.5,6.1-11.2
					c3.1-5.7,6.2-11.7,6.1-18"/>
				<path class="st6" d="M140.5,66c0-0.1,0-0.1,0-0.2c0-0.3,0-0.6-0.1-0.8c-0.1-1-0.1-2-0.2-2.9"/>
				<path class="st6" d="M140.6,66c0.3,0,0.7-0.1,1-0.1s0.7,0,1,0c1.2,0.1,2.4,0.3,3.5,0.6c0.1,0,0.1,0,0.1,0s0,0,0.1,0"/>
				<path class="st6" d="M150.6,69.3c-0.2-0.3-0.4-0.6-0.6-0.9c0,0,0-0.1-0.1-0.1"/>
				<path class="st6" d="M146.1,66.6c0.2,0.1,0.4,0.1,0.6,0.2h0.1"/>
				<path class="st6" d="M141,65.7c0.1,0,0.2-0.1,0.3-0.1h0.1c0.4-0.1,0.8-0.3,1.1-0.4h0.1c2.5-0.8,5.1-1.5,7.6-2
					c0.7-0.1,1.4-0.2,2-0.3"/>
				<path class="st6" d="M157.8,63c2,0,4,0,5.9,0"/>
				<path class="st6" d="M150.5,69.5h0.1l0,0l0,0h0.1c3.5,0.1,6.8,0.3,10.3,0.4c1,0,1.9,0,2.8,0.1c0.1,0,0.1,0,0.1,0
					c0.3,0,0.6,0,0.8,0c0.3,0,0.6,0,0.9,0c0.1,0,0.3,0,0.4,0h0.1c0.2,0,0.4,0,0.6,0h0.1c0.2,0,0.4,0,0.5,0h0.1h0.1
					c0.2,0,0.4,0,0.6,0c0.5,0,1-0.1,1.4-0.2c0.1,0,0.1,0,0.2,0h0.1c0,0,0,0,0.1,0c0.2,0,0.4-0.1,0.6-0.1c0.8-0.2,1.6-0.3,2.4-0.6
					c1.9-0.6,3.6-1.4,5.1-2.6c0.3-0.2,0.5-0.4,0.7-0.6l0.1-0.1c0.1,0,0.1-0.1,0.1-0.1s0,0,0.1-0.1c0.1,0,0.1-0.1,0.1-0.1"/>
				<path class="st6" d="M163.9,62.9c0.3,0,0.5,0,0.8,0h0.1c0.1,0,0.2,0,0.3,0c0.3,0,0.6,0,0.9-0.1c0.1,0,0.2,0,0.3,0
					c0.8,0,1.6,0,2.4,0c0.5,0,0.9,0,1.4,0.1c1.1,0.1,2.1,0.2,3.2,0.5c1.2,0.2,2.5,0.5,3.7,0.9c0.7,0.2,1.4,0.4,2.1,0.7l0,0l0,0h0.1
					c0,0,0,0,0.1,0c0,0,0.1,0,0.1,0.1c0.2,0.1,0.3,0.1,0.5,0.1l0,0h0.1"/>
				<path class="st6" d="M180.1,65.1c0.1-0.9,0.2-1.9,0.2-2.8l0,0"/>
				<path class="st6" d="M165.5,63.9c0.5,0.4,0.9,0.9,1.4,1.3"/>
				<path class="st6" d="M167.6,66.3c0.5,0.7,1,1.4,1.5,2.1"/>
				<path class="st6" d="M169.3,64.2c0.1,0.2,0.3,0.5,0.4,0.7"/>
				<path class="st6" d="M170.6,66.5c0.4,0.5,0.7,1.1,1.1,1.6"/>
				<path class="st6" d="M102.8,128.9v0.1c0,0.1,0,0.2,0.1,0.4c0.1,0.5,0.1,1.1,0.1,1.6s0,0.9,0,1.4c-0.2,3.5-1.3,7-2.6,10.3
					c-0.2,0.5-0.4,0.9-0.6,1.4c-1.3,3.2-2.6,6.3-3.9,9.6v0.1"/>
				<path class="st6" d="M279.3,183.5c1.5-0.8,3-1.6,4.5-2.4c-0.8,0.1-1.7,0.3-2.5,0.5c-0.2,0-0.4,0.1-0.6,0.1
					c-0.4,0.1-0.9,0.2-1.3,0.2c-0.2,0-0.4,0.1-0.6,0.1"/>
				<path class="st6" d="M288.8,200.2c0.1,0,0.2,0,0.3,0h0.1c0.3,0,0.6,0,0.9,0c2.4,0.1,4.7,0.7,6.8,1.9c0.9,0.4,1.7,0.9,2.6,1.1
					c0.1,0,0.3,0,0.4,0s0.1,0,0.2,0s0.1,0,0.2,0c0.2,0,0.5-0.1,0.6-0.2c1.1-0.5,1.5-1.9,1.8-3.1"/>
				<path class="st6" d="M79.4,230.9c0,0-0.1,0-0.1,0.1c-0.2,0.1-0.4,0.2-0.5,0.2c-0.2,0.1-0.3,0.1-0.5,0.2c-0.8,0.3-1.6,0.7-2.4,1"
					/>
				<path class="st6" d="M69.3,240C69.3,240,69.4,240,69.3,240c2.6-0.1,4.9-0.1,7.2,0.1c1.7,0.1,3.3,0.3,4.9,0.6l0,0
					c0.9,0.1,1.9,0.3,2.8,0.5l0,0h0.1c-2.2-2.9-3.8-6.2-4.7-9.7l0,0c-0.1-0.2-0.1-0.4-0.2-0.6c0,0,0,0,0-0.1v-0.1
					c0-0.1-0.1-0.3-0.1-0.4"/>
				<path class="st6" d="M11,202.9c0.1,0,0.1-0.1,0.1-0.1c0.5-0.4,1-0.8,1.6-1.1c1-0.6,2-1.2,3-1.5c0.9-0.3,1.8-0.4,2.7-0.4
					c0.1,0,0.3,0,0.4,0.1c1.7,0.3,3.2,1.2,4.8,2c0.4,0.2,0.8,0.3,1.2,0.5c0.7,0.2,1.4,0.4,2.2,0.4c0.2,0,0.3,0,0.5,0"/>
				<path class="st6" d="M146.8,66.6c0.3,0.1,0.5,0.3,0.8,0.4c0.1,0.1,0.3,0.2,0.4,0.3"/>
				<path class="st6" d="M146.8,66.6L146.8,66.6"/>
				<line class="st6" x1="146.8" y1="66.6" x2="146.8" y2="66.6"/>
				<path class="st6" d="M151.9,63.1c0.2,0,0.3-0.1,0.5-0.1s0.3,0,0.5-0.1c0.1,0,0.1,0,0.1,0c0.1,0,0.2,0,0.2-0.1l0,0l0,0l0,0
					c0.1,0,0.2,0,0.2,0h0.1c0.1,0,0.2,0,0.4-0.1l0,0c0.1,0,0.1,0,0.1,0l0,0c0.1,0,0.2,0,0.3,0l0,0l0,0l0,0h0.1h0.1"/>
				<path class="st6" d="M75.5,210c1.1,0.3,2.2,0.6,3.3,0.9"/>
				<path class="st6" d="M32.4,191C32.3,191,32.3,191,32.4,191c-0.1,0-0.1,0-0.2,0c-0.7-0.1-1.4-0.1-2.1-0.1"/>
			</g>
		</g>
	</g>
</g>
<g>
	<g>
		<g>
			<g>
				<path d="M110.8,133.3c0.9,17.9,1.8,35.8,2.7,53.7c0,0.9,2.9,0.3,2.9-0.8c-0.9-17.9-1.8-35.8-2.7-53.7
					C113.7,131.6,110.8,132.2,110.8,133.3L110.8,133.3z"/>
			</g>
		</g>
		<g>
			<g>
				<path d="M113.1,161.3c5.2,0.4,10.4,0.2,15.5-0.7c0.4-0.1,1.6-0.3,1.7-0.8c0.1-0.5-0.9-0.4-1.2-0.4c-4.7,0.8-9.4,1-14.2,0.6
					c-0.7-0.1-1.5,0.1-2.1,0.6C112.5,160.9,112.5,161.2,113.1,161.3L113.1,161.3z"/>
			</g>
		</g>
		<g>
			<g>
				<path d="M125.6,130.7c1.7,17.7,3.4,35.4,5.1,53.1c0.1,0.5,3,0,2.9-0.8c-1.7-17.7-3.4-35.4-5.1-53.1
					C128.5,129.4,125.5,129.9,125.6,130.7L125.6,130.7z"/>
			</g>
		</g>
		<g>
			<g>
				<path d="M139.1,182.3c-1.1-15-0.3-30,2.6-44.8c0.3-1.7,1.1-9.4,3.9-8.7c2.7,0.8,3.7,5.3,4.4,7.5c2.3,6.7,4.3,13.5,5.8,20.4
					c1.7,8,2.9,16,3.5,24.2c0.1,0.7,3,0.1,2.9-0.8c-1.2-15.8-4.5-31.4-9.9-46.3c-0.9-2.4-2-5.8-4.9-6.3c-3.2-0.6-6.2,1.5-7.3,4.5
					c-0.6,1.8-0.9,3.7-1.3,5.5c-0.4,2-0.7,4-1.1,6c-0.6,4.1-1.1,8.2-1.5,12.3c-0.8,9.1-0.8,18.2-0.1,27.3
					C136.2,183.8,139.1,183.3,139.1,182.3L139.1,182.3z"/>
			</g>
		</g>
		<g>
			<g>
				<path d="M137.7,159c6.3,0.3,12.5-0.7,18.3-3c0.5-0.2,1.1-0.9,0.7-1.4c-0.4-0.6-1.4-0.4-2-0.2c-5.1,2-10.6,2.9-16,2.6
					c-0.7,0-1.6,0.2-1.9,0.9C136.6,158.5,137.1,159,137.7,159L137.7,159z"/>
			</g>
		</g>
		<g>
			<g>
				<path d="M175.2,133.4c-1-2.3-2.1-4.8-4.5-6c-2.2-1.2-4.9-1.1-6.9,0.5c-1.8,1.4-2.3,3.8-2.5,5.9c-0.3,3.1-0.4,6.3-0.4,9.4
					c0.1,6.1,0.8,12.1,2.1,18c0.7,3,1.4,6.1,2.5,9c0.9,2.5,2.1,4.9,4.4,6.4c2.4,1.5,5.4,1.4,7.9,0c2.9-1.6,4.3-4.5,5.5-7.4
					c0.6-1.4-2.3-1.2-2.7-0.2c-0.9,2.1-1.7,4.3-3.5,5.8s-3.8,1.2-5.5-0.1c-1.9-1.5-2.7-3.8-3.4-6c-0.8-2.3-1.4-4.7-1.9-7
					c-2.2-9.3-3.1-19.4-1.8-29c0.2-1.8,0.9-4.8,3.3-4.1c2.5,0.7,3.7,3.4,4.6,5.6C172.8,135.3,175.6,134.4,175.2,133.4L175.2,133.4z"
					/>
			</g>
		</g>
		<g>
			<g>
				<path d="M182,124.7c1.7,18.3,3.4,36.6,5,54.9c0,0.5,3-0.1,2.9-0.8c-1.7-18.3-3.4-36.6-5-54.9C184.8,123.5,181.9,124,182,124.7
					L182,124.7z"/>
			</g>
		</g>
		<g>
			<g>
				<path d="M188,154.5c5.9-10.4,11.8-20.7,17.7-31.1c0.8-1.3-2.2-1.2-2.7-0.2c-5.9,10.4-11.8,20.7-17.7,31.1
					C184.6,155.6,187.5,155.4,188,154.5L188,154.5z"/>
			</g>
		</g>
		<g>
			<g>
				<path d="M188.5,151.1c7.1,8.7,14.2,17.3,21.4,26c0.5,0.6,3.2-0.4,2.7-1c-7.1-8.7-14.2-17.3-21.4-26
					C190.7,149.6,188,150.6,188.5,151.1L188.5,151.1z"/>
			</g>
		</g>
	</g>
	<g>
		<g>
			<path d="M218.2,170.3c-1.3-14.5-2.6-29-4-43.6c-1,0.3-1.9,0.5-2.9,0.8c6,13.6,12,27.2,18.1,40.8c0.4,0.9,2.9,0.2,2.9-0.8
				c-0.5-15.5-1.1-31.1-1.6-46.6c0-0.8-2.9-0.2-2.9,0.8c0.5,15.5,1.1,31.1,1.6,46.6c1-0.3,1.9-0.5,2.9-0.8
				c-6-13.6-12-27.2-18.1-40.8c-0.4-0.9-3-0.2-2.9,0.8c1.3,14.5,2.6,29,4,43.6C215.3,171.9,218.2,171.3,218.2,170.3L218.2,170.3z"/>
		</g>
	</g>
	<g>
		<g>
			<path d="M251.5,128.6c-2.9-3-8-2.1-11,0.3c-3.8,3-4.7,8.2-5.7,12.6c-1.1,5.1-2.1,11,0.1,15.9c1.7,3.9,5.2,7.1,9.6,7.5
				c5.5,0.6,9.7-3.4,12.7-7.5c0.4-0.6-0.4-0.9-0.8-1c-0.7-0.1-1.5,0.3-1.9,0.8c-2,2.7-4.8,6.1-8.5,5.9c-3.5-0.2-6.5-3.2-8-6.2
				c-1.9-3.8-1.6-8.3-0.9-12.4c0.4-2.2,0.9-4.3,1.4-6.4c0.4-1.8,0.9-3.7,1.8-5.4c0.9-1.7,2-3.3,3.8-4c1.7-0.7,3.5-0.4,4.8,0.9
				C249.5,130.5,252.3,129.4,251.5,128.6L251.5,128.6z"/>
		</g>
	</g>
	<g>
		<g>
			<path d="M145,102.2c1.4-1.4,3.3-3.5,5.5-3.3c2.4,0.3,3,2.9,2.4,4.9c-0.6,2.3-2.4,4.4-3.9,6.2c-1.7,1.9-3.5,3.7-5.5,5.2
				c-0.8,0.6-0.6,1.5,0.4,1.6c3.3,0.4,6.5,0.7,9.8,1.1c0.7,0.1,1.6-0.2,1.9-0.9s-0.3-1.1-0.9-1.1c-3.3-0.4-6.5-0.7-9.8-1.1
				c0.1,0.5,0.3,1.1,0.4,1.6c2.5-1.9,4.9-4.1,6.9-6.6c1.8-2.3,4-5.1,3.9-8.2c-0.2-3.1-2.6-4.8-5.6-4.7c-3.3,0.1-5.8,2.3-7.9,4.5
				c-0.5,0.5-0.2,1.1,0.4,1.3C143.6,103,144.5,102.7,145,102.2L145,102.2z"/>
		</g>
	</g>
	<g>
		<g>
			<path d="M167.8,99.3c-1-1-2.5-1-3.8-0.7s-2.6,1-3.4,2.1c-0.8,1-1.1,2.3-1.4,3.5c-0.2,1.2-0.4,2.4-0.4,3.7
				c0.1,1.2,0.4,2.3,1.2,3.2c0.8,0.9,2.1,1.3,3.3,1.3c2.8,0,5.6-1.6,6.5-4.4c1-3.1-0.3-6.3-1.6-9.1c-0.4-0.9-3.2,0-2.9,0.8
				c0.9,2.1,1.9,4.3,1.9,6.7c0,1-0.2,2-0.6,2.9c-0.2,0.4-0.5,0.9-0.9,1.2c-0.2,0.2-0.6,0.4-0.7,0.5c-0.1,0-0.1,0-0.2,0.1
				c-0.1,0-0.2,0-0.4,0c-0.4,0-0.8-0.1-1.1-0.3c-0.8-0.4-1.2-1.2-1.4-2.1c-0.5-1.8-0.1-3.9,0.4-5.7c0.2-0.9,0.6-2.1,1.4-2.7
				c0.2-0.2-0.2,0.1,0.2-0.1c-0.1,0.1,0.2-0.1,0.1,0c-0.2,0.1,0.2,0,0.1,0c-0.2,0-0.1,0,0,0c0.3,0.1,0.7,0.2,0.9,0.5
				C165.7,101,168.4,100,167.8,99.3L167.8,99.3z"/>
		</g>
	</g>
	<g>
		<g>
			<path d="M174.4,97.1c0.6-1.2,1.9-4.4,3.7-4.2c2.1,0.3,2.7,3,2.4,4.7c-0.4,2.2-1.7,4.3-2.8,6.3c-1.2,2.3-2.4,4.6-3.6,6.9
				c-0.1,0.2,0.1,0.4,0.3,0.4c3.1,0.9,6.1,1.8,9.2,2.7c0.6,0.2,1.5,0,2-0.3c0.3-0.2,1-0.7,0.3-0.9c-3.1-0.9-6.1-1.8-9.2-2.7
				c0.1,0.1,0.2,0.3,0.3,0.4c1.5-2.9,3.1-5.9,4.6-8.9c1.2-2.3,2.6-5.1,1.3-7.7c-1.2-2.4-3.8-2.6-6.1-1.8c-2.7,0.9-4.1,3.2-5.3,5.6
				c-0.3,0.5,1,0.5,1.2,0.4C173.3,97.9,174.2,97.7,174.4,97.1L174.4,97.1z"/>
		</g>
	</g>
	<g>
		<g>
			<path d="M194.4,98.9c0.4-1,0-2-0.8-2.7c-1-0.9-2.5-0.9-3.7-0.6c-1.3,0.3-2.6,1.1-3.4,2.2c-0.8,1.1-1,2.4-1,3.7
				c0,2,0.5,4.4,2.1,5.7c2,1.6,5.3,0.7,6.9-1c2.2-2.4,1.2-5.7,0.2-8.4c-0.3-0.8-3.2,0-2.9,0.8c0.7,1.9,1.6,4.2,0.9,6.2
				c-0.2,0.7-0.7,1.5-1.4,1.9c-0.4,0.3,0.1,0,0.1,0c0,0.1-0.8-0.2-0.9-0.3c-1.3-0.8-1.9-2.5-2.1-3.9c-0.3-1.8-0.3-4,1-5.4
				c0.1-0.1,0.3-0.3,0.4-0.4c0.3-0.2,0.1,0,0,0c0.1,0.1,0.5,0.2,0.7,0.4c0.7,0.5,1,1.4,0.7,2.2c-0.2,0.6,1,0.5,1.2,0.4
				C193.3,99.7,194.2,99.5,194.4,98.9L194.4,98.9z"/>
		</g>
	</g>
</g>
<g>
	<g>
		<path d="M76.5,196.3c1.1,0.8,2.2,1.7,3.2,2.5c0.2,0.1,0.5-0.1,0.3-0.2c-1.1-0.8-2.2-1.7-3.2-2.5C76.7,195.9,76.3,196.1,76.5,196.3
			L76.5,196.3z"/>
	</g>
</g>
</svg>
