<?xml version="1.0" encoding="utf-8"?>
<!-- Generator: Adobe Illustrator 23.1.1, SVG Export Plug-In . SVG Version: 6.00 Build 0)  -->
<svg version="1.1" id="Layer_1" xmlns="http://www.w3.org/2000/svg" xmlns:xlink="http://www.w3.org/1999/xlink" x="0px" y="0px"
	 viewBox="0 0 92.32 79.89" style="enable-background:new 0 0 92.32 79.89;" xml:space="preserve">
<style type="text/css">
	.st0{fill:#D6DBDC;}
	.st1{fill:#B69369;}
	.st2{fill:#34464F;}
	.st3{fill:#A67C63;}
	.st4{fill:#515E67;}
	.st5{fill:#010101;}
</style>
<polygon class="st0" points="67.16,52.82 65.34,35.03 65.34,28.11 80.32,23.67 85.77,9.34 89.06,5.99 88.45,3.85 86.92,2.98 
	85.6,3.41 84.67,4.79 84.4,3.56 83.28,3.56 83.21,5.51 82.68,8.83 77.77,18.65 65.31,20.96 58.98,19.48 60.54,18.21 60.67,9.88 
	58.08,3.53 56.13,2.68 58.21,0 55.61,0.85 52.63,0.29 54.71,2.68 52.37,3.11 50.17,6.35 48.87,13.69 48.74,18.35 50.56,19.62 
	46.67,21.31 43.82,26.25 40.83,33.34 45.12,51.51 36.71,57.29 39.99,61.07 60.52,61.01 "/>
<polygon class="st1" points="55.49,7.38 56.96,8.58 57.82,13.39 54.89,12.45 51.62,13.31 51.7,10.13 53.94,6.95 "/>
<polygon class="st1" points="56.96,15.46 55.84,16.66 54.11,16.66 52.65,15.63 55.06,14.94 "/>
<g>
	<polygon class="st2" points="0,79.89 39.02,31.48 42.63,33 47.26,29.18 61.17,43.78 64.59,42.47 92.32,74.78 	"/>
	<polygon class="st3" points="64.86,42.73 63.95,45.18 64.19,49.57 66.61,55.77 74.13,75.77 92.32,74.78 	"/>
	<polygon class="st3" points="47.52,29.44 45.9,34.52 48.77,45.85 46.99,48.27 56.07,76.55 72.65,75.65 61.43,44.04 	"/>
	<polygon class="st3" points="39.54,31.74 46.16,34.53 47.7,41.55 44.87,45.97 48.55,59.21 44.88,62.05 36.95,65.29 34.92,55.86 
		37.98,51.07 36.61,45.36 37.75,39.74 40.32,38.25 	"/>
	<polygon class="st4" points="37.75,39.74 25.97,49.98 36.61,45.36 	"/>
	<polygon class="st4" points="34.92,55.86 16.7,71.32 36.37,63.28 	"/>
</g>
<circle class="st5" cx="52.69" cy="10.8" r="0.22"/>
<ellipse class="st5" cx="56.2" cy="10.7" rx="0.3" ry="0.42"/>
</svg>
